{"_v":2,"glyphs":{"0":{"ha":572,"x_min":36,"x_max":535,"o":"m 285 -10 l 285 -10 q 199 -10 144 34 q 89 78 63 160 q 36 242 36 357 l 36 357 q 36 473 60 555 q 84 637 139 681 q 194 725 285 725 l 285 725 q 371 725 426 682 q 481 638 508 556 q 535 473 535 357 l 535 357 q 535 271 522 203 q 508 135 479 88 q 449 40 402 15 q 354 -10 285 -10 z m 285 112 l 285 112 q 313 112 333 127 q 352 142 364 173 q 375 204 380 250 q 385 296 385 357 l 385 357 q 385 418 380 464 q 375 510 364 541 q 352 572 333 588 q 313 603 285 603 l 285 603 q 257 603 238 588 q 218 572 207 541 q 196 510 191 464 q 186 418 186 357 l 186 357 q 186 296 191 250 q 196 204 207 174 q 218 143 238 128 q 257 112 285 112 z"},"1":{"ha":572,"x_min":59,"x_max":413,"o":"m 413 714 l 413 0 l 262 0 l 262 413 q 262 439 264 481 q 265 523 266 555 l 266 555 q 261 549 245 533 q 228 517 214 506 l 214 506 l 132 440 l 59 531 l 289 714 l 413 714 z"},"2":{"ha":572,"x_min":38,"x_max":539,"o":"m 539 0 l 40 0 l 40 105 l 219 286 q 274 341 307 379 q 339 416 354 447 q 369 478 369 513 l 369 513 q 369 542 359 561 q 348 579 329 589 q 309 598 282 598 l 282 598 q 241 598 202 579 q 163 560 120 525 l 120 525 l 38 622 q 69 649 105 672 q 141 695 187 710 q 233 724 293 724 l 293 724 q 363 724 414 699 q 464 673 492 630 q 519 586 519 531 l 519 531 q 519 472 495 424 q 471 375 427 327 q 382 279 320 220 l 320 220 l 228 134 l 228 127 l 539 127 l 539 0 z"},"3":{"ha":572,"x_min":38,"x_max":532,"o":"m 244 -10 l 244 -10 q 185 -10 134 0 q 83 10 38 29 l 38 29 l 38 157 q 84 134 135 122 q 185 110 228 110 l 228 110 q 309 110 342 138 q 374 166 374 217 l 374 217 q 374 247 359 268 q 344 288 307 299 q 269 309 202 309 l 202 309 l 148 309 l 148 425 l 203 425 q 269 425 304 438 q 338 450 351 472 q 363 493 363 521 l 363 521 q 363 559 340 581 q 316 602 261 602 l 261 602 q 210 602 173 585 q 135 567 109 550 l 109 550 l 39 654 q 84 683 139 704 q 194 724 272 724 l 272 724 q 346 724 400 704 q 453 684 482 646 q 511 608 511 554 l 511 554 q 511 505 491 469 q 470 433 436 410 q 401 387 357 376 l 357 376 l 357 373 q 443 363 488 321 q 532 279 532 208 l 532 208 q 532 146 502 97 q 471 47 408 19 q 344 -10 244 -10 z"},"4":{"ha":572,"x_min":17,"x_max":555,"o":"m 469 0 l 322 0 l 322 148 l 17 148 l 17 253 l 330 714 l 469 714 l 469 265 l 555 265 l 555 148 l 469 148 l 469 0 z m 281 463 l 150 265 l 322 265 l 322 386 q 322 409 323 442 q 324 475 326 504 q 327 532 328 541 l 328 541 l 324 541 q 315 521 305 502 q 295 483 281 463 l 281 463 z"},"5":{"ha":572,"x_min":49,"x_max":526,"o":"m 241 -10 l 241 -10 q 185 -10 136 0 q 86 10 49 29 l 49 29 l 49 159 q 86 140 138 127 q 190 113 236 113 l 236 113 q 281 113 312 125 q 342 137 358 162 q 374 187 374 226 l 374 226 q 374 279 339 307 q 304 334 231 334 l 231 334 q 203 334 173 329 q 143 323 123 318 l 123 318 l 63 350 l 90 714 l 477 714 l 477 586 l 222 586 l 209 446 q 226 449 246 453 q 265 456 300 456 l 300 456 q 365 456 416 431 q 467 406 497 358 q 526 310 526 239 l 526 239 q 526 162 494 106 q 462 50 399 20 q 335 -10 241 -10 z"},"6":{"ha":572,"x_min":35,"x_max":539,"o":"m 296 -10 l 296 -10 q 241 -10 194 9 q 146 28 111 67 q 75 105 55 164 q 35 223 35 303 l 35 303 q 35 365 44 425 q 53 485 76 539 q 98 592 139 634 q 179 675 242 699 q 304 722 393 722 l 393 722 q 414 722 442 721 q 470 719 489 715 l 489 715 l 489 594 q 470 599 448 602 q 425 604 403 604 l 403 604 q 314 604 266 576 q 217 548 197 498 q 177 447 174 381 l 174 381 l 180 381 q 194 405 215 424 q 235 442 265 453 q 295 464 335 464 l 335 464 q 398 464 444 438 q 489 411 514 361 q 539 310 539 238 l 539 238 q 539 161 510 105 q 480 49 426 20 q 371 -10 296 -10 z m 293 111 l 293 111 q 337 111 365 142 q 393 172 393 236 l 393 236 q 393 288 369 318 q 345 348 296 348 l 296 348 q 263 348 238 334 q 213 319 199 296 q 185 273 185 249 l 185 249 q 185 224 192 200 q 199 175 213 155 q 226 135 246 123 q 266 111 293 111 z"},"7":{"ha":572,"x_min":27,"x_max":539,"o":"m 269 0 l 111 0 l 379 586 l 27 586 l 27 713 l 539 713 l 539 618 l 269 0 z"},"8":{"ha":572,"x_min":35,"x_max":536,"o":"m 286 -10 l 286 -10 q 206 -10 150 13 q 94 36 65 79 q 35 122 35 181 l 35 181 q 35 230 54 266 q 72 302 103 329 q 134 355 172 373 l 172 373 q 140 393 114 419 q 88 444 73 477 q 57 509 57 552 l 57 552 q 57 609 89 647 q 121 685 174 704 q 226 723 286 723 l 286 723 q 348 723 400 704 q 451 685 483 647 q 514 609 514 551 l 514 551 q 514 508 497 476 q 480 443 452 419 q 423 395 386 377 l 386 377 q 424 357 459 331 q 493 304 515 269 q 536 233 536 185 l 536 185 q 536 126 505 82 q 473 38 417 14 q 360 -10 286 -10 z m 284 101 l 284 101 q 340 101 368 125 q 396 149 396 189 l 396 189 q 396 216 381 237 q 365 258 341 275 q 317 291 292 304 l 292 304 l 279 311 q 248 297 225 279 q 201 261 188 240 q 175 218 175 190 l 175 190 q 175 151 203 126 q 230 101 284 101 z m 286 440 l 286 440 q 309 451 329 464 q 348 477 360 496 q 372 514 372 540 l 372 540 q 372 575 348 594 q 323 613 285 613 l 285 613 q 248 613 224 594 q 199 575 199 540 l 199 540 q 199 516 211 498 q 223 479 243 466 q 263 452 286 440 z"},"9":{"ha":572,"x_min":32,"x_max":536,"o":"m 178 -10 l 178 -10 q 157 -10 129 -8 q 101 -7 82 -3 l 82 -3 l 82 118 q 102 114 124 111 q 146 108 168 108 l 168 108 q 235 108 279 124 q 322 140 347 170 q 372 200 384 241 q 395 282 397 331 l 397 331 l 391 331 q 377 308 358 289 q 338 270 309 259 q 279 248 233 248 l 233 248 q 172 248 127 275 q 82 301 57 352 q 32 402 32 474 l 32 474 q 32 552 62 608 q 91 663 146 693 q 201 722 275 722 l 275 722 q 330 722 378 703 q 425 684 461 646 q 496 607 516 548 q 536 489 536 409 l 536 409 q 536 348 527 288 q 518 227 496 174 q 473 120 433 79 q 392 37 330 14 q 267 -10 178 -10 z m 275 364 l 275 364 q 309 364 334 379 q 358 394 372 417 q 386 439 386 463 l 386 463 q 386 488 379 513 q 372 537 359 557 q 345 577 325 589 q 305 601 278 601 l 278 601 q 234 601 206 571 q 178 541 178 476 l 178 476 q 178 424 202 394 q 226 364 275 364 z"},"\r":{"ha":309,"x_min":0,"x_max":0,"o":""}," ":{"ha":309,"x_min":0,"x_max":0,"o":""},"ഀ":{"ha":0,"x_min":-449,"x_max":-106,"o":"m -449 713 l -449 713 q -449 778 -403 821 q -357 864 -278 864 l -278 864 q -198 864 -152 821 q -106 778 -106 713 l -106 713 q -106 649 -151 606 q -197 562 -278 562 l -278 562 q -359 562 -404 606 q -449 649 -449 713 z m -344 713 l -344 713 q -344 688 -328 669 q -312 649 -278 649 l -278 649 q -243 649 -227 669 q -211 689 -211 714 l -211 714 q -211 740 -228 759 q -246 777 -278 777 l -278 777 q -312 777 -328 758 q -344 739 -344 713 z"},"ഁ":{"ha":0,"x_min":-473,"x_max":-83,"o":"m -278 636 l -278 636 q -375 636 -424 682 q -473 727 -473 804 l -473 804 q -473 824 -471 838 q -469 852 -465 864 l -465 864 l -373 845 q -376 835 -377 826 q -378 816 -378 808 l -378 808 q -378 776 -364 758 q -350 740 -327 733 q -305 726 -278 726 l -278 726 q -254 726 -231 733 q -208 739 -193 758 q -178 776 -178 810 l -178 810 q -178 818 -179 827 q -180 835 -183 845 l -183 845 l -90 863 q -87 851 -85 837 q -83 823 -83 806 l -83 806 q -83 727 -132 682 q -182 636 -278 636 z m -279 752 l -279 752 q -313 752 -326 767 q -340 782 -340 807 l -340 807 q -340 830 -326 846 q -313 862 -279 862 l -279 862 q -245 862 -231 846 q -217 830 -217 807 l -217 807 q -217 782 -231 767 q -245 752 -279 752 z"},"ം":{"ha":502,"x_min":29,"x_max":473,"o":"m 251 -12 l 251 -12 q 183 -12 133 13 q 83 37 56 81 q 29 124 29 180 l 29 180 q 29 237 58 281 q 86 324 136 348 q 186 372 250 372 l 250 372 q 316 372 366 349 q 416 325 445 282 q 473 239 473 180 l 473 180 q 473 122 445 79 q 416 35 366 12 q 316 -12 251 -12 z m 250 270 l 250 270 q 214 270 190 248 q 165 225 165 179 l 165 179 q 165 136 190 113 q 214 90 251 90 l 251 90 q 287 90 312 112 q 337 134 337 180 l 337 180 q 337 225 313 248 q 288 270 250 270 z"},"ഃ":{"ha":367,"x_min":30,"x_max":337,"o":"m 30 438 l 30 438 q 30 496 72 535 q 114 574 183 574 l 183 574 q 253 574 295 536 q 337 497 337 438 l 337 438 q 337 380 296 341 q 254 302 184 302 l 184 302 q 113 302 72 341 q 30 380 30 438 z m 130 439 l 130 439 q 130 417 144 402 q 158 387 183 387 l 183 387 q 210 387 224 402 q 237 417 237 439 l 237 439 q 237 461 223 475 q 209 489 183 489 l 183 489 q 158 489 144 475 q 130 461 130 439 z m 30 124 l 30 124 q 30 182 72 221 q 114 260 183 260 l 183 260 q 253 260 295 221 q 337 182 337 124 l 337 124 q 337 66 296 27 q 254 -12 184 -12 l 184 -12 q 113 -12 72 27 q 30 66 30 124 z m 130 125 l 130 125 q 130 103 144 88 q 158 73 183 73 l 183 73 q 210 73 224 88 q 237 103 237 125 l 237 125 q 237 146 223 161 q 209 175 183 175 l 183 175 q 158 175 144 161 q 130 146 130 125 z"},"ഄ":{"ha":640,"x_min":32,"x_max":608,"o":"m 49 341 l 49 341 l 184 318 q 178 296 175 272 q 172 248 172 227 l 172 227 q 172 163 208 130 q 244 97 319 97 l 319 97 q 396 97 432 130 q 468 163 468 227 l 468 227 q 468 247 465 272 q 462 296 456 318 l 456 318 l 590 341 q 597 318 603 287 q 608 255 608 223 l 608 223 q 608 154 581 102 q 554 50 491 21 q 427 -9 319 -9 l 319 -9 q 212 -9 149 21 q 86 50 59 102 q 32 154 32 223 l 32 223 q 32 255 37 287 q 42 318 49 341 z m 262 186 l 262 418 l 378 418 l 378 186 l 262 186 z"},"അ":{"ha":1658,"x_min":37,"x_max":1622,"o":"m 404 574 l 404 574 q 463 574 528 564 q 592 553 649 529 l 649 529 q 659 525 667 519 q 675 513 684 508 l 684 508 q 716 496 742 477 q 768 457 784 432 q 800 406 800 373 l 800 373 q 800 347 792 326 q 783 305 764 288 q 744 270 712 255 l 712 255 l 710 265 q 756 247 784 216 q 811 185 811 138 l 811 138 q 811 98 790 64 q 769 30 721 9 q 672 -12 589 -12 l 589 -12 q 496 -12 439 22 q 381 55 355 112 q 328 168 328 238 l 328 238 q 328 295 347 347 q 365 399 405 444 q 445 488 510 522 l 510 522 q 516 525 522 529 q 527 532 534 534 l 534 534 q 575 553 628 564 q 680 574 738 574 l 738 574 q 807 574 855 561 q 903 548 938 526 q 973 503 1002 473 l 1002 473 l 1063 220 l 1063 0 l 915 0 l 915 250 q 915 326 904 369 q 892 411 858 438 l 858 438 q 835 456 806 465 q 777 473 736 473 l 736 473 q 705 473 677 469 q 649 465 629 460 l 629 460 q 584 448 553 424 q 521 399 502 368 q 483 336 475 303 q 466 270 466 240 l 466 240 q 466 160 497 126 q 527 91 584 91 l 584 91 q 627 91 648 106 q 669 120 669 148 l 669 148 q 669 174 646 189 q 623 204 576 204 l 576 204 l 549 204 l 549 308 l 568 308 q 618 308 638 326 q 658 343 658 371 l 658 371 q 658 400 631 424 q 604 448 533 461 l 533 461 q 509 466 479 470 q 448 473 413 473 l 413 473 q 335 473 285 449 q 235 424 211 381 q 187 337 187 281 l 187 281 q 187 235 199 198 q 210 161 233 129 q 255 97 289 64 l 289 64 l 191 -12 q 146 25 112 67 q 77 108 57 161 q 37 213 37 281 l 37 281 q 37 335 56 387 q 75 439 117 482 q 159 524 230 549 q 301 574 404 574 z m 1379 -12 l 1379 -12 q 1301 -12 1253 18 q 1205 48 1183 98 q 1160 147 1160 206 l 1160 206 q 1160 297 1211 354 q 1262 410 1359 410 l 1359 410 q 1419 410 1465 380 q 1510 350 1538 303 q 1565 256 1568 204 l 1568 204 l 1513 207 q 1507 232 1491 256 q 1475 279 1451 295 q 1427 310 1395 310 l 1395 310 q 1346 310 1325 281 q 1303 252 1303 202 l 1303 202 q 1303 170 1312 145 q 1320 120 1339 107 q 1357 93 1386 93 l 1386 93 q 1415 93 1436 109 q 1456 124 1467 156 q 1478 188 1478 239 l 1478 239 q 1478 253 1477 272 q 1475 290 1472 307 l 1472 307 q 1471 312 1473 318 q 1475 323 1473 327 l 1473 327 q 1467 364 1441 396 q 1414 427 1367 447 q 1320 467 1250 467 l 1250 467 q 1206 467 1177 460 q 1148 453 1122 433 l 1122 433 q 1104 419 1091 398 q 1077 376 1070 340 q 1063 304 1063 244 l 1063 244 l 1063 211 l 976 471 q 1005 499 1042 523 q 1078 546 1130 560 q 1181 574 1256 574 l 1256 574 q 1345 574 1414 548 q 1482 522 1529 476 q 1575 429 1599 368 q 1622 307 1622 237 l 1622 237 q 1622 151 1593 96 q 1563 41 1509 15 q 1454 -12 1379 -12 z"},"ആ":{"ha":1831,"x_min":37,"x_max":1804,"o":"m 404 574 l 404 574 q 463 574 528 564 q 592 553 649 529 l 649 529 q 659 525 667 519 q 675 513 684 508 l 684 508 q 716 496 742 477 q 768 457 784 432 q 800 406 800 373 l 800 373 q 800 347 792 326 q 783 305 764 288 q 744 270 712 255 l 712 255 l 710 265 q 756 247 784 216 q 811 185 811 138 l 811 138 q 811 98 790 64 q 769 30 721 9 q 672 -12 589 -12 l 589 -12 q 496 -12 439 22 q 381 55 355 112 q 328 168 328 238 l 328 238 q 328 295 347 347 q 365 399 405 444 q 445 488 510 522 l 510 522 q 516 525 522 529 q 527 532 534 534 l 534 534 q 575 553 628 564 q 680 574 738 574 l 738 574 q 807 574 855 561 q 903 548 938 526 q 973 503 1002 473 l 1002 473 l 1063 220 l 1063 0 l 915 0 l 915 250 q 915 326 904 369 q 892 411 858 438 l 858 438 q 835 456 806 465 q 777 473 736 473 l 736 473 q 705 473 677 469 q 649 465 629 460 l 629 460 q 584 448 553 424 q 521 399 502 368 q 483 336 475 303 q 466 270 466 240 l 466 240 q 466 160 497 126 q 527 91 584 91 l 584 91 q 627 91 648 106 q 669 120 669 148 l 669 148 q 669 174 646 189 q 623 204 576 204 l 576 204 l 549 204 l 549 308 l 568 308 q 618 308 638 326 q 658 343 658 371 l 658 371 q 658 400 631 424 q 604 448 533 461 l 533 461 q 509 466 479 470 q 448 473 413 473 l 413 473 q 335 473 285 449 q 235 424 211 381 q 187 337 187 281 l 187 281 q 187 235 199 198 q 210 161 233 129 q 255 97 289 64 l 289 64 l 191 -12 q 146 25 112 67 q 77 108 57 161 q 37 213 37 281 l 37 281 q 37 335 56 387 q 75 439 117 482 q 159 524 230 549 q 301 574 404 574 z m 1244 574 l 1244 574 q 1336 574 1407 544 q 1477 514 1522 462 q 1566 409 1581 341 l 1581 341 q 1588 315 1591 287 q 1594 259 1594 229 l 1594 229 q 1594 146 1567 93 q 1539 39 1486 14 q 1433 -12 1357 -12 l 1357 -12 q 1285 -12 1237 14 q 1189 40 1165 84 q 1141 127 1141 182 l 1141 182 q 1141 286 1217 344 q 1293 401 1429 401 l 1429 401 q 1455 401 1473 401 q 1490 400 1504 398 l 1504 398 l 1540 394 q 1624 381 1683 340 q 1742 298 1773 237 q 1804 175 1804 100 l 1804 100 q 1804 39 1785 -15 q 1766 -70 1725 -111 q 1684 -153 1619 -177 q 1554 -201 1463 -201 l 1463 -201 q 1412 -201 1366 -194 q 1320 -187 1282 -174 l 1282 -174 l 1323 -72 q 1355 -83 1386 -88 q 1416 -93 1458 -93 l 1458 -93 q 1519 -93 1559 -76 q 1598 -59 1621 -31 q 1644 -3 1654 32 q 1663 66 1663 100 l 1663 100 q 1663 149 1650 184 q 1636 219 1612 244 q 1587 269 1554 284 l 1554 284 l 1516 291 q 1500 296 1480 298 q 1460 300 1439 300 l 1439 300 q 1386 300 1352 285 q 1317 270 1301 243 q 1284 216 1284 179 l 1284 179 q 1284 154 1293 134 q 1301 114 1319 103 q 1336 91 1363 91 l 1363 91 q 1409 91 1432 124 q 1455 156 1455 230 l 1455 230 q 1455 265 1449 297 q 1443 329 1432 355 l 1432 355 l 1424 378 q 1407 407 1380 427 q 1353 447 1318 457 q 1282 467 1237 467 l 1237 467 q 1203 467 1175 460 q 1147 453 1121 433 l 1121 433 q 1103 419 1090 398 q 1077 376 1070 340 q 1063 303 1063 242 l 1063 242 l 1063 211 l 975 470 q 1003 499 1040 523 q 1076 546 1126 560 q 1176 574 1244 574 z"},"ഇ":{"ha":1056,"x_min":37,"x_max":1019,"o":"m 363 574 l 363 574 q 427 574 473 562 q 518 549 551 528 q 583 507 608 482 l 608 482 l 568 489 q 604 536 656 555 q 708 574 765 574 l 765 574 q 830 574 878 552 q 926 530 957 493 q 988 455 1004 408 q 1019 361 1019 311 l 1019 311 q 1019 220 994 161 q 969 101 917 62 l 917 62 q 889 42 854 28 q 818 14 769 7 q 720 0 652 0 l 652 0 l 305 0 q 262 0 244 -2 q 225 -5 215 -10 l 215 -10 q 202 -16 197 -25 q 192 -34 192 -45 l 192 -45 q 192 -56 196 -65 q 200 -74 210 -81 l 210 -81 q 221 -87 240 -90 q 259 -94 302 -94 l 302 -94 l 1000 -94 l 1000 -201 l 283 -201 q 225 -201 180 -192 q 135 -183 107 -166 l 107 -166 q 76 -146 60 -117 q 44 -88 44 -51 l 44 -51 q 44 -13 60 19 q 76 50 110 71 l 110 71 q 128 82 151 90 q 173 97 206 101 q 238 105 284 105 l 284 105 l 599 105 q 671 105 715 112 q 758 119 784 133 q 809 146 827 164 l 827 164 q 853 190 862 226 q 870 261 870 302 l 870 302 q 870 342 858 380 q 846 418 819 443 q 791 468 745 468 l 745 468 q 726 468 708 461 q 690 454 678 438 l 678 438 q 665 422 660 396 q 654 370 654 317 l 654 317 l 654 146 l 509 146 l 509 300 q 509 357 498 389 q 486 421 465 438 l 465 438 q 447 454 420 462 q 392 470 348 470 l 348 470 q 317 470 290 465 q 263 460 240 450 q 217 440 200 425 q 182 409 171 388 l 171 388 q 167 381 165 372 q 163 362 161 354 l 161 354 q 160 346 159 335 q 157 324 157 309 l 157 309 q 157 268 176 244 q 195 219 229 219 l 229 219 q 261 219 276 238 q 290 256 290 283 l 290 283 q 290 301 284 315 q 277 328 264 336 q 250 344 229 344 l 229 344 q 196 344 173 335 q 150 326 126 315 l 126 315 l 45 325 q 64 348 99 373 q 133 397 175 414 q 217 430 258 430 l 258 430 q 317 430 354 410 q 390 389 408 356 q 425 323 425 284 l 425 284 q 425 242 405 206 q 385 170 342 148 q 299 126 231 126 l 231 126 q 174 126 130 150 q 86 174 62 218 q 37 261 37 321 l 37 321 q 37 393 77 450 q 117 507 190 541 q 263 574 363 574 z"},"ഈ":{"ha":1884,"x_min":37,"x_max":1848,"o":"m 363 574 l 363 574 q 427 574 473 562 q 518 549 551 528 q 583 507 608 482 l 608 482 l 568 489 q 604 536 656 555 q 708 574 765 574 l 765 574 q 830 574 878 552 q 926 530 957 493 q 988 455 1004 408 q 1019 361 1019 311 l 1019 311 q 1019 220 994 161 q 969 101 917 62 l 917 62 q 889 42 854 28 q 818 14 769 7 q 720 0 652 0 l 652 0 l 305 0 q 262 0 244 -2 q 225 -5 215 -10 l 215 -10 q 202 -16 197 -25 q 192 -34 192 -45 l 192 -45 q 192 -56 196 -65 q 200 -74 210 -81 l 210 -81 q 221 -87 240 -90 q 259 -94 302 -94 l 302 -94 l 1000 -94 l 1000 -201 l 283 -201 q 225 -201 180 -192 q 135 -183 107 -166 l 107 -166 q 76 -146 60 -117 q 44 -88 44 -51 l 44 -51 q 44 -13 60 19 q 76 50 110 71 l 110 71 q 128 82 151 90 q 173 97 206 101 q 238 105 284 105 l 284 105 l 599 105 q 671 105 715 112 q 758 119 784 133 q 809 146 827 164 l 827 164 q 853 190 862 226 q 870 261 870 302 l 870 302 q 870 342 858 380 q 846 418 819 443 q 791 468 745 468 l 745 468 q 726 468 708 461 q 690 454 678 438 l 678 438 q 665 422 660 396 q 654 370 654 317 l 654 317 l 654 146 l 509 146 l 509 300 q 509 357 498 389 q 486 421 465 438 l 465 438 q 447 454 420 462 q 392 470 348 470 l 348 470 q 317 470 290 465 q 263 460 240 450 q 217 440 200 425 q 182 409 171 388 l 171 388 q 167 381 165 372 q 163 362 161 354 l 161 354 q 160 346 159 335 q 157 324 157 309 l 157 309 q 157 268 176 244 q 195 219 229 219 l 229 219 q 261 219 276 238 q 290 256 290 283 l 290 283 q 290 301 284 315 q 277 328 264 336 q 250 344 229 344 l 229 344 q 196 344 173 335 q 150 326 126 315 l 126 315 l 45 325 q 64 348 99 373 q 133 397 175 414 q 217 430 258 430 l 258 430 q 317 430 354 410 q 390 389 408 356 q 425 323 425 284 l 425 284 q 425 242 405 206 q 385 170 342 148 q 299 126 231 126 l 231 126 q 174 126 130 150 q 86 174 62 218 q 37 261 37 321 l 37 321 q 37 393 77 450 q 117 507 190 541 q 263 574 363 574 z m 1617 574 l 1617 574 q 1690 574 1742 541 q 1793 507 1821 448 q 1848 388 1848 309 l 1848 309 q 1848 208 1812 136 q 1776 64 1707 26 q 1637 -12 1534 -12 l 1534 -12 q 1455 -12 1396 2 q 1336 16 1283 44 l 1283 44 l 1337 144 q 1384 120 1426 108 q 1467 95 1522 95 l 1522 95 q 1588 95 1627 122 q 1666 148 1683 195 q 1699 242 1699 305 l 1699 305 q 1699 390 1673 430 q 1647 469 1606 469 l 1606 469 q 1584 469 1570 461 q 1556 452 1548 437 l 1548 437 q 1541 424 1539 407 q 1536 389 1536 355 l 1536 355 l 1536 262 l 1390 262 l 1390 333 q 1390 376 1387 401 q 1384 425 1376 438 l 1376 438 q 1366 455 1351 462 q 1335 469 1318 469 l 1318 469 q 1275 469 1255 441 q 1234 413 1234 380 l 1234 380 q 1234 349 1239 328 q 1243 306 1249 289 l 1249 289 l 1107 258 q 1097 286 1092 320 q 1087 354 1087 379 l 1087 379 q 1087 431 1110 475 q 1133 519 1181 547 q 1228 574 1302 574 l 1302 574 q 1361 574 1401 557 q 1440 539 1467 509 l 1467 509 l 1455 511 q 1486 545 1526 560 q 1566 574 1617 574 z"},"ഉ":{"ha":760,"x_min":37,"x_max":724,"o":"m 378 574 l 378 574 q 476 574 542 550 q 608 525 649 485 q 689 444 707 395 q 724 345 724 295 l 724 295 q 724 222 703 169 q 681 115 638 80 l 638 80 q 602 50 557 33 q 512 15 454 8 q 396 0 320 0 l 320 0 l 305 0 q 262 0 244 -2 q 225 -5 215 -10 l 215 -10 q 202 -16 197 -25 q 192 -34 192 -45 l 192 -45 q 192 -56 196 -65 q 200 -74 210 -81 l 210 -81 q 221 -87 240 -90 q 259 -94 302 -94 l 302 -94 l 704 -94 l 704 -201 l 283 -201 q 225 -201 180 -192 q 135 -183 107 -166 l 107 -166 q 76 -146 60 -117 q 44 -88 44 -51 l 44 -51 q 44 -13 60 19 q 76 50 110 71 l 110 71 q 136 87 175 96 q 214 105 284 105 l 284 105 l 286 105 q 359 105 408 112 q 456 118 487 132 q 517 145 537 167 l 537 167 q 557 190 566 222 q 575 253 575 294 l 575 294 q 575 323 565 354 q 555 384 532 411 q 508 437 468 453 q 427 469 366 469 l 366 469 q 327 469 294 463 q 260 457 234 445 q 207 432 189 413 q 171 394 163 367 l 163 367 q 162 364 163 362 q 163 359 162 356 l 162 356 q 160 348 159 338 q 157 327 157 309 l 157 309 q 157 268 176 244 q 195 219 229 219 l 229 219 q 261 219 276 238 q 290 256 290 283 l 290 283 q 290 301 284 315 q 277 328 264 336 q 250 344 229 344 l 229 344 q 196 344 173 335 q 149 326 126 315 l 126 315 l 45 325 q 64 348 99 373 q 133 397 175 414 q 217 430 258 430 l 258 430 q 317 430 354 410 q 390 389 408 356 q 425 323 425 284 l 425 284 q 425 242 405 206 q 385 170 342 148 q 299 126 231 126 l 231 126 q 174 126 130 150 q 86 173 62 217 q 37 261 37 320 l 37 320 q 37 371 60 417 q 82 463 126 499 q 169 534 233 554 q 296 574 378 574 z"},"ഊ":{"ha":1588,"x_min":37,"x_max":1552,"o":"m 378 574 l 378 574 q 476 574 542 550 q 608 525 649 485 q 689 444 707 395 q 724 345 724 295 l 724 295 q 724 222 703 169 q 681 115 638 80 l 638 80 q 602 50 557 33 q 512 15 454 8 q 396 0 320 0 l 320 0 l 305 0 q 262 0 244 -2 q 225 -5 215 -10 l 215 -10 q 202 -16 197 -25 q 192 -34 192 -45 l 192 -45 q 192 -56 196 -65 q 200 -74 210 -81 l 210 -81 q 221 -87 240 -90 q 259 -94 302 -94 l 302 -94 l 704 -94 l 704 -201 l 283 -201 q 225 -201 180 -192 q 135 -183 107 -166 l 107 -166 q 76 -146 60 -117 q 44 -88 44 -51 l 44 -51 q 44 -13 60 19 q 76 50 110 71 l 110 71 q 136 87 175 96 q 214 105 284 105 l 284 105 l 286 105 q 359 105 408 112 q 456 118 487 132 q 517 145 537 167 l 537 167 q 557 190 566 222 q 575 253 575 294 l 575 294 q 575 323 565 354 q 555 384 532 411 q 508 437 468 453 q 427 469 366 469 l 366 469 q 327 469 294 463 q 260 457 234 445 q 207 432 189 413 q 171 394 163 367 l 163 367 q 162 364 163 362 q 163 359 162 356 l 162 356 q 160 348 159 338 q 157 327 157 309 l 157 309 q 157 268 176 244 q 195 219 229 219 l 229 219 q 261 219 276 238 q 290 256 290 283 l 290 283 q 290 301 284 315 q 277 328 264 336 q 250 344 229 344 l 229 344 q 196 344 173 335 q 149 326 126 315 l 126 315 l 45 325 q 64 348 99 373 q 133 397 175 414 q 217 430 258 430 l 258 430 q 317 430 354 410 q 390 389 408 356 q 425 323 425 284 l 425 284 q 425 242 405 206 q 385 170 342 148 q 299 126 231 126 l 231 126 q 174 126 130 150 q 86 173 62 217 q 37 261 37 320 l 37 320 q 37 371 60 417 q 82 463 126 499 q 169 534 233 554 q 296 574 378 574 z m 1321 574 l 1321 574 q 1394 574 1446 541 q 1497 507 1525 448 q 1552 388 1552 309 l 1552 309 q 1552 208 1516 136 q 1480 64 1411 26 q 1341 -12 1238 -12 l 1238 -12 q 1159 -12 1100 2 q 1040 16 987 44 l 987 44 l 1041 144 q 1088 120 1130 108 q 1171 95 1226 95 l 1226 95 q 1292 95 1331 122 q 1370 148 1387 195 q 1403 242 1403 305 l 1403 305 q 1403 390 1377 430 q 1351 469 1310 469 l 1310 469 q 1288 469 1274 461 q 1260 452 1252 437 l 1252 437 q 1245 424 1243 407 q 1240 389 1240 355 l 1240 355 l 1240 262 l 1094 262 l 1094 333 q 1094 376 1091 401 q 1088 425 1080 438 l 1080 438 q 1070 455 1055 462 q 1039 469 1022 469 l 1022 469 q 979 469 959 441 q 938 413 938 380 l 938 380 q 938 349 943 328 q 947 306 953 289 l 953 289 l 811 258 q 801 286 796 320 q 791 354 791 379 l 791 379 q 791 431 814 475 q 837 519 885 547 q 932 574 1006 574 l 1006 574 q 1065 574 1105 557 q 1144 539 1171 509 l 1171 509 l 1159 511 q 1190 545 1230 560 q 1270 574 1321 574 z"},"ഋ":{"ha":1010,"x_min":34,"x_max":976,"o":"m 744 574 l 744 574 q 851 574 914 516 q 976 457 976 341 l 976 341 q 976 270 945 214 q 913 158 857 122 l 857 122 q 812 93 753 77 q 694 61 624 61 l 624 61 l 390 61 q 346 61 306 67 q 266 73 232 86 q 197 98 167 115 l 167 115 q 104 151 69 209 q 34 267 34 341 l 34 341 q 34 415 64 467 q 93 519 147 547 q 200 574 272 574 l 272 574 q 341 574 387 550 q 432 526 455 486 q 477 445 477 397 l 477 397 q 477 342 454 304 q 430 265 386 246 q 341 226 279 226 l 279 226 q 232 226 193 243 q 153 259 124 282 q 95 304 78 322 l 78 322 l 111 427 q 128 402 147 378 q 165 354 191 338 q 217 322 253 322 l 253 322 q 289 322 312 341 q 335 360 335 400 l 335 400 q 335 435 315 455 q 294 474 262 474 l 262 474 q 233 474 213 460 q 192 445 181 419 q 170 393 170 357 l 170 357 q 170 338 173 321 q 176 304 180 290 l 180 290 l 171 275 q 185 240 217 219 q 248 197 290 186 q 332 175 378 171 q 423 167 465 167 l 465 167 l 546 167 q 584 167 629 170 q 674 173 718 184 q 761 194 794 216 q 827 238 841 275 l 841 275 l 832 289 q 836 303 839 320 q 841 336 841 355 l 841 355 q 841 392 830 419 q 819 445 799 460 q 779 474 750 474 l 750 474 q 717 474 697 455 q 677 435 677 400 l 677 400 q 677 360 700 341 q 722 322 758 322 l 758 322 q 795 322 821 338 q 846 354 865 378 q 884 402 900 427 l 900 427 l 933 322 q 917 304 888 282 q 858 259 819 243 q 780 226 732 226 l 732 226 q 670 226 626 246 q 582 265 559 304 q 535 342 535 397 l 535 397 q 535 445 559 486 q 582 526 629 550 q 675 574 744 574 z m 510 -249 l 510 -249 q 376 -249 287 -228 q 197 -208 153 -162 q 108 -117 108 -43 l 108 -43 q 108 6 134 40 q 160 73 206 93 q 252 113 312 122 q 371 131 438 131 l 438 131 l 568 131 q 639 131 700 122 q 761 113 807 93 q 852 73 878 39 q 903 5 903 -46 l 903 -46 q 903 -109 864 -154 q 825 -200 739 -224 q 652 -249 510 -249 z m 508 -140 l 508 -140 q 597 -140 651 -128 q 704 -117 729 -95 q 753 -73 753 -40 l 753 -40 q 753 -7 733 13 q 713 32 679 43 q 645 53 604 57 q 562 60 519 60 l 519 60 l 494 60 q 430 60 376 52 q 322 44 290 23 q 258 1 258 -39 l 258 -39 q 258 -74 283 -96 q 307 -119 362 -129 q 417 -140 508 -140 z"},"ഌ":{"ha":1298,"x_min":37,"x_max":1262,"o":"m 399 574 l 399 574 q 489 574 550 549 q 610 523 658 473 l 658 473 l 681 398 l 703 225 l 703 0 l 556 0 l 556 269 q 556 346 544 381 q 532 415 511 433 l 511 433 q 492 450 466 459 q 440 468 396 468 l 396 468 q 332 468 282 443 q 231 417 202 366 q 172 315 172 240 l 172 240 l 172 237 q 172 181 184 149 q 196 116 217 102 q 237 88 262 88 l 262 88 q 283 88 298 97 q 312 106 320 124 q 327 141 327 167 l 327 167 q 327 205 310 226 q 292 247 255 247 l 255 247 q 218 247 184 227 q 150 206 116 168 l 116 168 l 104 267 q 132 296 181 322 q 229 347 291 347 l 291 347 q 348 347 388 326 q 428 304 449 266 q 469 227 469 174 l 469 174 q 469 116 445 75 q 421 33 376 11 q 331 -12 267 -12 l 267 -12 q 207 -12 155 14 q 102 40 70 96 q 37 152 37 242 l 37 242 q 37 350 85 424 q 133 498 216 536 q 298 574 399 574 z m 1019 -12 l 1019 -12 q 941 -12 893 18 q 845 48 823 98 q 800 147 800 206 l 800 206 q 800 297 851 354 q 902 410 999 410 l 999 410 q 1059 410 1105 380 q 1150 350 1178 303 q 1205 256 1208 204 l 1208 204 l 1153 207 q 1147 232 1131 256 q 1115 279 1091 295 q 1067 310 1035 310 l 1035 310 q 986 310 965 281 q 943 252 943 202 l 943 202 q 943 170 952 145 q 960 120 979 107 q 997 93 1026 93 l 1026 93 q 1055 93 1076 109 q 1096 124 1107 156 q 1118 188 1118 239 l 1118 239 q 1118 253 1117 272 q 1115 290 1112 307 l 1112 307 q 1111 312 1113 318 q 1115 323 1113 327 l 1113 327 q 1107 364 1081 396 q 1054 427 1007 447 q 960 467 890 467 l 890 467 q 846 467 817 460 q 788 453 762 433 l 762 433 q 744 419 731 398 q 717 376 710 340 q 703 304 703 244 l 703 244 l 703 211 l 616 471 q 645 499 682 523 q 718 546 770 560 q 821 574 896 574 l 896 574 q 985 574 1054 548 q 1122 522 1169 476 q 1215 429 1239 368 q 1262 307 1262 237 l 1262 237 q 1262 151 1233 96 q 1203 41 1149 15 q 1094 -12 1019 -12 z"},"എ":{"ha":1395,"x_min":29,"x_max":1353,"o":"m 265 362 l 265 362 q 346 362 398 334 q 449 305 474 262 q 498 218 498 171 l 498 171 q 498 140 489 114 q 479 88 470 69 l 470 69 l 458 105 l 948 105 l 940 0 l 373 0 l 321 58 q 333 75 344 101 q 355 126 355 161 l 355 161 q 355 202 333 230 q 311 258 266 258 l 266 258 q 235 258 215 246 q 195 233 185 211 q 175 189 175 162 l 175 162 q 175 121 190 94 q 204 67 220 44 l 220 44 l 106 -12 q 69 29 49 72 q 29 115 29 170 l 29 170 q 29 228 59 271 q 89 314 142 338 q 195 362 265 362 z m 989 574 l 989 574 q 1080 574 1148 547 q 1216 519 1262 466 q 1307 413 1330 338 q 1353 262 1353 167 l 1353 167 q 1353 86 1335 18 q 1317 -51 1285 -111 q 1252 -172 1206 -228 l 1206 -228 l 1096 -161 q 1133 -111 1156 -59 q 1179 -8 1190 49 q 1200 105 1200 168 l 1200 168 q 1200 228 1189 283 q 1178 337 1153 379 q 1128 421 1088 446 q 1047 470 987 470 l 987 470 q 909 470 858 429 q 807 387 782 314 q 757 240 757 143 l 757 143 q 757 115 758 91 q 759 66 761 45 l 761 45 q 761 39 761 35 q 761 30 761 23 l 761 23 q 766 -33 780 -66 q 793 -99 814 -113 q 834 -127 859 -127 l 859 -127 q 881 -127 892 -113 l 892 -113 q 897 -107 899 -96 q 901 -86 901 -69 l 901 -69 l 901 389 l 1048 389 l 1048 -46 q 1048 -98 1037 -130 q 1025 -162 1001 -185 l 1001 -185 q 979 -205 945 -216 q 911 -228 863 -228 l 863 -228 q 784 -228 727 -187 q 670 -147 640 -64 q 609 18 609 143 l 609 143 q 609 234 632 312 q 655 390 702 449 q 749 508 821 541 q 892 574 989 574 z"},"ഏ":{"ha":1410,"x_min":29,"x_max":1380,"o":"m 265 362 l 265 362 q 346 362 398 334 q 449 305 474 262 q 498 218 498 171 l 498 171 q 498 140 489 114 q 479 88 470 69 l 470 69 l 448 105 l 941 105 l 940 0 l 373 0 l 321 58 q 333 75 344 101 q 355 126 355 161 l 355 161 q 355 202 333 230 q 311 258 266 258 l 266 258 q 235 258 215 246 q 195 233 185 211 q 175 189 175 162 l 175 162 q 175 121 190 94 q 204 67 220 44 l 220 44 l 106 -12 q 69 29 49 72 q 29 115 29 170 l 29 170 q 29 228 59 271 q 89 314 142 338 q 195 362 265 362 z m 1036 574 l 1036 574 q 1128 574 1192 554 q 1255 534 1295 500 q 1334 466 1352 424 q 1370 381 1370 335 l 1370 335 q 1370 286 1355 249 q 1339 212 1314 186 q 1288 159 1258 141 l 1258 141 l 1257 151 q 1318 123 1349 81 q 1380 39 1380 -28 l 1380 -28 q 1380 -97 1352 -141 q 1324 -185 1276 -206 q 1227 -228 1163 -228 l 1163 -228 q 1142 -228 1115 -226 q 1087 -224 1071 -220 l 1071 -220 l 1087 -116 q 1098 -120 1113 -121 q 1127 -123 1134 -123 l 1134 -123 q 1170 -123 1191 -111 q 1212 -99 1222 -76 q 1231 -54 1231 -23 l 1231 -23 q 1231 24 1201 56 q 1170 87 1107 87 l 1107 87 l 1107 190 q 1144 199 1169 216 q 1194 232 1208 260 q 1221 287 1221 328 l 1221 328 q 1221 364 1203 396 q 1184 427 1143 447 q 1101 467 1031 467 l 1031 467 q 933 467 873 426 q 812 384 785 311 q 757 238 757 143 l 757 143 q 757 115 758 91 q 759 66 761 45 l 761 45 q 761 40 761 35 q 761 29 761 23 l 761 23 q 766 -33 780 -66 q 793 -99 814 -113 q 834 -127 859 -127 l 859 -127 q 881 -127 892 -113 l 892 -113 q 897 -107 899 -96 q 901 -86 901 -69 l 901 -69 l 901 389 l 1048 389 l 1048 -46 q 1048 -98 1037 -130 q 1025 -162 1001 -185 l 1001 -185 q 979 -205 945 -216 q 911 -228 863 -228 l 863 -228 q 784 -228 727 -187 q 670 -147 640 -64 q 609 19 609 146 l 609 146 q 609 241 636 320 q 663 398 717 455 q 770 512 850 543 q 930 574 1036 574 z"},"ഐ":{"ha":2183,"x_min":37,"x_max":2141,"o":"m 268 -12 l 268 -12 q 207 -12 155 15 q 102 41 70 97 q 37 153 37 243 l 37 243 q 37 317 64 378 q 90 438 140 482 q 190 526 261 550 q 331 574 419 574 l 419 574 q 503 574 566 552 q 628 529 670 489 q 711 449 732 396 q 752 342 752 280 l 752 280 q 752 213 732 161 q 712 108 677 67 q 642 25 596 -12 l 596 -12 l 500 64 q 530 94 553 125 q 576 155 589 192 q 602 229 602 279 l 602 279 q 602 335 580 378 q 558 420 514 444 q 470 467 404 467 l 404 467 q 334 467 282 437 q 229 406 201 355 q 172 303 172 239 l 172 239 q 172 182 184 149 q 196 116 217 102 q 237 88 262 88 l 262 88 q 283 88 298 97 q 312 106 320 124 q 327 141 327 166 l 327 166 q 327 204 310 226 q 292 247 255 247 l 255 247 q 218 247 184 227 q 150 206 116 168 l 116 168 l 104 267 q 132 296 179 322 q 226 347 289 347 l 289 347 q 347 347 387 326 q 427 304 448 266 q 469 227 469 174 l 469 174 q 469 116 445 75 q 421 33 377 11 q 332 -12 268 -12 z m 1053 362 l 1053 362 q 1134 362 1186 334 q 1237 305 1262 262 q 1286 218 1286 171 l 1286 171 q 1286 140 1277 114 q 1267 88 1258 69 l 1258 69 l 1246 105 l 1736 105 l 1728 0 l 1161 0 l 1109 58 q 1121 75 1132 101 q 1143 126 1143 161 l 1143 161 q 1143 202 1121 230 q 1099 258 1054 258 l 1054 258 q 1023 258 1003 246 q 983 233 973 211 q 963 189 963 162 l 963 162 q 963 121 978 94 q 992 67 1008 44 l 1008 44 l 894 -12 q 857 29 837 72 q 817 115 817 170 l 817 170 q 817 228 847 271 q 877 314 930 338 q 983 362 1053 362 z m 1777 574 l 1777 574 q 1868 574 1936 547 q 2004 519 2050 466 q 2095 413 2118 338 q 2141 262 2141 167 l 2141 167 q 2141 86 2123 18 q 2105 -51 2073 -111 q 2040 -172 1994 -228 l 1994 -228 l 1884 -161 q 1921 -111 1944 -59 q 1967 -8 1978 49 q 1988 105 1988 168 l 1988 168 q 1988 228 1977 283 q 1966 337 1941 379 q 1916 421 1876 446 q 1835 470 1775 470 l 1775 470 q 1697 470 1646 429 q 1595 387 1570 314 q 1545 240 1545 143 l 1545 143 q 1545 115 1546 91 q 1547 66 1549 45 l 1549 45 q 1549 39 1549 35 q 1549 30 1549 23 l 1549 23 q 1554 -33 1568 -66 q 1581 -99 1602 -113 q 1622 -127 1647 -127 l 1647 -127 q 1669 -127 1680 -113 l 1680 -113 q 1685 -107 1687 -96 q 1689 -86 1689 -69 l 1689 -69 l 1689 389 l 1836 389 l 1836 -46 q 1836 -98 1825 -130 q 1813 -162 1789 -185 l 1789 -185 q 1767 -205 1733 -216 q 1699 -228 1651 -228 l 1651 -228 q 1572 -228 1515 -187 q 1458 -147 1428 -64 q 1397 18 1397 143 l 1397 143 q 1397 234 1420 312 q 1443 390 1490 449 q 1537 508 1609 541 q 1680 574 1777 574 z"},"ഒ":{"ha":837,"x_min":37,"x_max":804,"o":"m 494 574 l 494 574 q 605 574 671 553 q 736 531 765 494 q 793 457 793 409 l 793 409 q 793 382 784 358 q 774 333 754 314 q 733 294 698 278 l 698 278 l 696 283 q 751 264 778 229 q 804 193 804 144 l 804 144 q 804 71 753 30 q 702 -12 602 -12 l 602 -12 q 562 -12 535 -8 q 507 -4 485 0 l 485 0 l 503 103 q 517 99 536 96 q 554 93 576 93 l 576 93 q 620 93 639 108 q 657 122 657 156 l 657 156 q 657 170 651 183 q 645 195 632 205 l 632 205 q 619 215 598 221 q 576 226 533 226 l 533 226 l 514 226 l 514 330 l 531 330 q 574 330 594 336 q 614 341 629 354 l 629 354 q 637 362 641 372 q 645 381 645 394 l 645 394 q 645 430 608 449 q 571 467 484 467 l 484 467 q 421 467 365 454 q 309 441 266 414 q 222 387 197 347 q 172 306 172 250 l 172 250 l 172 237 q 172 181 184 148 q 196 115 217 102 q 237 88 262 88 l 262 88 q 283 88 298 97 q 312 106 320 124 q 327 141 327 167 l 327 167 q 327 205 310 226 q 292 247 255 247 l 255 247 q 218 247 184 227 q 150 206 116 168 l 116 168 l 104 267 q 132 296 179 322 q 226 347 289 347 l 289 347 q 347 347 387 326 q 427 304 448 266 q 469 227 469 174 l 469 174 q 469 116 445 75 q 421 33 376 11 q 331 -12 267 -12 l 267 -12 q 205 -12 153 15 q 100 41 69 97 q 37 152 37 238 l 37 238 q 37 319 70 382 q 103 444 164 487 q 225 530 309 552 q 393 574 494 574 z"},"ഓ":{"ha":1405,"x_min":37,"x_max":1365,"o":"m 494 574 l 494 574 q 605 574 671 553 q 736 531 765 494 q 793 457 793 409 l 793 409 q 793 382 784 358 q 774 333 754 314 q 733 294 698 278 l 698 278 l 696 283 q 751 264 778 229 q 804 193 804 144 l 804 144 q 804 71 753 30 q 702 -12 602 -12 l 602 -12 q 562 -12 535 -8 q 507 -4 485 0 l 485 0 l 503 103 q 517 99 536 96 q 554 93 576 93 l 576 93 q 620 93 639 108 q 657 122 657 156 l 657 156 q 657 170 651 183 q 645 195 632 205 l 632 205 q 619 215 598 221 q 576 226 533 226 l 533 226 l 514 226 l 514 330 l 531 330 q 574 330 594 336 q 614 341 629 354 l 629 354 q 637 362 641 372 q 645 381 645 394 l 645 394 q 645 430 608 449 q 571 467 484 467 l 484 467 q 421 467 365 454 q 309 441 266 414 q 222 387 197 347 q 172 306 172 250 l 172 250 l 172 237 q 172 181 184 148 q 196 115 217 102 q 237 88 262 88 l 262 88 q 283 88 298 97 q 312 106 320 124 q 327 141 327 167 l 327 167 q 327 205 310 226 q 292 247 255 247 l 255 247 q 218 247 184 227 q 150 206 116 168 l 116 168 l 104 267 q 132 296 179 322 q 226 347 289 347 l 289 347 q 347 347 387 326 q 427 304 448 266 q 469 227 469 174 l 469 174 q 469 116 445 75 q 421 33 376 11 q 331 -12 267 -12 l 267 -12 q 205 -12 153 15 q 100 41 69 97 q 37 152 37 238 l 37 238 q 37 319 70 382 q 103 444 164 487 q 225 530 309 552 q 393 574 494 574 z m 1365 283 l 1365 283 q 1365 224 1353 171 q 1340 118 1310 77 q 1280 35 1229 12 q 1178 -12 1100 -12 l 1100 -12 q 1034 -12 989 6 q 944 24 916 53 q 887 81 872 116 q 856 150 848 183 l 848 183 l 998 208 q 1005 183 1016 156 q 1026 129 1047 111 q 1067 92 1102 92 l 1102 92 q 1142 92 1167 116 q 1191 140 1202 183 q 1213 225 1213 281 l 1213 281 q 1213 337 1202 380 q 1191 422 1167 446 q 1143 470 1105 470 l 1105 470 q 1073 470 1052 453 q 1031 435 1019 409 q 1007 383 1001 355 l 1001 355 l 851 381 q 862 415 880 449 q 898 483 928 512 q 957 540 1002 557 q 1047 574 1111 574 l 1111 574 q 1184 574 1233 551 q 1282 527 1311 487 q 1340 446 1353 394 q 1365 341 1365 283 z"},"ഔ":{"ha":1662,"x_min":37,"x_max":1626,"o":"m 494 574 l 494 574 q 605 574 671 553 q 736 531 765 494 q 793 457 793 409 l 793 409 q 793 382 784 358 q 774 333 754 314 q 733 294 698 278 l 698 278 l 696 283 q 751 264 778 229 q 804 193 804 144 l 804 144 q 804 71 753 30 q 702 -12 602 -12 l 602 -12 q 562 -12 535 -8 q 507 -4 485 0 l 485 0 l 503 103 q 517 99 536 96 q 554 93 576 93 l 576 93 q 620 93 639 108 q 657 122 657 156 l 657 156 q 657 170 651 183 q 645 195 632 205 l 632 205 q 619 215 598 221 q 576 226 533 226 l 533 226 l 514 226 l 514 330 l 531 330 q 574 330 594 336 q 614 341 629 354 l 629 354 q 637 362 641 372 q 645 381 645 394 l 645 394 q 645 430 608 449 q 571 467 484 467 l 484 467 q 421 467 365 454 q 309 441 266 414 q 222 387 197 347 q 172 306 172 250 l 172 250 l 172 237 q 172 181 184 148 q 196 115 217 102 q 237 88 262 88 l 262 88 q 283 88 298 97 q 312 106 320 124 q 327 141 327 167 l 327 167 q 327 205 310 226 q 292 247 255 247 l 255 247 q 218 247 184 227 q 150 206 116 168 l 116 168 l 104 267 q 132 296 179 322 q 226 347 289 347 l 289 347 q 347 347 387 326 q 427 304 448 266 q 469 227 469 174 l 469 174 q 469 116 445 75 q 421 33 376 11 q 331 -12 267 -12 l 267 -12 q 205 -12 153 15 q 100 41 69 97 q 37 152 37 238 l 37 238 q 37 319 70 382 q 103 444 164 487 q 225 530 309 552 q 393 574 494 574 z m 1395 574 l 1395 574 q 1468 574 1520 541 q 1571 507 1599 448 q 1626 388 1626 309 l 1626 309 q 1626 208 1590 136 q 1554 64 1485 26 q 1415 -12 1312 -12 l 1312 -12 q 1233 -12 1174 2 q 1114 16 1061 44 l 1061 44 l 1115 144 q 1162 120 1204 108 q 1245 95 1300 95 l 1300 95 q 1366 95 1405 122 q 1444 148 1461 195 q 1477 242 1477 305 l 1477 305 q 1477 390 1451 430 q 1425 469 1384 469 l 1384 469 q 1362 469 1348 461 q 1334 452 1326 437 l 1326 437 q 1319 424 1317 407 q 1314 389 1314 355 l 1314 355 l 1314 262 l 1168 262 l 1168 333 q 1168 376 1165 401 q 1162 425 1154 438 l 1154 438 q 1144 455 1129 462 q 1113 469 1096 469 l 1096 469 q 1053 469 1033 441 q 1012 413 1012 380 l 1012 380 q 1012 349 1017 328 q 1021 306 1027 289 l 1027 289 l 885 258 q 875 286 870 320 q 865 354 865 379 l 865 379 q 865 431 888 475 q 911 519 959 547 q 1006 574 1080 574 l 1080 574 q 1139 574 1179 557 q 1218 539 1245 509 l 1245 509 l 1233 511 q 1264 545 1304 560 q 1344 574 1395 574 z"},"ക":{"ha":1151,"x_min":29,"x_max":1122,"o":"m 231 -12 l 231 -12 q 133 -12 81 34 q 29 80 29 161 l 29 161 q 29 211 53 247 q 76 283 114 305 l 114 305 q 140 320 171 330 q 201 339 246 343 q 290 347 358 347 l 358 347 l 806 347 q 898 347 955 337 q 1012 326 1053 298 l 1053 298 q 1084 277 1103 244 q 1122 211 1122 161 l 1122 161 q 1122 76 1064 32 q 1006 -12 917 -12 l 917 -12 q 893 -12 872 -9 q 850 -6 827 0 l 827 0 l 852 101 q 863 98 877 96 q 891 93 906 93 l 906 93 q 941 93 960 111 q 979 128 979 161 l 979 161 q 979 184 970 199 q 960 213 945 222 l 945 222 q 924 236 896 239 q 868 242 818 242 l 818 242 l 322 242 q 275 242 249 239 q 222 235 202 222 l 202 222 q 189 213 180 199 q 170 184 170 164 l 170 164 q 170 140 179 124 q 188 108 208 100 q 227 92 256 92 l 256 92 q 282 92 311 102 q 339 111 373 137 l 373 137 l 435 45 q 402 23 371 11 q 340 -2 307 -7 q 273 -12 231 -12 z m 580 574 l 580 574 q 676 574 736 537 q 796 499 824 433 q 852 367 852 283 l 852 283 q 852 188 820 122 q 788 56 728 22 q 667 -12 581 -12 l 581 -12 q 515 -12 463 9 q 410 29 376 66 l 376 66 q 341 106 324 162 q 306 217 306 283 l 306 283 q 306 418 378 496 q 450 574 580 574 z m 580 469 l 580 469 q 514 469 482 421 q 450 373 450 282 l 450 282 q 450 222 465 180 q 479 137 508 115 q 536 93 579 93 l 579 93 q 621 93 650 115 q 678 136 693 179 q 708 221 708 282 l 708 282 q 708 344 694 386 q 679 427 651 448 q 622 469 580 469 z"},"ഖ":{"ha":1107,"x_min":37,"x_max":1044,"o":"m 419 574 l 419 574 q 504 574 567 552 q 629 529 670 490 q 711 450 731 398 q 751 346 751 287 l 751 287 q 751 226 735 181 q 719 136 692 99 q 665 61 631 22 l 631 22 l 614 0 l 552 0 l 508 61 q 534 93 555 124 q 576 155 589 193 q 602 230 602 279 l 602 279 q 602 339 578 381 q 554 423 510 445 q 465 467 404 467 l 404 467 q 334 467 282 438 q 229 408 201 357 q 172 306 172 241 l 172 241 l 172 237 q 172 181 184 148 q 196 115 217 102 q 237 88 262 88 l 262 88 q 283 88 298 97 q 312 106 320 124 q 327 141 327 166 l 327 166 q 327 204 310 226 q 292 247 255 247 l 255 247 q 218 247 184 227 q 150 206 116 168 l 116 168 l 104 267 q 132 296 179 322 q 226 347 289 347 l 289 347 q 347 347 387 326 q 427 304 448 266 q 469 227 469 174 l 469 174 q 469 116 445 75 q 421 33 377 11 q 332 -12 268 -12 l 268 -12 q 207 -12 155 15 q 102 41 70 97 q 37 153 37 243 l 37 243 q 37 343 85 417 q 132 491 218 533 q 304 574 419 574 z m 897 562 l 1044 562 l 1044 0 l 593 0 l 650 105 l 897 105 l 897 562 z"},"ഗ":{"ha":975,"x_min":37,"x_max":938,"o":"m 664 574 l 664 574 q 748 574 810 541 q 871 507 905 446 q 938 384 938 300 l 938 300 q 938 236 922 182 q 906 127 875 80 q 843 32 797 -12 l 797 -12 l 693 64 q 728 103 749 140 q 770 177 780 215 q 789 252 789 292 l 789 292 q 789 352 773 391 q 756 430 728 449 q 700 467 665 467 l 665 467 q 636 467 617 457 q 597 447 585 428 l 585 428 q 572 408 567 375 q 562 342 562 283 l 562 283 l 562 260 q 562 216 556 178 q 550 140 538 110 q 525 79 503 55 l 503 55 q 473 23 426 6 q 378 -12 312 -12 l 312 -12 q 228 -12 167 22 q 105 56 71 118 q 37 180 37 264 l 37 264 q 37 330 54 385 q 70 439 102 486 q 134 532 179 575 l 179 575 l 281 499 q 247 461 226 424 q 205 387 196 350 q 186 312 186 271 l 186 271 q 186 208 202 170 q 218 131 246 113 q 273 95 306 95 l 306 95 q 338 95 358 105 q 378 115 390 134 l 390 134 q 403 154 408 186 q 412 217 412 271 l 412 271 l 412 301 q 412 372 429 423 q 445 474 480 509 l 480 509 q 509 538 552 556 q 594 574 664 574 z"},"ഘ":{"ha":1464,"x_min":29,"x_max":1401,"o":"m 265 574 l 265 574 q 346 574 398 546 q 449 518 474 475 q 498 431 498 384 l 498 384 q 498 353 489 327 q 479 301 470 282 l 470 282 l 460 318 l 676 318 l 676 213 l 373 213 l 321 271 q 333 287 344 313 q 355 339 355 374 l 355 374 q 355 415 333 443 q 311 470 266 470 l 266 470 q 235 470 215 458 q 195 445 185 424 q 175 402 175 375 l 175 375 q 175 334 190 307 q 204 280 220 257 l 220 257 l 106 201 q 69 242 49 285 q 29 328 29 383 l 29 383 q 29 441 59 484 q 89 527 142 551 q 195 574 265 574 z m 1254 562 l 1401 562 l 1401 0 l 584 0 l 584 303 q 584 383 603 429 q 622 474 653 505 l 653 505 q 686 538 738 556 q 789 574 856 574 l 856 574 q 923 574 973 556 q 1023 538 1056 505 l 1056 505 q 1094 467 1110 420 q 1126 372 1126 301 l 1126 301 l 1126 213 l 731 213 l 731 105 l 1254 105 l 1254 562 z m 855 469 l 855 469 q 788 469 760 428 q 731 387 731 323 l 731 323 l 731 318 l 979 318 l 979 322 q 979 390 949 430 q 919 469 855 469 z"},"ങ":{"ha":1178,"x_min":37,"x_max":1144,"o":"m 399 574 l 399 574 q 489 574 550 549 q 610 523 658 473 l 658 473 l 682 394 l 703 225 l 703 0 l 556 0 l 556 269 q 556 346 544 381 q 532 415 511 433 l 511 433 q 492 450 466 459 q 440 468 396 468 l 396 468 q 332 468 282 443 q 231 417 202 366 q 172 315 172 240 l 172 240 l 172 237 q 172 181 184 149 q 196 116 217 102 q 237 88 262 88 l 262 88 q 283 88 298 97 q 312 106 320 124 q 327 141 327 167 l 327 167 q 327 205 310 226 q 292 247 255 247 l 255 247 q 218 247 184 227 q 150 206 116 168 l 116 168 l 104 267 q 132 296 181 322 q 229 347 291 347 l 291 347 q 348 347 388 326 q 428 304 449 266 q 469 227 469 174 l 469 174 q 469 116 445 75 q 421 33 376 11 q 331 -12 267 -12 l 267 -12 q 207 -12 155 14 q 102 40 70 96 q 37 152 37 242 l 37 242 q 37 350 85 424 q 133 498 216 536 q 298 574 399 574 z m 896 574 l 896 574 q 975 574 1028 553 q 1080 532 1107 496 q 1133 460 1133 416 l 1133 416 q 1133 385 1124 360 q 1115 335 1095 315 q 1074 295 1039 278 l 1039 278 l 1037 283 q 1091 264 1118 229 q 1144 193 1144 144 l 1144 144 q 1144 71 1093 30 q 1042 -12 942 -12 l 942 -12 q 902 -12 874 -8 q 846 -4 825 0 l 825 0 l 843 103 q 861 99 878 96 q 894 93 916 93 l 916 93 q 960 93 979 108 q 997 122 997 156 l 997 156 q 997 170 991 183 q 985 195 972 205 l 972 205 q 959 215 939 221 q 918 226 879 226 l 879 226 l 842 226 l 842 330 l 876 330 q 908 330 931 336 q 954 341 968 355 l 968 355 q 976 363 981 375 q 986 386 986 400 l 986 400 q 986 434 962 452 q 937 469 890 469 l 890 469 q 840 469 806 454 q 772 439 749 410 l 749 410 q 733 389 723 363 q 712 336 708 299 q 703 262 703 209 l 703 209 l 703 74 l 566 74 l 566 242 l 585 370 q 606 434 648 480 q 690 525 753 550 q 815 574 896 574 z"},"ച":{"ha":1015,"x_min":20,"x_max":952,"o":"m 805 562 l 952 562 l 952 0 l 20 0 l 20 105 l 476 105 l 401 88 q 424 101 443 128 q 461 154 461 194 l 461 194 q 461 234 443 258 q 425 282 385 282 l 385 282 q 344 282 324 258 q 304 234 304 193 l 304 193 q 304 183 305 176 q 305 169 306 162 l 306 162 l 164 151 q 163 162 161 178 q 159 194 159 207 l 159 207 q 159 290 217 338 q 275 386 385 386 l 385 386 q 450 386 493 370 q 535 353 560 327 q 584 301 594 270 q 604 238 604 208 l 604 208 q 604 183 598 162 q 592 140 581 122 q 569 103 554 86 l 554 86 l 527 105 l 805 105 l 805 562 z"},"ഛ":{"ha":1477,"x_min":20,"x_max":1440,"o":"m 385 386 l 385 386 q 450 386 493 370 q 535 353 560 327 q 584 301 594 270 q 604 238 604 208 l 604 208 q 604 183 598 162 q 592 140 581 122 q 569 103 554 86 l 554 86 l 527 105 l 801 105 l 880 0 l 20 0 l 20 105 l 476 105 l 401 88 q 424 101 443 128 q 461 154 461 194 l 461 194 q 461 234 443 258 q 425 282 385 282 l 385 282 q 344 282 324 258 q 304 234 304 193 l 304 193 q 304 183 305 176 q 305 169 306 162 l 306 162 l 164 151 q 163 162 161 178 q 159 194 159 207 l 159 207 q 159 290 217 338 q 275 386 385 386 z m 1052 574 l 1052 574 q 1150 574 1223 548 q 1296 522 1344 476 q 1392 429 1416 368 q 1440 306 1440 236 l 1440 236 q 1440 151 1411 96 q 1382 41 1328 15 q 1273 -12 1198 -12 l 1198 -12 q 1120 -12 1072 18 q 1023 48 1001 98 q 978 147 978 206 l 978 206 q 978 297 1030 354 q 1081 410 1178 410 l 1178 410 q 1238 410 1284 380 q 1329 350 1356 303 q 1383 256 1386 204 l 1386 204 l 1331 207 q 1325 232 1309 256 q 1293 279 1269 295 q 1245 310 1214 310 l 1214 310 q 1165 310 1143 281 q 1121 252 1121 202 l 1121 202 q 1121 170 1130 145 q 1138 120 1157 107 q 1176 93 1205 93 l 1205 93 q 1233 93 1254 109 q 1274 124 1285 156 q 1296 188 1296 239 l 1296 239 q 1296 253 1295 272 q 1293 290 1290 307 l 1290 307 q 1289 312 1289 319 q 1289 325 1287 329 l 1287 329 q 1280 366 1253 398 q 1225 429 1179 448 q 1133 467 1068 467 l 1068 467 q 992 467 943 444 q 893 421 869 379 q 845 337 845 281 l 845 281 q 845 236 857 199 q 869 161 891 128 q 912 95 940 64 l 940 64 l 895 0 l 845 0 l 821 22 q 787 58 758 97 q 729 135 712 182 q 695 228 695 287 l 695 287 q 695 343 716 395 q 736 446 780 487 q 823 527 891 551 q 958 574 1052 574 z"},"ജ":{"ha":1007,"x_min":33,"x_max":969,"o":"m 319 574 l 319 574 q 380 574 425 565 q 469 555 503 537 q 537 518 565 492 l 565 492 l 525 499 q 563 538 612 556 q 661 574 724 574 l 724 574 q 813 574 867 544 q 920 514 945 468 q 969 421 969 370 l 969 370 q 969 328 959 296 q 948 263 926 238 q 904 213 869 193 l 869 193 l 651 159 l 529 151 q 501 147 465 147 q 428 146 397 146 l 397 146 l 242 146 q 213 146 198 144 q 182 141 173 134 l 173 134 q 169 130 167 126 q 164 121 164 114 l 164 114 q 164 103 170 96 q 176 88 189 85 q 201 81 220 81 l 220 81 q 254 81 285 86 q 316 90 350 99 q 383 108 423 120 l 423 120 q 457 131 492 141 q 527 151 560 160 q 592 168 620 175 q 648 182 668 185 l 668 185 q 694 192 709 201 q 723 209 732 217 q 741 224 752 229 q 763 234 781 234 l 781 234 q 821 234 858 223 q 894 212 918 186 q 942 160 942 114 l 942 114 q 942 53 898 21 q 854 -12 770 -12 l 770 -12 q 705 -12 667 8 q 628 27 611 58 q 594 88 594 121 l 594 121 q 594 159 614 185 q 633 211 653 220 l 653 220 l 773 221 q 763 215 748 203 q 733 191 721 174 q 709 156 709 130 l 709 130 q 709 99 724 86 q 738 73 766 73 l 766 73 q 797 73 810 85 q 823 97 823 115 l 823 115 q 823 130 817 140 q 810 149 798 154 q 785 159 767 159 l 767 159 q 742 159 722 150 q 701 140 676 120 l 676 120 l 678 145 q 667 134 646 118 q 624 102 594 85 q 563 68 521 53 l 521 53 q 460 31 411 17 q 362 2 315 -5 q 267 -12 210 -12 l 210 -12 q 161 -12 121 0 q 80 11 57 39 q 33 66 33 113 l 33 113 q 33 146 47 170 q 61 194 87 209 l 87 209 q 113 224 151 231 q 189 237 253 237 l 253 237 l 561 237 q 615 237 652 239 q 689 240 716 245 q 743 249 763 257 l 763 257 q 797 271 814 296 q 830 321 830 361 l 830 361 q 830 391 817 416 q 804 441 777 456 q 750 471 706 471 l 706 471 q 680 471 662 464 q 644 456 633 444 l 633 444 q 618 428 613 403 q 607 378 607 334 l 607 334 l 607 264 l 474 264 l 474 306 q 474 359 466 392 q 458 425 430 449 l 430 449 q 414 463 386 473 q 358 483 313 483 l 313 483 q 277 483 236 477 q 195 471 173 451 l 173 451 q 169 448 168 443 q 166 437 164 433 l 164 433 q 157 423 154 412 q 151 400 151 386 l 151 386 q 151 352 168 340 q 184 327 208 327 l 208 327 q 228 327 240 334 q 251 341 256 352 q 261 363 261 375 l 261 375 q 261 398 246 412 q 230 425 201 425 l 201 425 q 180 425 160 420 q 140 415 124 410 l 124 410 l 76 429 q 101 455 147 468 q 193 480 239 480 l 239 480 q 282 480 313 467 q 344 453 361 428 q 377 403 377 368 l 377 368 q 377 336 361 308 q 344 279 308 262 q 271 244 210 244 l 210 244 q 133 244 86 282 q 39 320 39 387 l 39 387 q 39 444 72 486 q 104 528 167 551 q 229 574 319 574 z"},"ഝ":{"ha":1825,"x_min":37,"x_max":1788,"o":"m 743 574 l 743 574 q 817 574 874 557 q 931 540 972 505 l 972 505 q 1014 469 1037 415 q 1059 361 1059 266 l 1059 266 l 1059 248 q 1059 215 1064 185 q 1068 154 1081 134 l 1081 134 q 1093 115 1113 105 q 1132 95 1158 95 l 1158 95 q 1183 95 1201 103 q 1218 110 1230 123 l 1230 123 q 1246 142 1253 172 q 1260 201 1260 251 l 1260 251 l 1260 562 l 1407 562 l 1407 259 q 1407 204 1411 176 q 1415 148 1430 128 l 1430 128 q 1443 111 1464 103 q 1485 94 1505 94 l 1505 94 q 1543 94 1574 114 q 1604 134 1622 174 q 1639 214 1639 273 l 1639 273 q 1639 312 1630 349 q 1620 386 1599 423 q 1578 460 1543 498 l 1543 498 l 1647 574 q 1693 531 1724 485 q 1755 438 1772 384 q 1788 330 1788 264 l 1788 264 q 1788 186 1756 124 q 1724 61 1665 25 q 1605 -12 1520 -12 l 1520 -12 q 1455 -12 1409 7 q 1362 26 1323 66 l 1323 66 l 1334 66 q 1314 47 1289 29 q 1264 11 1230 0 q 1196 -12 1148 -12 l 1148 -12 q 1086 -12 1042 6 q 998 23 968 55 l 968 55 q 948 77 935 106 q 922 135 916 171 q 909 207 909 249 l 909 249 l 909 257 q 909 299 903 333 q 897 366 885 392 q 872 417 852 434 l 852 434 q 833 451 804 462 q 775 472 733 472 l 733 472 q 707 472 686 470 q 664 467 644 462 l 644 462 l 626 460 q 578 442 544 407 q 509 372 491 328 q 473 283 473 234 l 473 234 q 473 178 486 148 q 499 117 520 105 q 541 93 564 93 l 564 93 q 588 93 609 105 q 630 117 643 147 q 655 176 655 228 l 655 228 q 655 280 638 324 q 621 368 589 402 q 557 435 512 455 l 512 455 l 487 462 q 468 468 448 470 q 428 472 407 472 l 407 472 q 331 472 283 448 q 234 423 211 380 q 187 337 187 281 l 187 281 q 187 235 199 198 q 210 161 233 129 q 255 97 289 64 l 289 64 l 191 -12 q 146 25 112 67 q 77 108 57 161 q 37 213 37 281 l 37 281 q 37 335 56 387 q 74 439 116 482 q 157 524 225 549 q 292 574 391 574 l 391 574 q 450 574 497 564 q 544 554 586 534 l 586 534 l 614 523 q 701 478 752 403 q 803 327 803 229 l 803 229 q 803 149 776 95 q 748 41 695 15 q 641 -12 564 -12 l 564 -12 q 488 -12 435 16 q 381 44 353 98 q 325 152 325 230 l 325 230 q 325 291 348 345 q 371 398 414 442 q 456 486 516 518 l 516 518 l 553 536 q 600 557 645 566 q 689 574 743 574 z"},"ഞ":{"ha":1619,"x_min":37,"x_max":1582,"o":"m 399 574 l 399 574 q 489 574 550 549 q 610 523 658 473 l 658 473 l 640 463 l 703 209 l 703 0 l 556 0 l 556 269 q 556 346 544 381 q 532 415 511 433 l 511 433 q 492 450 466 459 q 440 468 396 468 l 396 468 q 332 468 282 443 q 231 417 202 366 q 172 315 172 240 l 172 240 l 172 237 q 172 181 184 148 q 196 115 217 102 q 237 88 262 88 l 262 88 q 283 88 298 97 q 312 106 320 124 q 327 141 327 167 l 327 167 q 327 205 310 226 q 292 247 255 247 l 255 247 q 218 247 184 227 q 150 206 116 168 l 116 168 l 104 267 q 132 296 181 322 q 229 347 291 347 l 291 347 q 348 347 388 326 q 428 304 449 266 q 469 227 469 174 l 469 174 q 469 116 445 75 q 421 33 376 11 q 331 -12 267 -12 l 267 -12 q 207 -12 155 14 q 102 40 70 96 q 37 152 37 242 l 37 242 q 37 350 85 424 q 133 498 216 536 q 298 574 399 574 z m 890 574 l 890 574 q 939 574 985 565 q 1030 555 1072 535 l 1072 535 l 1100 523 q 1187 478 1238 403 q 1289 327 1289 229 l 1289 229 q 1289 149 1262 95 q 1234 41 1181 15 q 1127 -12 1050 -12 l 1050 -12 q 973 -12 920 16 q 866 44 839 98 q 811 152 811 230 l 811 230 q 811 291 835 345 q 859 398 903 442 q 947 486 1007 518 l 1007 518 l 1043 533 q 1082 552 1132 563 q 1181 574 1245 574 l 1245 574 q 1338 574 1403 550 q 1467 525 1507 483 q 1546 441 1564 389 q 1582 336 1582 280 l 1582 280 q 1582 212 1563 160 q 1543 107 1508 66 q 1473 25 1426 -12 l 1426 -12 l 1331 64 q 1361 94 1384 125 q 1406 155 1419 193 q 1432 230 1432 279 l 1432 279 q 1432 338 1409 381 q 1386 424 1342 448 q 1298 472 1234 472 l 1234 472 q 1201 472 1177 470 q 1153 468 1132 462 l 1132 462 l 1116 460 q 1064 440 1029 404 q 994 368 977 324 q 959 280 959 234 l 959 234 q 959 178 972 148 q 984 117 1005 105 q 1026 93 1050 93 l 1050 93 q 1074 93 1095 105 q 1116 117 1129 147 q 1141 176 1141 228 l 1141 228 q 1141 280 1124 324 q 1107 368 1075 402 q 1043 435 999 455 l 999 455 l 974 462 q 962 466 949 468 q 935 470 920 471 q 905 472 886 472 l 886 472 q 838 472 809 460 q 780 448 763 435 l 763 435 q 729 408 716 365 q 703 321 703 241 l 703 241 l 703 20 l 566 20 l 566 284 l 616 473 q 645 500 682 523 q 719 546 770 560 q 820 574 890 574 z"},"ട":{"ha":612,"x_min":14,"x_max":591,"o":"m 294 574 l 294 574 q 389 574 465 554 q 541 534 591 507 l 591 507 l 531 412 q 480 438 428 452 q 375 466 304 466 l 304 466 q 259 466 231 458 q 203 449 190 435 q 177 420 177 401 l 177 401 q 177 388 181 379 q 185 369 193 361 l 193 361 q 209 347 237 343 q 264 339 307 339 l 307 339 l 335 339 q 423 339 473 322 q 523 304 551 270 l 551 270 q 568 250 576 224 q 583 198 583 166 l 583 166 q 583 114 554 74 q 524 33 464 11 q 404 -12 312 -12 l 312 -12 q 220 -12 148 7 q 76 25 14 58 l 14 58 l 72 155 q 108 136 143 123 q 177 110 216 103 q 255 96 302 96 l 302 96 q 349 96 378 105 q 407 114 421 130 q 434 146 434 167 l 434 167 q 434 181 429 193 q 424 205 411 213 l 411 213 q 398 222 377 227 q 356 231 308 231 l 308 231 l 289 231 q 208 231 150 247 q 92 262 62 297 l 62 297 q 46 316 37 341 q 28 366 28 398 l 28 398 q 28 448 57 488 q 86 528 145 551 q 204 574 294 574 z"},"ഠ":{"ha":714,"x_min":37,"x_max":677,"o":"m 355 574 l 355 574 q 455 574 527 538 q 599 502 638 436 q 677 370 677 280 l 677 280 q 677 192 639 127 q 600 61 529 25 q 457 -12 357 -12 l 357 -12 q 248 -12 177 28 q 106 68 72 136 q 37 203 37 283 l 37 283 q 37 371 76 437 q 114 502 186 538 q 257 574 355 574 z m 357 95 l 357 95 q 414 95 452 120 q 489 144 508 186 q 527 228 527 282 l 527 282 q 527 336 508 378 q 489 419 452 443 q 414 467 357 467 l 357 467 q 276 467 232 418 q 187 368 187 282 l 187 282 q 187 198 231 147 q 275 95 357 95 z"},"ഡ":{"ha":1334,"x_min":37,"x_max":1297,"o":"m 653 -12 l 653 -12 q 594 -12 551 5 q 507 21 475 54 l 475 54 q 454 76 440 104 q 426 132 419 169 q 412 206 412 255 l 412 255 l 412 291 q 412 345 408 377 q 403 408 390 428 l 390 428 q 378 448 358 458 q 338 467 306 467 l 306 467 q 273 467 246 450 q 218 432 202 393 q 186 354 186 291 l 186 291 q 186 251 196 213 q 205 175 226 139 q 247 102 281 63 l 281 63 l 179 -13 q 134 31 102 78 q 70 124 54 178 q 37 232 37 298 l 37 298 q 37 382 71 444 q 105 506 167 540 q 229 574 313 574 l 313 574 q 378 574 426 557 q 473 539 503 507 l 503 507 q 525 484 538 453 q 550 422 556 385 q 562 347 562 302 l 562 302 l 562 275 q 562 213 567 183 q 571 153 584 133 l 584 133 q 596 114 616 105 q 636 95 665 95 l 665 95 q 688 95 708 103 q 728 111 739 124 l 739 124 q 756 143 763 172 q 769 200 769 250 l 769 250 l 769 562 l 916 562 l 916 259 q 916 202 920 175 q 924 148 939 128 l 939 128 q 953 111 974 103 q 994 94 1014 94 l 1014 94 q 1052 94 1083 114 q 1113 134 1131 174 q 1148 214 1148 273 l 1148 273 q 1148 312 1139 349 q 1129 386 1108 423 q 1087 460 1052 498 l 1052 498 l 1156 574 q 1202 531 1233 484 q 1264 437 1281 383 q 1297 329 1297 263 l 1297 263 q 1297 185 1266 123 q 1234 60 1174 24 q 1114 -12 1029 -12 l 1029 -12 q 965 -12 919 7 q 873 25 833 66 l 833 66 l 844 66 q 808 31 766 10 q 724 -12 653 -12 z"},"ഢ":{"ha":1472,"x_min":37,"x_max":1435,"o":"m 653 -12 l 653 -12 q 594 -12 551 5 q 507 21 475 54 l 475 54 q 454 76 440 104 q 426 132 419 170 q 412 207 412 256 l 412 256 l 412 291 q 412 345 408 377 q 403 408 390 428 l 390 428 q 378 448 358 458 q 338 467 306 467 l 306 467 q 273 467 246 450 q 218 432 202 394 q 186 355 186 292 l 186 292 q 186 252 195 214 q 204 176 225 139 q 246 102 281 63 l 281 63 l 179 -13 q 134 31 102 78 q 70 125 54 179 q 37 233 37 299 l 37 299 q 37 383 71 445 q 105 506 167 540 q 229 574 313 574 l 313 574 q 378 574 426 557 q 473 539 503 507 l 503 507 q 525 484 538 453 q 550 422 556 385 q 562 347 562 302 l 562 302 l 562 276 q 562 213 567 183 q 571 153 584 133 l 584 133 q 596 114 616 105 q 636 95 665 95 l 665 95 q 688 95 708 103 q 727 111 739 124 l 739 124 q 756 143 763 172 q 769 200 769 251 l 769 251 l 769 562 l 916 562 l 916 311 l 844 66 q 810 32 767 10 q 724 -12 653 -12 z m 1205 574 l 1205 574 q 1266 574 1318 549 q 1370 523 1403 468 q 1435 412 1435 321 l 1435 321 q 1435 214 1387 140 q 1339 65 1257 27 q 1175 -12 1073 -12 l 1073 -12 q 983 -12 923 14 q 862 39 814 89 l 814 89 l 779 316 l 779 512 l 916 512 l 916 294 q 916 217 928 182 q 940 147 961 129 l 961 129 q 980 113 1007 104 q 1033 94 1076 94 l 1076 94 q 1141 94 1192 120 q 1242 146 1271 197 q 1300 247 1300 322 l 1300 322 l 1300 327 q 1300 382 1288 414 q 1276 446 1256 460 q 1235 474 1209 474 l 1209 474 q 1189 474 1175 465 q 1160 456 1153 439 q 1145 421 1145 395 l 1145 395 q 1145 358 1163 337 q 1180 315 1216 315 l 1216 315 q 1254 315 1288 336 q 1322 356 1356 394 l 1356 394 l 1368 295 q 1340 266 1292 241 q 1243 215 1181 215 l 1181 215 q 1124 215 1084 237 q 1044 259 1024 298 q 1003 337 1003 388 l 1003 388 q 1003 446 1027 488 q 1051 529 1096 552 q 1141 574 1205 574 z"},"ണ":{"ha":1485,"x_min":37,"x_max":1448,"o":"m 399 574 l 399 574 q 489 574 550 549 q 610 523 658 473 l 658 473 l 621 494 q 656 535 705 555 q 753 574 811 574 l 811 574 q 876 574 918 554 q 960 534 995 496 l 995 496 l 983 496 q 1024 537 1070 556 q 1116 574 1180 574 l 1180 574 q 1265 574 1325 538 q 1385 502 1417 440 q 1448 378 1448 299 l 1448 299 q 1448 234 1431 179 q 1414 124 1383 77 q 1352 30 1308 -12 l 1308 -12 l 1203 64 q 1238 103 1259 140 q 1280 177 1290 214 q 1299 250 1299 289 l 1299 289 q 1299 349 1282 389 q 1264 428 1234 448 q 1203 468 1165 468 l 1165 468 q 1145 468 1125 460 q 1104 451 1090 434 l 1090 434 q 1075 415 1071 387 q 1066 359 1066 302 l 1066 302 l 1066 0 l 919 0 l 919 311 q 919 361 913 391 q 907 420 890 439 l 890 439 q 878 453 859 461 q 839 468 811 468 l 811 468 q 786 468 767 460 q 747 451 733 436 l 733 436 q 717 417 710 389 q 703 360 703 301 l 703 301 l 703 0 l 556 0 l 556 268 q 556 345 544 380 q 532 415 511 433 l 511 433 q 492 450 466 459 q 440 468 396 468 l 396 468 q 332 468 282 443 q 231 417 202 366 q 172 315 172 240 l 172 240 l 172 237 q 172 181 184 149 q 196 116 217 102 q 237 88 262 88 l 262 88 q 283 88 298 97 q 312 106 320 124 q 327 141 327 167 l 327 167 q 327 205 310 226 q 292 247 255 247 l 255 247 q 218 247 184 227 q 150 206 116 168 l 116 168 l 104 267 q 132 296 181 322 q 229 347 291 347 l 291 347 q 348 347 388 326 q 428 304 449 266 q 469 227 469 174 l 469 174 q 469 116 445 75 q 421 33 376 11 q 331 -12 267 -12 l 267 -12 q 207 -12 155 14 q 102 40 70 96 q 37 152 37 242 l 37 242 q 37 350 85 424 q 133 498 216 536 q 298 574 399 574 z"},"ത":{"ha":1133,"x_min":37,"x_max":1096,"o":"m 564 -12 l 564 -12 q 488 -12 435 16 q 381 44 353 98 q 325 152 325 230 l 325 230 q 325 291 349 345 q 373 398 417 442 q 461 486 521 518 l 521 518 l 557 533 q 596 552 645 563 q 693 574 759 574 l 759 574 q 852 574 917 550 q 981 525 1021 483 q 1060 441 1078 389 q 1096 336 1096 280 l 1096 280 q 1096 212 1077 160 q 1057 107 1022 66 q 987 25 940 -12 l 940 -12 l 845 64 q 875 94 898 125 q 920 155 933 193 q 946 230 946 279 l 946 279 q 946 338 923 381 q 900 424 856 448 q 812 472 748 472 l 748 472 q 715 472 691 470 q 667 467 646 462 l 646 462 l 630 460 q 579 440 544 405 q 509 369 491 325 q 473 280 473 234 l 473 234 q 473 178 486 148 q 499 117 520 105 q 541 93 564 93 l 564 93 q 588 93 609 105 q 630 117 643 147 q 655 176 655 228 l 655 228 q 655 280 638 324 q 621 368 589 402 q 557 435 513 455 l 513 455 l 488 462 q 469 467 449 470 q 429 472 407 472 l 407 472 q 331 472 283 448 q 234 423 211 380 q 187 337 187 281 l 187 281 q 187 235 199 198 q 210 161 233 129 q 255 97 289 64 l 289 64 l 191 -12 q 146 25 112 67 q 77 108 57 161 q 37 213 37 281 l 37 281 q 37 335 56 387 q 74 439 115 482 q 156 524 224 549 q 292 574 390 574 l 390 574 q 449 574 497 564 q 544 554 586 534 l 586 534 l 614 523 q 701 478 752 403 q 803 327 803 229 l 803 229 q 803 149 776 95 q 748 41 695 15 q 641 -12 564 -12 z"},"ഥ":{"ha":982,"x_min":63,"x_max":924,"o":"m 63 562 l 210 562 l 210 105 l 426 105 l 426 0 l 63 0 l 63 562 z m 641 574 l 641 574 q 710 574 763 556 q 815 538 850 505 l 850 505 q 889 470 907 420 q 924 369 924 286 l 924 286 l 924 0 l 359 0 l 359 277 q 359 339 367 381 q 375 423 392 452 q 408 481 433 505 l 433 505 q 468 537 521 556 q 573 574 641 574 z m 643 469 l 643 469 q 609 469 585 460 q 561 450 544 433 l 544 433 q 527 414 517 382 q 506 350 506 282 l 506 282 l 506 105 l 777 105 l 777 271 q 777 345 767 380 q 757 414 740 433 l 740 433 q 724 450 700 460 q 675 469 643 469 z"},"ദ":{"ha":713,"x_min":45,"x_max":679,"o":"m 425 574 l 425 574 q 507 574 561 553 q 615 532 642 496 q 668 460 668 416 l 668 416 q 668 370 648 337 q 627 304 574 278 l 574 278 l 572 283 q 626 264 653 229 q 679 193 679 144 l 679 144 q 679 71 626 30 q 573 -12 471 -12 l 471 -12 q 430 -12 398 -8 q 365 -4 340 0 l 340 0 l 358 103 q 381 99 402 96 q 422 93 444 93 l 444 93 q 491 93 512 108 q 532 122 532 156 l 532 156 q 532 170 526 183 q 520 195 507 205 l 507 205 q 494 215 474 221 q 453 226 414 226 l 414 226 l 362 226 l 362 330 l 411 330 q 443 330 466 336 q 488 341 503 355 l 503 355 q 511 363 516 375 q 521 386 521 400 l 521 400 q 521 434 496 452 q 471 469 420 469 l 420 469 q 344 469 294 437 q 244 405 219 348 q 194 291 194 214 l 194 214 q 194 166 201 116 q 207 66 220 22 l 220 22 l 82 -4 q 65 46 55 108 q 45 169 45 222 l 45 222 q 45 331 88 410 q 130 488 215 531 q 299 574 425 574 z"},"ധ":{"ha":993,"x_min":37,"x_max":956,"o":"m 678 -12 l 678 -12 q 632 -12 600 -3 q 568 5 543 22 q 517 39 490 64 l 490 64 l 503 64 q 465 25 419 7 q 373 -12 307 -12 l 307 -12 q 222 -12 162 24 q 101 60 69 123 q 37 185 37 263 l 37 263 q 37 327 53 382 q 69 436 101 484 q 132 531 178 574 l 178 574 l 282 498 q 247 460 226 423 q 205 386 196 349 q 186 312 186 273 l 186 273 q 186 212 205 172 q 223 132 255 113 q 286 94 323 94 l 323 94 q 352 94 370 104 q 388 114 399 127 l 399 127 q 413 145 418 172 q 423 198 423 241 l 423 241 l 423 562 l 570 562 l 570 239 q 570 194 575 169 q 580 144 593 126 l 593 126 q 604 112 622 103 q 640 94 670 94 l 670 94 q 704 94 736 112 q 767 130 787 169 q 807 207 807 268 l 807 268 q 807 309 798 347 q 788 385 767 423 q 746 460 711 498 l 711 498 l 815 574 q 861 530 892 484 q 923 437 940 384 q 956 331 956 267 l 956 267 q 956 187 924 124 q 891 61 829 25 q 767 -12 678 -12 z"},"ന":{"ha":993,"x_min":37,"x_max":956,"o":"m 315 574 l 315 574 q 362 574 394 566 q 425 557 451 541 q 476 524 503 498 l 503 498 l 490 498 q 528 537 574 556 q 620 574 686 574 l 686 574 q 772 574 832 538 q 892 502 924 440 q 956 378 956 299 l 956 299 q 956 235 940 181 q 924 126 893 79 q 861 32 815 -12 l 815 -12 l 711 64 q 746 103 767 140 q 788 177 798 214 q 807 250 807 289 l 807 289 q 807 351 789 391 q 770 430 739 449 q 708 468 670 468 l 670 468 q 641 468 623 459 q 605 449 594 435 l 594 435 q 581 417 576 391 q 570 364 570 321 l 570 321 l 570 0 l 423 0 l 423 323 q 423 368 418 393 q 413 418 400 436 l 400 436 q 390 450 372 459 q 353 468 323 468 l 323 468 q 289 468 258 450 q 226 432 206 394 q 186 355 186 294 l 186 294 q 186 253 196 215 q 205 177 226 140 q 247 103 282 64 l 282 64 l 178 -12 q 133 32 102 79 q 70 125 54 179 q 37 232 37 295 l 37 295 q 37 375 70 438 q 102 501 164 538 q 226 574 315 574 z"},"ഩ":{"ha":1126,"x_min":37,"x_max":1089,"o":"m 399 574 l 399 574 q 489 574 550 549 q 610 523 658 473 l 658 473 l 621 494 q 656 535 705 555 q 753 574 818 574 l 818 574 q 904 574 965 538 q 1025 502 1057 440 q 1089 378 1089 299 l 1089 299 q 1089 233 1073 179 q 1056 124 1025 78 q 993 31 948 -12 l 948 -12 l 844 64 q 879 103 900 140 q 921 177 931 214 q 940 250 940 289 l 940 289 q 940 351 922 391 q 903 430 872 449 q 841 468 803 468 l 803 468 q 774 468 756 459 q 738 449 727 435 l 727 435 q 713 417 708 391 q 703 364 703 321 l 703 321 l 703 0 l 556 0 l 556 268 q 556 345 544 380 q 532 415 511 433 l 511 433 q 492 450 466 459 q 440 468 396 468 l 396 468 q 332 468 282 443 q 231 417 202 366 q 172 315 172 240 l 172 240 l 172 237 q 172 181 184 149 q 196 116 217 102 q 237 88 262 88 l 262 88 q 283 88 298 97 q 312 106 320 124 q 327 141 327 167 l 327 167 q 327 205 310 226 q 292 247 255 247 l 255 247 q 218 247 184 227 q 150 206 116 168 l 116 168 l 104 267 q 132 296 181 322 q 229 347 291 347 l 291 347 q 348 347 388 326 q 428 304 449 266 q 469 227 469 174 l 469 174 q 469 116 445 75 q 421 33 376 11 q 331 -12 267 -12 l 267 -12 q 207 -12 155 14 q 102 40 70 96 q 37 152 37 242 l 37 242 q 37 350 85 424 q 133 498 216 536 q 298 574 399 574 z"},"പ":{"ha":974,"x_min":29,"x_max":911,"o":"m 265 362 l 265 362 q 346 362 398 334 q 449 305 474 262 q 498 218 498 171 l 498 171 q 498 140 489 114 q 479 88 470 69 l 470 69 l 460 105 l 764 105 l 764 562 l 911 562 l 911 0 l 373 0 l 321 58 q 333 75 344 101 q 355 126 355 161 l 355 161 q 355 202 333 230 q 311 258 266 258 l 266 258 q 235 258 215 246 q 195 233 185 211 q 175 189 175 162 l 175 162 q 175 121 190 94 q 204 67 220 44 l 220 44 l 106 -12 q 69 29 49 72 q 29 115 29 170 l 29 170 q 29 228 59 271 q 89 314 142 338 q 195 362 265 362 z"},"ഫ":{"ha":1250,"x_min":29,"x_max":1192,"o":"m 265 362 l 265 362 q 346 362 398 334 q 449 305 474 262 q 498 218 498 171 l 498 171 q 498 140 489 114 q 479 88 470 69 l 470 69 l 455 105 l 753 105 l 753 0 l 373 0 l 321 58 q 333 75 344 101 q 355 126 355 161 l 355 161 q 355 202 333 230 q 311 258 266 258 l 266 258 q 235 258 215 246 q 195 233 185 211 q 175 189 175 162 l 175 162 q 175 121 190 94 q 204 67 220 44 l 220 44 l 106 -12 q 69 29 49 72 q 29 115 29 170 l 29 170 q 29 228 59 271 q 89 314 142 338 q 195 362 265 362 z m 909 574 l 909 574 q 978 574 1031 556 q 1083 538 1118 505 l 1118 505 q 1157 470 1175 420 q 1192 369 1192 286 l 1192 286 l 1192 0 l 627 0 l 627 277 q 627 339 635 381 q 643 423 660 452 q 676 481 701 505 l 701 505 q 736 537 789 556 q 841 574 909 574 z m 911 469 l 911 469 q 877 469 853 460 q 829 450 812 433 l 812 433 q 795 414 785 382 q 774 350 774 282 l 774 282 l 774 105 l 1045 105 l 1045 271 q 1045 345 1035 380 q 1025 414 1008 433 l 1008 433 q 992 450 968 460 q 943 469 911 469 z"},"ബ":{"ha":1440,"x_min":37,"x_max":1377,"o":"m 399 574 l 399 574 q 489 574 550 549 q 610 523 658 473 l 658 473 l 682 401 l 703 248 l 703 0 l 556 0 l 556 269 q 556 345 544 380 q 532 415 511 433 l 511 433 q 492 450 466 459 q 440 468 396 468 l 396 468 q 332 468 282 443 q 231 417 202 366 q 172 315 172 240 l 172 240 l 172 237 q 172 181 184 149 q 196 116 217 102 q 237 88 262 88 l 262 88 q 283 88 298 97 q 312 106 320 124 q 327 141 327 167 l 327 167 q 327 205 310 226 q 292 247 255 247 l 255 247 q 218 247 184 227 q 150 206 116 168 l 116 168 l 104 267 q 132 296 181 322 q 229 347 291 347 l 291 347 q 348 347 388 326 q 428 304 449 266 q 469 227 469 174 l 469 174 q 469 116 445 75 q 421 33 376 11 q 331 -12 267 -12 l 267 -12 q 207 -12 155 14 q 102 40 70 96 q 37 152 37 242 l 37 242 q 37 350 85 424 q 133 498 216 536 q 298 574 399 574 z m 1230 562 l 1377 562 l 1377 0 l 890 0 l 846 61 q 880 105 900 142 q 920 178 929 214 q 938 249 938 289 l 938 289 q 938 351 920 391 q 902 430 872 449 q 841 468 803 468 l 803 468 q 774 468 756 459 q 738 449 727 435 l 727 435 q 713 417 708 391 q 703 364 703 321 l 703 321 l 703 0 l 556 0 l 556 242 l 613 423 l 621 494 q 656 535 704 555 q 751 574 818 574 l 818 574 q 903 574 963 538 q 1023 502 1055 440 q 1087 378 1087 299 l 1087 299 q 1087 257 1080 220 q 1072 183 1058 150 q 1044 117 1022 88 l 1022 88 l 986 105 l 1230 105 l 1230 562 z"},"ഭ":{"ha":740,"x_min":45,"x_max":709,"o":"m 450 574 l 450 574 q 529 574 587 557 q 645 539 677 506 q 709 472 709 423 l 709 423 q 709 398 703 378 q 696 358 682 343 l 682 343 q 664 323 634 313 q 604 302 544 302 l 544 302 l 511 302 q 483 302 470 301 q 456 299 448 295 l 448 295 q 441 291 438 286 q 435 280 435 273 l 435 273 q 435 255 458 251 q 480 246 517 246 l 517 246 l 533 246 q 592 246 625 237 q 657 228 676 209 l 676 209 q 693 193 701 173 q 709 152 709 123 l 709 123 q 709 85 688 54 q 666 23 621 6 q 575 -12 502 -12 l 502 -12 q 457 -12 420 -8 q 383 -4 351 4 q 319 12 289 23 l 289 23 l 333 118 q 371 106 408 99 q 445 92 488 92 l 488 92 q 537 92 555 100 q 572 107 572 121 l 572 121 q 572 138 559 143 q 545 147 522 147 l 522 147 l 508 147 q 427 147 384 160 q 341 173 322 198 l 322 198 q 312 212 305 230 q 298 248 298 271 l 298 271 q 298 297 307 320 q 316 343 335 359 l 335 359 q 358 379 393 390 q 428 401 491 401 l 491 401 l 523 401 q 546 401 558 406 q 570 410 570 426 l 570 426 q 570 449 537 459 q 503 469 447 469 l 447 469 q 357 469 301 437 q 245 405 220 348 q 194 291 194 214 l 194 214 q 194 166 201 116 q 207 66 220 22 l 220 22 l 82 -4 q 65 46 55 108 q 45 169 45 222 l 45 222 q 45 331 90 410 q 135 488 225 531 q 315 574 450 574 z"},"മ":{"ha":813,"x_min":56,"x_max":757,"o":"m 396 574 l 396 574 q 489 574 556 554 q 622 534 666 499 l 666 499 q 698 473 718 440 q 738 406 748 361 q 757 316 757 255 l 757 255 l 757 0 l 56 0 l 56 257 q 56 315 66 360 q 75 404 95 439 q 114 473 145 498 l 145 498 q 188 534 248 554 q 307 574 396 574 z m 322 468 l 322 468 q 292 468 269 452 q 245 436 229 408 l 229 408 q 216 385 210 353 q 203 320 203 273 l 203 273 l 203 68 l 167 70 q 227 120 276 173 q 325 226 354 281 q 383 336 383 392 l 383 392 q 383 413 378 430 q 373 447 360 458 q 346 468 322 468 z m 528 370 l 528 370 q 528 322 509 276 q 489 230 455 185 q 420 140 374 94 l 374 94 l 348 100 q 373 103 400 104 q 426 105 439 105 l 439 105 l 610 105 l 610 254 q 610 318 598 360 q 586 401 560 429 q 533 456 488 475 l 488 475 l 492 479 q 504 463 516 437 q 528 410 528 370 z"},"യ":{"ha":1145,"x_min":37,"x_max":1106,"o":"m 735 -12 l 735 -12 q 676 -12 633 -3 q 590 6 538 29 l 538 29 q 532 32 522 36 q 511 40 505 44 l 505 44 q 442 81 405 129 q 368 176 352 229 q 336 281 336 333 l 336 333 q 336 370 343 399 q 349 427 360 450 l 360 450 l 370 458 q 392 503 427 529 q 461 554 502 564 q 543 574 583 574 l 583 574 q 697 574 762 515 q 826 455 826 333 l 826 333 q 826 240 781 170 q 736 99 664 54 l 664 54 q 654 47 647 43 q 639 39 627 34 l 627 34 q 581 11 528 0 q 475 -12 412 -12 l 412 -12 q 320 -12 250 13 q 180 37 133 83 q 85 128 61 192 q 37 255 37 333 l 37 333 q 37 404 65 459 q 93 513 150 544 q 206 574 290 574 l 290 574 q 355 574 410 550 q 464 526 498 472 l 498 472 l 381 409 q 363 439 341 454 q 318 469 289 469 l 289 469 q 255 469 232 452 q 209 435 197 405 q 185 374 185 332 l 185 332 q 185 260 214 206 q 242 151 295 121 q 348 90 421 90 l 421 90 q 447 90 469 93 q 491 96 510 100 l 510 100 q 521 103 531 104 q 541 105 550 109 l 550 109 q 583 124 612 156 q 641 187 659 232 q 677 277 677 333 l 677 333 q 677 384 663 414 q 649 443 628 456 q 606 469 582 469 l 582 469 q 553 469 531 455 q 508 440 496 410 q 484 379 484 332 l 484 332 q 484 279 500 235 q 515 190 543 158 q 571 125 609 106 l 609 106 q 619 102 625 104 q 631 105 641 102 l 641 102 q 657 97 682 94 q 706 90 734 90 l 734 90 q 801 90 851 116 q 901 142 929 193 q 956 243 956 315 l 956 315 q 956 363 942 411 q 928 459 893 507 l 893 507 l 1005 574 q 1057 514 1082 449 q 1106 384 1106 316 l 1106 316 q 1106 252 1087 194 q 1068 135 1025 89 q 982 42 911 15 q 839 -12 735 -12 z"},"ര":{"ha":819,"x_min":37,"x_max":782,"o":"m 395 574 l 395 574 q 493 574 566 548 q 638 522 686 476 q 734 429 758 368 q 782 306 782 236 l 782 236 q 782 151 753 96 q 724 41 670 15 q 615 -12 540 -12 l 540 -12 q 462 -12 414 18 q 365 48 343 98 q 320 147 320 206 l 320 206 q 320 297 372 354 q 423 410 520 410 l 520 410 q 580 410 626 380 q 671 350 698 303 q 725 256 728 204 l 728 204 l 673 207 q 667 232 652 256 q 636 279 612 295 q 588 310 556 310 l 556 310 q 507 310 485 281 q 463 252 463 202 l 463 202 q 463 170 472 145 q 481 120 500 107 q 518 93 547 93 l 547 93 q 576 93 596 109 q 616 124 627 156 q 638 188 638 239 l 638 239 q 638 253 637 272 q 635 290 632 307 l 632 307 q 631 312 631 319 q 631 325 629 329 l 629 329 q 622 366 595 398 q 567 429 521 448 q 475 467 410 467 l 410 467 q 334 467 285 444 q 235 421 211 379 q 187 337 187 281 l 187 281 q 187 235 199 198 q 210 161 233 129 q 256 97 289 64 l 289 64 l 191 -12 q 147 25 112 68 q 77 110 57 163 q 37 215 37 281 l 37 281 q 37 338 57 391 q 77 443 120 485 q 162 526 231 550 q 299 574 395 574 z"},"റ":{"ha":743,"x_min":37,"x_max":706,"o":"m 373 574 l 373 574 q 463 574 527 550 q 590 525 630 483 q 669 441 688 389 q 706 336 706 280 l 706 280 q 706 214 687 162 q 667 110 632 68 q 597 25 550 -12 l 550 -12 l 452 64 q 482 94 505 125 q 528 155 541 193 q 554 230 554 279 l 554 279 q 554 335 531 378 q 508 420 468 444 q 427 467 374 467 l 374 467 q 318 467 277 444 q 235 421 212 379 q 189 337 189 281 l 189 281 q 189 235 201 198 q 212 161 235 129 q 257 97 291 64 l 291 64 l 191 -12 q 147 25 112 68 q 77 110 57 163 q 37 215 37 281 l 37 281 q 37 335 56 387 q 75 439 116 482 q 156 524 220 549 q 284 574 373 574 z"},"ല":{"ha":938,"x_min":58,"x_max":875,"o":"m 728 562 l 875 562 l 875 0 l 58 0 l 58 303 q 58 383 77 429 q 96 474 127 505 l 127 505 q 160 538 212 556 q 263 574 330 574 l 330 574 q 397 574 447 556 q 497 538 530 505 l 530 505 q 568 467 584 420 q 600 372 600 301 l 600 301 l 600 213 l 205 213 l 205 105 l 728 105 l 728 562 z m 329 469 l 329 469 q 262 469 234 428 q 205 387 205 323 l 205 323 l 205 318 l 453 318 l 453 322 q 453 390 423 430 q 393 469 329 469 z"},"ള":{"ha":784,"x_min":37,"x_max":750,"o":"m 409 469 l 409 469 q 361 469 320 464 q 278 458 246 446 q 213 433 192 414 q 171 394 163 367 l 163 367 q 162 364 163 362 q 164 359 163 356 l 163 356 q 160 348 159 338 q 157 327 157 309 l 157 309 q 157 268 176 244 q 195 219 229 219 l 229 219 q 261 219 276 238 q 290 256 290 283 l 290 283 q 290 301 284 315 q 277 328 264 336 q 250 344 229 344 l 229 344 q 198 344 175 336 q 151 327 126 315 l 126 315 l 48 325 q 67 348 101 372 q 135 396 177 413 q 218 429 258 429 l 258 429 q 318 429 355 409 q 391 389 408 356 q 425 323 425 284 l 425 284 q 425 242 405 206 q 385 170 343 148 q 300 126 232 126 l 232 126 q 175 126 131 150 q 87 174 62 218 q 37 262 37 322 l 37 322 q 37 371 59 417 q 81 462 128 498 q 175 533 249 554 q 322 574 425 574 l 425 574 q 533 574 603 555 q 672 536 706 499 q 740 462 740 407 l 740 407 q 740 366 717 336 q 694 306 650 287 q 606 268 543 258 l 543 258 l 489 310 l 489 335 l 498 335 q 524 335 541 338 q 558 340 571 349 l 571 349 q 582 356 587 367 q 592 378 592 393 l 592 393 q 592 418 577 435 q 561 451 521 460 q 481 469 409 469 z m 750 156 l 750 156 q 750 120 737 92 q 724 63 701 43 l 701 43 q 682 27 658 18 q 633 9 595 5 q 556 0 495 0 l 495 0 l 305 0 q 262 0 244 -2 q 225 -5 215 -10 l 215 -10 q 202 -16 197 -25 q 192 -34 192 -45 l 192 -45 q 192 -56 196 -65 q 200 -74 210 -81 l 210 -81 q 221 -87 240 -90 q 259 -94 302 -94 l 302 -94 l 730 -94 l 730 -201 l 283 -201 q 225 -201 180 -192 q 135 -183 107 -166 l 107 -166 q 76 -146 60 -117 q 44 -88 44 -51 l 44 -51 q 44 -13 60 19 q 76 50 110 71 l 110 71 q 128 82 150 90 q 172 97 205 101 q 237 105 283 105 l 283 105 l 479 105 q 521 105 545 109 q 568 112 581 122 l 581 122 q 592 129 598 141 q 603 152 603 167 l 603 167 q 603 183 597 196 q 591 209 577 217 l 577 217 q 567 224 550 227 q 533 230 500 230 l 500 230 l 489 230 l 489 324 l 602 308 q 680 283 715 246 q 750 209 750 156 z"},"ഴ":{"ha":733,"x_min":34,"x_max":700,"o":"m 277 410 l 277 410 q 277 483 330 529 q 383 574 485 574 l 485 574 q 564 574 611 547 q 658 520 679 478 q 700 436 700 389 l 700 389 q 700 323 665 270 q 630 217 563 186 q 495 154 398 154 l 398 154 l 355 154 q 249 154 178 185 q 106 216 70 272 q 34 328 34 403 l 34 403 q 34 444 49 488 q 63 532 94 575 l 94 575 l 210 518 q 196 489 189 464 q 181 438 181 406 l 181 406 q 181 353 205 318 q 228 283 268 267 q 308 250 356 250 l 356 250 l 394 250 q 445 250 481 268 q 517 286 536 319 q 554 352 554 396 l 554 396 q 554 426 539 451 q 524 475 485 475 l 485 475 q 464 475 449 466 q 434 456 427 440 q 419 423 419 402 l 419 402 q 419 367 433 336 q 446 304 463 274 q 480 243 494 209 q 507 175 507 136 l 507 136 q 507 99 491 65 q 475 31 434 10 q 393 -12 318 -12 l 318 -12 q 272 -12 225 -4 q 178 4 131 23 l 131 23 l 174 121 q 208 107 236 101 q 263 94 293 94 l 293 94 q 337 94 352 113 q 367 131 367 147 l 367 147 q 367 175 354 204 q 340 233 322 265 q 304 296 291 332 q 277 368 277 410 z"},"വ":{"ha":1059,"x_min":37,"x_max":996,"o":"m 373 574 l 373 574 q 462 574 525 550 q 587 526 627 485 q 666 444 685 394 q 703 343 703 290 l 703 290 q 703 227 687 182 q 671 136 643 99 q 615 62 580 22 l 580 22 l 607 105 l 849 105 l 849 562 l 996 562 l 996 0 l 507 0 l 458 70 q 485 97 507 127 q 529 156 542 193 q 554 230 554 279 l 554 279 q 554 335 531 378 q 508 420 468 444 q 427 467 374 467 l 374 467 q 318 467 277 444 q 235 421 212 379 q 189 337 189 281 l 189 281 q 189 235 201 198 q 212 161 235 129 q 257 97 291 64 l 291 64 l 191 -12 q 147 25 112 68 q 77 110 57 163 q 37 215 37 281 l 37 281 q 37 335 56 387 q 75 439 116 482 q 156 524 220 549 q 284 574 373 574 z"},"ശ":{"ha":1147,"x_min":37,"x_max":1110,"o":"m 739 574 l 739 574 q 825 574 894 551 q 962 527 1011 483 q 1059 438 1085 376 q 1110 314 1110 236 l 1110 236 q 1110 151 1081 96 q 1052 41 998 15 q 943 -12 868 -12 l 868 -12 q 790 -12 742 18 q 693 48 671 98 q 648 147 648 206 l 648 206 q 648 297 700 354 q 751 410 848 410 l 848 410 q 908 410 954 380 q 999 350 1026 303 q 1053 256 1056 204 l 1056 204 l 1000 207 q 995 232 979 256 q 963 279 939 295 q 915 310 883 310 l 883 310 q 835 310 813 281 q 791 252 791 202 l 791 202 q 791 170 800 145 q 808 120 827 107 q 846 93 875 93 l 875 93 q 903 93 924 109 q 944 124 955 156 q 966 188 966 239 l 966 239 q 966 253 965 272 q 964 290 961 307 l 961 307 q 960 312 962 319 q 964 325 961 328 l 961 328 q 955 365 929 397 q 902 428 856 448 q 809 467 743 467 l 743 467 q 695 467 665 459 q 635 450 612 431 l 612 431 q 579 403 568 358 q 556 312 556 253 l 556 253 l 556 249 q 556 191 543 141 q 529 90 497 55 l 497 55 q 467 23 421 6 q 374 -12 308 -12 l 308 -12 q 225 -12 164 22 q 103 56 70 118 q 37 180 37 264 l 37 264 q 37 330 54 385 q 70 439 102 486 q 134 532 179 575 l 179 575 l 281 499 q 247 461 226 424 q 205 387 196 350 q 186 312 186 271 l 186 271 q 186 208 202 170 q 217 131 244 113 q 271 95 303 95 l 303 95 q 332 95 353 105 q 373 115 384 134 l 384 134 q 396 154 401 183 q 406 212 406 249 l 406 249 l 406 262 q 406 357 430 413 q 454 469 493 502 l 493 502 q 540 542 596 558 q 652 574 739 574 z"},"ഷ":{"ha":1280,"x_min":29,"x_max":1217,"o":"m 265 362 l 265 362 q 346 362 398 334 q 449 305 474 262 q 498 218 498 171 l 498 171 q 498 140 489 114 q 479 88 470 69 l 470 69 l 460 105 l 734 105 l 792 0 l 373 0 l 321 58 q 333 75 344 101 q 355 126 355 161 l 355 161 q 355 202 333 230 q 311 258 266 258 l 266 258 q 235 258 215 246 q 195 233 185 211 q 175 189 175 162 l 175 162 q 175 121 190 94 q 204 67 220 44 l 220 44 l 106 -12 q 69 29 49 72 q 29 115 29 170 l 29 170 q 29 228 59 271 q 89 314 142 338 q 195 362 265 362 z m 1217 0 l 717 0 l 717 386 q 717 412 714 427 q 711 442 705 452 l 705 452 q 700 460 691 465 q 682 470 668 470 l 668 470 q 644 470 629 455 q 613 440 613 408 l 613 408 q 613 389 621 371 q 629 353 654 342 q 678 330 726 330 l 726 330 l 772 330 q 832 330 878 351 q 924 372 959 407 q 994 441 1021 482 q 1048 523 1071 562 l 1071 562 l 1217 562 l 1217 0 z m 667 574 l 667 574 q 709 574 743 565 q 777 555 801 535 l 801 535 q 830 512 846 475 q 861 438 861 371 l 861 371 l 861 105 l 1071 105 l 1071 305 q 1071 323 1072 341 q 1073 358 1075 375 q 1076 391 1077 403 l 1077 403 l 1080 390 q 1045 334 998 298 q 951 262 899 246 q 846 229 794 229 l 794 229 l 728 229 q 634 229 578 254 q 522 279 498 321 q 473 362 473 412 l 473 412 q 473 455 496 492 q 518 528 561 551 q 604 574 667 574 z"},"സ":{"ha":1334,"x_min":37,"x_max":1297,"o":"m 681 574 l 681 574 q 741 574 784 558 q 827 541 859 508 l 859 508 q 881 486 895 458 q 908 430 915 393 q 922 356 922 307 l 922 307 l 922 271 q 922 217 927 186 q 931 154 944 134 l 944 134 q 956 115 977 105 q 997 95 1028 95 l 1028 95 q 1062 95 1089 113 q 1116 131 1132 170 q 1148 208 1148 271 l 1148 271 q 1148 312 1139 350 q 1129 387 1109 424 q 1088 461 1053 499 l 1053 499 l 1155 575 q 1201 532 1233 486 q 1264 439 1281 385 q 1297 330 1297 264 l 1297 264 q 1297 180 1263 118 q 1229 56 1168 22 q 1106 -12 1022 -12 l 1022 -12 q 956 -12 909 6 q 861 23 831 55 l 831 55 q 810 79 797 110 q 784 140 778 178 q 772 216 772 260 l 772 260 l 772 287 q 772 349 768 379 q 763 409 750 429 l 750 429 q 738 449 718 458 q 698 467 669 467 l 669 467 q 646 467 626 460 q 606 452 595 438 l 595 438 q 579 419 572 391 q 565 362 565 312 l 565 312 l 565 0 l 418 0 l 418 303 q 418 360 414 388 q 410 415 395 434 l 395 434 q 382 451 361 460 q 340 468 320 468 l 320 468 q 282 468 252 448 q 221 428 204 389 q 186 349 186 289 l 186 289 q 186 250 196 214 q 205 177 226 140 q 247 103 282 64 l 282 64 l 178 -12 q 132 32 101 79 q 69 126 53 181 q 37 235 37 299 l 37 299 q 37 378 69 440 q 100 502 160 538 q 220 574 305 574 l 305 574 q 370 574 416 556 q 461 537 501 496 l 501 496 l 490 496 q 526 531 568 553 q 610 574 681 574 z"},"ഹ":{"ha":1314,"x_min":29,"x_max":1277,"o":"m 265 362 l 265 362 q 346 362 398 334 q 449 305 474 262 q 498 218 498 171 l 498 171 q 498 140 489 114 q 479 88 470 69 l 470 69 l 460 105 l 734 105 l 793 0 l 373 0 l 321 58 q 333 75 344 101 q 355 126 355 161 l 355 161 q 355 202 333 230 q 311 258 266 258 l 266 258 q 235 258 215 246 q 195 233 185 211 q 175 189 175 162 l 175 162 q 175 121 190 94 q 204 67 220 44 l 220 44 l 106 -12 q 69 29 49 72 q 29 115 29 170 l 29 170 q 29 228 59 271 q 89 314 142 338 q 195 362 265 362 z m 944 574 l 944 574 q 1034 574 1098 550 q 1161 525 1201 483 q 1240 441 1259 389 q 1277 336 1277 280 l 1277 280 q 1277 214 1258 162 q 1238 110 1203 68 q 1168 25 1121 -12 l 1121 -12 l 1023 64 q 1053 94 1076 125 q 1099 155 1112 193 q 1125 230 1125 279 l 1125 279 q 1125 335 1103 378 q 1080 420 1040 444 q 999 467 945 467 l 945 467 q 889 467 848 444 q 806 421 783 379 q 760 337 760 281 l 760 281 q 760 235 771 199 q 782 163 804 132 q 825 101 856 70 l 856 70 l 807 0 l 772 0 l 731 22 q 697 61 670 99 q 643 137 627 182 q 611 226 611 285 l 611 285 q 611 338 630 390 q 649 441 689 483 q 729 524 792 549 q 855 574 944 574 z"},"ഺ":{"ha":784,"x_min":19,"x_max":765,"o":"m 177 105 l 765 105 l 765 0 l 504 0 l 504 -202 l 357 -202 l 357 0 l 85 0 l 19 83 l 202 564 l 337 519 l 177 105 z"},"഻":{"ha":0,"x_min":-328,"x_max":-228,"o":"m -328 596 l -328 864 l -228 864 l -228 596 l -328 596 z"},"഼":{"ha":0,"x_min":-287,"x_max":20,"o":"m -287 728 l -287 728 q -287 786 -245 825 q -203 864 -134 864 l -134 864 q -64 864 -22 826 q 20 787 20 728 l 20 728 q 20 670 -21 631 q -63 592 -134 592 l -134 592 q -204 592 -245 631 q -287 670 -287 728 z m -187 729 l -187 729 q -187 707 -173 692 q -160 677 -134 677 l -134 677 q -107 677 -93 692 q -80 707 -80 729 l -80 729 q -80 751 -94 765 q -108 779 -134 779 l -134 779 q -159 779 -173 765 q -187 751 -187 729 z"},"ഽ":{"ha":526,"x_min":-92,"x_max":618,"o":"m 410 800 l 410 800 q 471 800 513 779 q 554 757 580 722 q 605 686 618 644 l 618 644 l 476 615 q 469 641 461 659 q 452 676 439 686 q 426 695 407 695 l 407 695 q 390 695 377 688 q 363 680 354 665 l 354 665 q 345 649 342 622 q 338 594 338 542 l 338 542 l 338 61 q 338 -34 327 -88 q 315 -143 281 -181 l 281 -181 q 256 -209 215 -226 q 174 -244 116 -244 l 116 -244 q 56 -244 14 -222 q -28 -201 -53 -165 q -79 -129 -92 -87 l -92 -87 l 50 -58 q 57 -84 66 -102 q 75 -121 88 -130 q 101 -139 119 -139 l 119 -139 q 139 -139 152 -130 q 165 -122 172 -108 l 172 -108 q 183 -88 186 -60 q 188 -32 188 14 l 188 14 l 188 492 q 188 587 200 643 q 211 699 245 736 l 245 736 q 271 765 312 783 q 352 800 410 800 z"},"ാ":{"ha":577,"x_min":20,"x_max":537,"o":"m 537 283 l 537 283 q 537 224 525 171 q 512 118 482 77 q 452 35 401 12 q 350 -12 272 -12 l 272 -12 q 206 -12 161 6 q 116 24 88 53 q 59 81 44 116 q 28 150 20 183 l 20 183 l 170 208 q 177 183 188 156 q 198 129 219 111 q 239 92 274 92 l 274 92 q 314 92 339 116 q 363 140 374 183 q 385 225 385 281 l 385 281 q 385 337 374 380 q 363 422 339 446 q 315 470 277 470 l 277 470 q 245 470 224 453 q 203 435 191 409 q 179 383 173 355 l 173 355 l 23 381 q 34 415 52 449 q 70 483 100 512 q 129 540 174 557 q 219 574 283 574 l 283 574 q 356 574 405 551 q 454 527 483 487 q 512 446 525 394 q 537 341 537 283 z"},"ി":{"ha":274,"x_min":-238,"x_max":211,"o":"m -21 851 l -21 851 q 23 851 58 843 q 93 834 120 816 l 120 816 q 154 794 174 764 q 193 733 202 685 q 211 636 211 557 l 211 557 l 211 0 l 63 0 l 63 534 q 63 584 61 620 q 59 655 54 679 q 48 702 38 716 l 38 716 q 28 730 14 738 q 0 746 -23 746 l -23 746 q -40 746 -56 739 q -72 731 -81 716 q -91 700 -91 676 l -91 676 q -91 667 -89 658 q -88 648 -86 640 l -86 640 l -230 623 q -234 635 -236 649 q -238 662 -238 677 l -238 677 q -238 735 -209 774 q -181 812 -132 832 q -83 851 -21 851 z"},"ീ":{"ha":274,"x_min":-286,"x_max":211,"o":"m -92 851 l -92 851 q -33 851 13 841 q 59 831 102 804 l 102 804 q 165 764 188 697 q 211 629 211 516 l 211 516 l 211 0 l 63 0 l 63 509 q 63 578 58 625 q 52 672 38 702 q 23 732 -4 748 l -4 748 q -22 759 -46 763 q -70 766 -102 766 l -102 766 q -121 766 -138 761 q -156 756 -167 744 q -178 732 -178 711 l -178 711 q -178 694 -167 681 q -156 667 -133 667 l -133 667 q -102 667 -92 684 q -82 700 -82 722 l -82 722 q -82 745 -95 764 q -108 783 -127 796 l -127 796 l 3 777 q 11 767 16 751 q 21 734 21 714 l 21 714 q 21 677 6 646 q -10 615 -44 597 q -78 578 -134 578 l -134 578 q -181 578 -215 594 q -250 609 -268 638 q -286 667 -286 709 l -286 709 q -286 750 -266 782 q -246 814 -203 833 q -160 851 -92 851 z"},"ു":{"ha":379,"x_min":-33,"x_max":387,"o":"m 177 -235 l 177 -235 q 80 -235 24 -184 q -33 -133 -33 -53 l -33 -53 q -33 1 -6 42 q 21 83 68 106 q 115 128 176 128 l 176 128 q 238 128 286 106 q 333 84 360 44 q 387 3 387 -53 l 387 -53 q 387 -108 360 -149 q 333 -190 286 -212 q 239 -235 177 -235 z m 177 -139 l 177 -139 q 212 -139 236 -117 q 259 -96 259 -53 l 259 -53 q 259 -11 236 11 q 213 32 176 32 l 176 32 q 142 32 119 11 q 95 -11 95 -54 l 95 -54 q 95 -95 119 -117 q 142 -139 177 -139 z m 141 574 l 141 574 q 207 574 246 551 q 284 527 300 489 q 316 450 316 405 l 316 405 q 316 328 298 257 q 279 185 252 99 l 252 99 l 115 113 q 140 190 154 256 q 167 322 167 375 l 167 375 q 167 414 153 441 q 139 467 100 467 l 100 467 q 85 467 72 466 q 58 464 45 460 l 45 460 l 23 561 q 46 566 75 570 q 103 574 141 574 z"},"ൂ":{"ha":379,"x_min":-33,"x_max":387,"o":"m 177 -235 l 177 -235 q 80 -235 24 -184 q -33 -133 -33 -53 l -33 -53 q -33 1 -6 42 q 21 83 68 106 q 115 128 176 128 l 176 128 q 238 128 286 106 q 333 84 360 44 q 387 3 387 -53 l 387 -53 q 387 -108 360 -149 q 333 -190 286 -212 q 239 -235 177 -235 z m 177 37 l 177 37 q 134 37 105 15 q 76 -8 76 -54 l 76 -54 q 76 -99 105 -121 q 134 -144 177 -144 l 177 -144 q 219 -144 249 -121 q 278 -99 278 -53 l 278 -53 q 278 -8 250 15 q 221 37 177 37 z m 178 -100 l 178 -100 q 121 -100 93 -67 q 64 -35 64 17 l 64 17 q 64 35 75 56 q 86 77 105 100 l 105 100 l 153 76 q 135 69 128 56 q 120 43 120 31 l 120 31 q 120 16 127 5 q 134 -6 147 -12 q 160 -18 179 -18 l 179 -18 q 197 -18 210 -12 q 223 -6 230 5 q 237 16 237 31 l 237 31 q 237 40 230 52 q 222 63 205 70 l 205 70 l 252 100 q 274 76 284 57 q 293 38 293 16 l 293 16 q 293 -13 282 -39 q 271 -66 246 -83 q 221 -100 178 -100 z m 141 574 l 141 574 q 207 574 246 551 q 284 527 300 489 q 316 450 316 405 l 316 405 q 316 328 298 257 q 279 185 252 99 l 252 99 l 115 113 q 140 190 154 256 q 167 322 167 375 l 167 375 q 167 414 153 441 q 139 467 100 467 l 100 467 q 85 467 72 466 q 58 464 45 460 l 45 460 l 23 561 q 46 566 75 570 q 103 574 141 574 z"},"ൃ":{"ha":291,"x_min":-151,"x_max":290,"o":"m 51 -334 l 51 -334 q -13 -334 -58 -315 q -104 -297 -127 -261 q -151 -226 -151 -175 l -151 -175 q -151 -106 -103 -64 q -55 -23 35 -23 l 35 -23 q 74 -23 111 -33 q 148 -44 200 -79 l 200 -79 l 168 -168 q 140 -145 112 -134 q 84 -124 49 -124 l 49 -124 q 19 -124 3 -137 q -13 -150 -13 -177 l -13 -177 q -13 -202 5 -215 q 22 -229 51 -229 l 51 -229 q 82 -229 103 -219 q 124 -209 136 -185 q 147 -162 147 -122 l 147 -122 q 147 -99 140 -68 q 133 -37 121 -2 q 109 32 95 65 l 95 65 q 71 122 55 183 q 38 244 38 305 l 38 305 q 38 377 60 442 q 81 507 112 562 l 112 562 l 263 562 q 236 514 219 473 q 201 432 193 394 q 185 355 185 315 l 185 315 q 185 263 198 215 q 211 166 233 108 l 233 108 q 251 62 264 24 q 276 -15 283 -50 q 290 -86 290 -122 l 290 -122 q 290 -196 257 -243 q 223 -290 169 -312 q 114 -334 51 -334 z"},"ൄ":{"ha":291,"x_min":-304,"x_max":288,"o":"m -34 -334 l -34 -334 q -121 -334 -181 -314 q -242 -294 -273 -254 q -304 -214 -304 -156 l -304 -156 q -304 -98 -267 -62 q -231 -26 -174 -26 l -174 -26 q -137 -26 -114 -40 q -92 -54 -76 -75 l -76 -75 l -87 -75 q -70 -53 -48 -39 q -27 -26 4 -26 l 4 -26 q 41 -26 63 -39 q 85 -52 97 -71 q 108 -91 112 -112 q 115 -134 115 -151 l 115 -151 l 115 -178 l 24 -178 l 24 -163 q 24 -143 20 -130 q 15 -117 -5 -117 l -5 -117 q -26 -117 -31 -130 q -36 -144 -36 -162 l -36 -162 l -36 -178 l -126 -178 l -126 -162 q -126 -141 -132 -129 q -139 -117 -156 -117 l -156 -117 q -173 -117 -181 -128 q -190 -140 -190 -157 l -190 -157 q -190 -194 -152 -211 q -114 -229 -33 -229 l -33 -229 q 46 -229 94 -202 q 141 -176 141 -115 l 141 -115 q 141 -88 135 -59 q 128 -31 118 1 q 107 32 94 64 l 94 64 q 73 120 56 180 q 38 239 38 305 l 38 305 q 38 377 60 442 q 81 507 112 562 l 112 562 l 263 562 q 236 514 219 473 q 201 432 193 394 q 185 355 185 315 l 185 315 q 185 263 198 215 q 211 166 233 107 l 233 107 q 251 62 263 25 q 275 -12 282 -46 q 288 -80 288 -117 l 288 -117 q 288 -183 254 -231 q 219 -280 148 -307 q 76 -334 -34 -334 z"},"െ":{"ha":789,"x_min":37,"x_max":752,"o":"m 268 -12 l 268 -12 q 207 -12 155 15 q 102 41 70 97 q 37 153 37 243 l 37 243 q 37 317 64 378 q 90 438 140 482 q 190 526 261 550 q 331 574 419 574 l 419 574 q 503 574 566 552 q 628 529 670 489 q 711 449 732 396 q 752 342 752 280 l 752 280 q 752 213 732 161 q 712 108 677 67 q 642 25 596 -12 l 596 -12 l 500 64 q 530 94 553 125 q 576 155 589 192 q 602 229 602 279 l 602 279 q 602 335 580 378 q 558 420 514 444 q 470 467 404 467 l 404 467 q 334 467 282 437 q 229 406 201 355 q 172 303 172 239 l 172 239 q 172 182 184 149 q 196 116 217 102 q 237 88 262 88 l 262 88 q 283 88 298 97 q 312 106 320 124 q 327 141 327 166 l 327 166 q 327 204 310 226 q 292 247 255 247 l 255 247 q 218 247 184 227 q 150 206 116 168 l 116 168 l 104 267 q 132 296 179 322 q 226 347 289 347 l 289 347 q 347 347 387 326 q 427 304 448 266 q 469 227 469 174 l 469 174 q 469 116 445 75 q 421 33 377 11 q 332 -12 268 -12 z"},"േ":{"ha":654,"x_min":34,"x_max":617,"o":"m 396 -12 l 396 -12 q 321 -12 256 5 q 190 22 140 59 q 90 95 62 151 q 34 207 34 285 l 34 285 q 34 360 63 415 q 92 470 143 505 q 193 540 259 557 q 324 574 398 574 l 398 574 q 478 574 526 554 q 574 534 596 501 q 617 467 617 426 l 617 426 q 617 381 596 351 q 575 320 537 304 q 499 288 449 288 l 449 288 q 386 288 350 307 q 313 326 298 357 q 282 388 282 423 l 282 423 q 282 444 288 462 q 293 479 299 491 l 299 491 l 433 510 q 414 498 404 478 q 394 457 394 432 l 394 432 q 394 408 405 393 q 416 377 443 377 l 443 377 q 469 377 481 390 q 492 403 492 422 l 492 422 q 492 450 472 463 q 451 475 419 475 l 419 475 q 402 475 387 475 q 372 475 361 473 l 361 473 q 303 473 263 449 q 222 425 201 383 q 179 340 179 284 l 179 284 q 179 228 200 184 q 220 140 260 115 q 300 90 357 89 l 357 89 q 368 88 382 88 q 396 87 411 87 l 411 87 q 435 87 452 93 q 468 99 477 111 q 486 122 486 141 l 486 141 q 486 161 476 174 q 465 187 442 187 l 442 187 q 414 187 401 171 q 388 154 388 130 l 388 130 q 388 106 398 86 q 408 66 427 54 l 427 54 l 293 73 q 287 84 282 102 q 276 120 276 143 l 276 143 q 276 177 292 208 q 307 238 344 257 q 381 276 446 276 l 446 276 q 495 276 532 260 q 569 244 590 213 q 611 182 611 135 l 611 135 q 611 95 588 62 q 565 28 518 8 q 470 -12 396 -12 z"},"ൈ":{"ha":1578,"x_min":37,"x_max":1541,"o":"m 268 -12 l 268 -12 q 207 -12 155 15 q 102 41 70 97 q 37 153 37 243 l 37 243 q 37 317 64 378 q 90 438 140 482 q 190 526 261 550 q 331 574 419 574 l 419 574 q 503 574 566 552 q 628 529 670 489 q 711 449 732 396 q 752 342 752 280 l 752 280 q 752 213 732 161 q 712 108 677 67 q 642 25 596 -12 l 596 -12 l 500 64 q 530 94 553 125 q 576 155 589 192 q 602 229 602 279 l 602 279 q 602 335 580 378 q 558 420 514 444 q 470 467 404 467 l 404 467 q 334 467 282 437 q 229 406 201 355 q 172 303 172 239 l 172 239 q 172 182 184 149 q 196 116 217 102 q 237 88 262 88 l 262 88 q 283 88 298 97 q 312 106 320 124 q 327 141 327 166 l 327 166 q 327 204 310 226 q 292 247 255 247 l 255 247 q 218 247 184 227 q 150 206 116 168 l 116 168 l 104 267 q 132 296 179 322 q 226 347 289 347 l 289 347 q 347 347 387 326 q 427 304 448 266 q 469 227 469 174 l 469 174 q 469 116 445 75 q 421 33 377 11 q 332 -12 268 -12 z m 1057 -12 l 1057 -12 q 996 -12 944 15 q 891 41 859 97 q 826 153 826 243 l 826 243 q 826 317 853 378 q 879 438 929 482 q 979 526 1050 550 q 1120 574 1208 574 l 1208 574 q 1292 574 1355 552 q 1417 529 1459 489 q 1500 449 1521 396 q 1541 342 1541 280 l 1541 280 q 1541 213 1521 161 q 1501 108 1466 67 q 1431 25 1385 -12 l 1385 -12 l 1289 64 q 1319 94 1342 125 q 1365 155 1378 192 q 1391 229 1391 279 l 1391 279 q 1391 335 1369 378 q 1347 420 1303 444 q 1259 467 1193 467 l 1193 467 q 1123 467 1071 437 q 1018 406 990 355 q 961 303 961 239 l 961 239 q 961 182 973 149 q 985 116 1006 102 q 1026 88 1051 88 l 1051 88 q 1072 88 1087 97 q 1101 106 1109 124 q 1116 141 1116 166 l 1116 166 q 1116 204 1099 226 q 1081 247 1044 247 l 1044 247 q 1007 247 973 227 q 939 206 905 168 l 905 168 l 893 267 q 921 296 968 322 q 1015 347 1078 347 l 1078 347 q 1136 347 1176 326 q 1216 304 1237 266 q 1258 227 1258 174 l 1258 174 q 1258 116 1234 75 q 1210 33 1166 11 q 1121 -12 1057 -12 z"},"ൊ":{"ha":1571,"x_min":37,"x_max":1531,"o":"m 268 -12 l 268 -12 q 207 -12 155 15 q 102 41 70 97 q 37 153 37 243 l 37 243 q 37 317 64 378 q 90 438 140 482 q 190 526 261 550 q 331 574 419 574 l 419 574 q 503 574 566 552 q 628 529 670 489 q 711 449 732 396 q 752 342 752 280 l 752 280 q 752 213 732 161 q 712 108 677 67 q 642 25 596 -12 l 596 -12 l 500 64 q 530 94 553 125 q 576 155 589 192 q 602 229 602 279 l 602 279 q 602 335 580 378 q 558 420 514 444 q 470 467 404 467 l 404 467 q 334 467 282 437 q 229 406 201 355 q 172 303 172 239 l 172 239 q 172 182 184 149 q 196 116 217 102 q 237 88 262 88 l 262 88 q 283 88 298 97 q 312 106 320 124 q 327 141 327 166 l 327 166 q 327 204 310 226 q 292 247 255 247 l 255 247 q 218 247 184 227 q 150 206 116 168 l 116 168 l 104 267 q 132 296 179 322 q 226 347 289 347 l 289 347 q 347 347 387 326 q 427 304 448 266 q 469 227 469 174 l 469 174 q 469 116 445 75 q 421 33 377 11 q 332 -12 268 -12 z m 900 213 l 900 213 q 864 213 839 233 q 814 252 814 296 l 814 296 q 814 342 839 361 q 864 379 900 379 l 900 379 q 936 379 961 361 q 985 342 985 296 l 985 296 q 985 252 961 233 q 936 213 900 213 z m 1531 283 l 1531 283 q 1531 224 1519 171 q 1506 118 1476 77 q 1446 35 1395 12 q 1344 -12 1266 -12 l 1266 -12 q 1200 -12 1155 6 q 1110 24 1082 53 q 1053 81 1038 116 q 1022 150 1014 183 l 1014 183 l 1164 208 q 1171 183 1182 156 q 1192 129 1213 111 q 1233 92 1268 92 l 1268 92 q 1308 92 1333 116 q 1357 140 1368 183 q 1379 225 1379 281 l 1379 281 q 1379 337 1368 380 q 1357 422 1333 446 q 1309 470 1271 470 l 1271 470 q 1239 470 1218 453 q 1197 435 1185 409 q 1173 383 1167 355 l 1167 355 l 1017 381 q 1028 415 1046 449 q 1064 483 1094 512 q 1123 540 1168 557 q 1213 574 1277 574 l 1277 574 q 1350 574 1399 551 q 1448 527 1477 487 q 1506 446 1519 394 q 1531 341 1531 283 z"},"ോ":{"ha":1417,"x_min":34,"x_max":1377,"o":"m 396 -12 l 396 -12 q 321 -12 256 5 q 190 22 140 59 q 90 95 62 151 q 34 207 34 285 l 34 285 q 34 360 63 415 q 92 470 143 505 q 193 540 259 557 q 324 574 398 574 l 398 574 q 478 574 526 554 q 574 534 596 501 q 617 467 617 426 l 617 426 q 617 381 596 351 q 575 320 537 304 q 499 288 449 288 l 449 288 q 386 288 350 307 q 313 326 298 357 q 282 388 282 423 l 282 423 q 282 444 288 462 q 293 479 299 491 l 299 491 l 433 510 q 414 498 404 478 q 394 457 394 432 l 394 432 q 394 408 405 393 q 416 377 443 377 l 443 377 q 469 377 481 390 q 492 403 492 422 l 492 422 q 492 450 472 463 q 451 475 419 475 l 419 475 q 402 475 387 475 q 372 475 361 473 l 361 473 q 303 473 263 449 q 222 425 201 383 q 179 340 179 284 l 179 284 q 179 228 200 184 q 220 140 260 115 q 300 90 357 89 l 357 89 q 368 88 382 88 q 396 87 411 87 l 411 87 q 435 87 452 93 q 468 99 477 111 q 486 122 486 141 l 486 141 q 486 161 476 174 q 465 187 442 187 l 442 187 q 414 187 401 171 q 388 154 388 130 l 388 130 q 388 106 398 86 q 408 66 427 54 l 427 54 l 293 73 q 287 84 282 102 q 276 120 276 143 l 276 143 q 276 177 292 208 q 307 238 344 257 q 381 276 446 276 l 446 276 q 495 276 532 260 q 569 244 590 213 q 611 182 611 135 l 611 135 q 611 95 588 62 q 565 28 518 8 q 470 -12 396 -12 z m 746 213 l 746 213 q 710 213 685 233 q 660 252 660 296 l 660 296 q 660 342 685 361 q 710 379 746 379 l 746 379 q 782 379 807 361 q 831 342 831 296 l 831 296 q 831 252 807 233 q 782 213 746 213 z m 1377 283 l 1377 283 q 1377 224 1365 171 q 1352 118 1322 77 q 1292 35 1241 12 q 1190 -12 1112 -12 l 1112 -12 q 1046 -12 1001 6 q 956 24 928 53 q 899 81 884 116 q 868 150 860 183 l 860 183 l 1010 208 q 1017 183 1028 156 q 1038 129 1059 111 q 1079 92 1114 92 l 1114 92 q 1154 92 1179 116 q 1203 140 1214 183 q 1225 225 1225 281 l 1225 281 q 1225 337 1214 380 q 1203 422 1179 446 q 1155 470 1117 470 l 1117 470 q 1085 470 1064 453 q 1043 435 1031 409 q 1019 383 1013 355 l 1013 355 l 863 381 q 874 415 892 449 q 910 483 940 512 q 969 540 1014 557 q 1059 574 1123 574 l 1123 574 q 1196 574 1245 551 q 1294 527 1323 487 q 1352 446 1365 394 q 1377 341 1377 283 z"},"ൌ":{"ha":1842,"x_min":37,"x_max":1806,"o":"m 268 -12 l 268 -12 q 207 -12 155 15 q 102 41 70 97 q 37 153 37 243 l 37 243 q 37 317 64 378 q 90 438 140 482 q 190 526 261 550 q 331 574 419 574 l 419 574 q 503 574 566 552 q 628 529 670 489 q 711 449 732 396 q 752 342 752 280 l 752 280 q 752 213 732 161 q 712 108 677 67 q 642 25 596 -12 l 596 -12 l 500 64 q 530 94 553 125 q 576 155 589 192 q 602 229 602 279 l 602 279 q 602 335 580 378 q 558 420 514 444 q 470 467 404 467 l 404 467 q 334 467 282 437 q 229 406 201 355 q 172 303 172 239 l 172 239 q 172 182 184 149 q 196 116 217 102 q 237 88 262 88 l 262 88 q 283 88 298 97 q 312 106 320 124 q 327 141 327 166 l 327 166 q 327 204 310 226 q 292 247 255 247 l 255 247 q 218 247 184 227 q 150 206 116 168 l 116 168 l 104 267 q 132 296 179 322 q 226 347 289 347 l 289 347 q 347 347 387 326 q 427 304 448 266 q 469 227 469 174 l 469 174 q 469 116 445 75 q 421 33 377 11 q 332 -12 268 -12 z m 900 213 l 900 213 q 864 213 839 233 q 814 252 814 296 l 814 296 q 814 342 839 361 q 864 379 900 379 l 900 379 q 936 379 961 361 q 985 342 985 296 l 985 296 q 985 252 961 233 q 936 213 900 213 z m 1575 574 l 1575 574 q 1648 574 1700 541 q 1751 507 1779 448 q 1806 388 1806 309 l 1806 309 q 1806 208 1770 136 q 1734 64 1665 26 q 1595 -12 1492 -12 l 1492 -12 q 1413 -12 1354 2 q 1294 16 1241 44 l 1241 44 l 1295 144 q 1342 120 1384 108 q 1425 95 1480 95 l 1480 95 q 1546 95 1585 122 q 1624 148 1641 195 q 1657 242 1657 305 l 1657 305 q 1657 390 1631 430 q 1605 469 1564 469 l 1564 469 q 1542 469 1528 461 q 1514 452 1506 437 l 1506 437 q 1499 424 1497 407 q 1494 389 1494 355 l 1494 355 l 1494 262 l 1348 262 l 1348 333 q 1348 376 1345 401 q 1342 425 1334 438 l 1334 438 q 1324 455 1309 462 q 1293 469 1276 469 l 1276 469 q 1233 469 1213 441 q 1192 413 1192 380 l 1192 380 q 1192 349 1197 328 q 1201 306 1207 289 l 1207 289 l 1065 258 q 1055 286 1050 320 q 1045 354 1045 379 l 1045 379 q 1045 431 1068 475 q 1091 519 1139 547 q 1186 574 1260 574 l 1260 574 q 1319 574 1359 557 q 1398 539 1425 509 l 1425 509 l 1413 511 q 1444 545 1484 560 q 1524 574 1575 574 z"},"്":{"ha":0,"x_min":-327,"x_max":94,"o":"m -117 596 l -117 596 q -190 596 -236 617 q -283 638 -305 676 q -327 713 -327 762 l -327 762 q -327 782 -324 800 q -321 818 -315 831 l -315 831 l -186 809 q -189 800 -190 789 q -192 778 -192 769 l -192 769 q -192 740 -182 724 q -172 708 -154 702 q -137 695 -115 695 l -115 695 q -92 695 -74 702 q -57 708 -46 724 q -36 740 -36 769 l -36 769 q -36 778 -37 789 q -39 800 -41 809 l -41 809 l 83 831 q 88 818 91 800 q 94 782 94 762 l 94 762 q 94 713 72 676 q 50 638 4 617 q -43 596 -117 596 z"},"ൎ":{"ha":0,"x_min":-351,"x_max":-190,"o":"m -351 829 l -190 829 l -200 637 l -342 637 l -351 829 z"},"൏":{"ha":1353,"x_min":41,"x_max":1316,"o":"m 636 574 l 636 574 q 726 574 787 549 q 847 523 895 473 l 895 473 l 858 494 q 893 535 941 555 q 989 574 1051 574 l 1051 574 q 1139 574 1198 533 q 1257 491 1287 415 q 1316 339 1316 237 l 1316 237 q 1316 81 1249 -26 q 1182 -134 1041 -189 q 899 -245 675 -245 l 675 -245 q 522 -245 413 -219 q 304 -194 232 -148 q 159 -103 118 -42 q 76 18 59 89 q 41 159 41 234 l 41 234 q 41 311 63 392 q 84 472 124 550 l 124 550 l 243 500 q 209 434 195 366 q 180 298 180 233 l 180 233 q 180 173 192 119 q 203 64 233 19 q 263 -27 319 -61 q 374 -95 462 -113 q 549 -132 675 -132 l 675 -132 q 822 -132 918 -105 q 1013 -79 1068 -30 q 1122 19 1145 89 q 1167 158 1167 244 l 1167 244 q 1167 314 1151 364 q 1135 414 1107 441 q 1078 468 1040 468 l 1040 468 q 1011 468 993 459 q 975 449 964 435 l 964 435 q 950 417 945 391 q 940 364 940 321 l 940 321 l 940 0 l 793 0 l 793 268 q 793 345 781 380 q 769 415 748 433 l 748 433 q 729 450 703 459 q 677 468 633 468 l 633 468 q 569 468 519 443 q 468 417 439 366 q 409 315 409 240 l 409 240 l 409 237 q 409 181 421 149 q 433 116 454 102 q 474 88 499 88 l 499 88 q 520 88 535 97 q 549 106 557 124 q 564 141 564 167 l 564 167 q 564 205 547 226 q 529 247 492 247 l 492 247 q 455 247 421 227 q 387 206 353 168 l 353 168 l 341 267 q 369 296 418 322 q 466 347 528 347 l 528 347 q 585 347 625 326 q 664 304 685 266 q 706 227 706 174 l 706 174 q 706 116 682 75 q 658 33 613 11 q 568 -12 504 -12 l 504 -12 q 444 -12 392 14 q 339 40 307 96 q 274 152 274 242 l 274 242 q 274 350 322 424 q 370 498 453 536 q 535 574 636 574 z"},"ൔ":{"ha":707,"x_min":56,"x_max":689,"o":"m 215 800 l 215 800 q 256 800 286 789 q 316 778 332 761 l 332 761 q 356 737 366 705 q 375 672 375 625 l 375 625 l 375 524 q 375 482 380 444 q 385 406 406 369 q 427 331 473 289 l 473 289 l 499 263 q 533 229 580 189 q 627 148 689 98 l 689 98 l 640 0 l 56 0 l 56 257 q 56 315 66 360 q 75 404 95 439 q 114 473 145 498 l 145 498 q 186 532 244 553 q 302 573 369 573 l 369 573 q 435 573 487 550 q 539 527 570 483 q 600 438 600 374 l 600 374 q 600 319 574 276 q 547 232 510 197 l 510 197 l 481 177 q 458 158 433 139 q 408 119 381 101 q 354 83 325 66 l 325 66 l 342 100 q 371 102 396 104 q 420 105 431 105 l 431 105 l 460 105 q 471 105 488 105 q 505 104 523 103 q 540 102 554 99 l 554 99 l 559 62 q 518 94 484 123 q 449 152 420 178 l 420 178 l 386 211 q 326 264 295 315 q 263 365 252 416 q 241 467 241 522 l 241 522 l 241 610 q 241 641 236 656 q 231 671 223 679 l 223 679 q 216 687 204 691 q 191 695 173 695 l 173 695 q 154 695 137 692 q 120 689 109 686 l 109 686 l 83 782 q 107 790 141 795 q 174 800 215 800 z m 203 273 l 203 68 l 163 75 q 214 110 258 143 q 302 176 338 208 q 374 240 399 272 l 399 272 l 428 296 q 442 319 450 338 q 458 356 458 384 l 458 384 q 458 416 443 436 q 428 455 403 464 q 378 473 346 473 l 346 473 q 301 473 273 455 q 244 436 229 408 l 229 408 q 221 393 215 373 q 209 353 206 329 q 203 304 203 273 l 203 273 z"},"ൕ":{"ha":1143,"x_min":37,"x_max":1105,"o":"m 753 -12 l 753 -12 q 705 -12 670 -8 q 635 -4 605 5 q 575 14 540 29 l 540 29 q 534 32 524 36 q 513 40 507 44 l 507 44 q 444 81 407 129 q 369 176 353 229 q 336 281 336 333 l 336 333 q 336 370 343 399 q 349 427 360 450 l 360 450 l 370 458 q 392 503 427 529 q 461 554 502 564 q 543 574 583 574 l 583 574 q 697 574 762 515 q 826 455 826 333 l 826 333 q 826 271 806 219 q 785 167 749 126 q 712 84 664 54 l 664 54 q 654 47 647 43 q 639 39 627 34 l 627 34 q 581 11 528 0 q 475 -12 412 -12 l 412 -12 q 320 -12 250 13 q 180 37 133 83 q 85 128 61 192 q 37 255 37 333 l 37 333 q 37 404 65 459 q 93 513 150 544 q 206 574 290 574 l 290 574 q 355 574 410 550 q 464 526 498 472 l 498 472 l 381 409 q 363 439 341 454 q 318 469 289 469 l 289 469 q 255 469 232 452 q 209 435 197 405 q 185 374 185 332 l 185 332 q 185 260 214 206 q 242 151 295 121 q 348 90 421 90 l 421 90 q 447 90 469 93 q 491 96 510 100 l 510 100 q 521 103 531 104 q 541 105 550 109 l 550 109 q 583 124 612 156 q 641 187 659 232 q 677 277 677 333 l 677 333 q 677 384 663 414 q 649 443 628 456 q 606 469 582 469 l 582 469 q 553 469 531 455 q 508 440 496 410 q 484 379 484 332 l 484 332 q 484 279 500 235 q 516 190 545 158 q 574 125 612 106 l 612 106 q 622 102 628 104 q 634 105 644 102 l 644 102 q 660 97 686 94 q 712 90 756 90 l 756 90 q 823 90 868 112 q 912 134 934 172 q 956 210 956 259 l 956 259 q 956 293 947 324 q 937 354 916 389 q 895 424 862 468 l 862 468 q 835 505 816 536 q 796 567 786 597 q 775 626 775 660 l 775 660 q 775 694 791 726 q 806 758 843 779 q 880 800 944 800 l 944 800 q 992 800 1024 795 q 1055 789 1072 784 l 1072 784 l 1046 684 q 1033 689 1017 692 q 1000 695 978 695 l 978 695 q 949 695 935 684 q 921 672 921 649 l 921 649 q 921 632 927 617 q 933 601 949 579 q 964 557 992 520 l 992 520 q 1026 476 1052 435 q 1077 393 1091 351 q 1105 309 1105 261 l 1105 261 q 1105 223 1095 184 q 1084 145 1061 110 q 1037 75 997 48 q 956 20 896 4 q 836 -12 753 -12 z"},"ൖ":{"ha":814,"x_min":34,"x_max":781,"o":"m 277 177 l 277 177 q 277 150 287 132 q 297 113 318 104 q 339 94 370 94 l 370 94 q 414 94 431 110 q 448 126 448 155 l 448 155 q 448 182 436 208 q 424 233 409 262 q 393 290 381 325 q 369 359 369 402 l 369 402 q 369 451 393 490 q 417 529 462 552 q 506 574 565 574 l 565 574 q 644 574 692 548 q 739 521 760 479 q 781 437 781 392 l 781 392 q 781 325 746 271 q 711 217 640 186 q 568 154 457 154 l 457 154 l 408 154 q 363 154 321 160 q 279 166 238 180 l 238 180 l 194 186 q 145 205 109 236 q 73 267 54 310 q 34 352 34 403 l 34 403 q 34 444 49 488 q 63 532 94 575 l 94 575 l 210 518 q 196 489 189 463 q 181 437 181 405 l 181 405 q 181 375 190 348 q 199 320 211 303 l 211 303 l 263 281 q 291 267 330 259 q 369 250 403 250 l 403 250 l 456 250 q 518 250 558 269 q 597 288 616 322 q 635 355 635 396 l 635 396 q 635 426 620 451 q 605 475 566 475 l 566 475 q 545 475 530 466 q 515 456 508 440 q 500 423 500 402 l 500 402 q 500 367 514 336 q 527 304 544 273 q 561 242 575 209 q 588 175 588 136 l 588 136 q 588 108 579 82 q 569 55 546 34 q 522 13 480 1 q 437 -12 370 -12 l 370 -12 q 303 -12 253 8 q 202 27 174 69 q 145 110 145 175 l 145 175 q 145 219 162 268 q 178 316 203 366 q 228 415 253 461 l 253 461 q 279 507 295 538 q 310 568 317 592 q 324 616 324 639 l 324 639 q 324 665 309 680 q 293 695 256 695 l 256 695 q 238 695 221 692 q 203 689 192 686 l 192 686 l 166 782 q 190 790 228 795 q 266 800 306 800 l 306 800 q 373 800 409 778 q 444 756 457 725 q 470 693 470 665 l 470 665 q 470 638 465 612 q 459 586 446 557 q 433 527 411 489 q 389 450 357 396 l 357 396 q 330 350 314 318 q 297 285 290 261 q 282 237 280 218 q 277 198 277 177 z"},"ൗ":{"ha":828,"x_min":31,"x_max":792,"o":"m 561 574 l 561 574 q 634 574 686 541 q 737 507 765 448 q 792 388 792 309 l 792 309 q 792 208 756 136 q 720 64 651 26 q 581 -12 478 -12 l 478 -12 q 399 -12 340 2 q 280 16 227 44 l 227 44 l 281 144 q 328 120 370 108 q 411 95 466 95 l 466 95 q 532 95 571 122 q 610 148 627 195 q 643 242 643 305 l 643 305 q 643 390 617 430 q 591 469 550 469 l 550 469 q 528 469 514 461 q 500 452 492 437 l 492 437 q 485 424 483 407 q 480 389 480 355 l 480 355 l 480 262 l 334 262 l 334 333 q 334 376 331 401 q 328 425 320 438 l 320 438 q 310 455 295 462 q 279 469 262 469 l 262 469 q 219 469 199 441 q 178 413 178 380 l 178 380 q 178 349 183 328 q 187 306 193 289 l 193 289 l 51 258 q 41 286 36 320 q 31 354 31 379 l 31 379 q 31 431 54 475 q 77 519 125 547 q 172 574 246 574 l 246 574 q 305 574 345 557 q 384 539 411 509 l 411 509 l 399 511 q 430 545 470 560 q 510 574 561 574 z"},"൘":{"ha":1338,"x_min":37,"x_max":1299,"o":"m 659 -12 l 659 -12 q 602 -12 558 8 q 514 27 476 67 l 476 67 l 489 64 q 451 26 412 7 q 372 -12 307 -12 l 307 -12 q 222 -12 162 25 q 101 61 69 124 q 37 187 37 267 l 37 267 q 37 331 54 384 q 70 437 102 484 q 133 530 178 574 l 178 574 l 282 498 q 247 460 226 423 q 205 385 196 347 q 186 309 186 268 l 186 268 q 186 207 205 169 q 224 130 254 112 q 283 94 314 94 l 314 94 q 341 94 359 103 q 376 112 386 126 l 386 126 q 398 144 403 169 q 408 193 408 238 l 408 238 l 408 562 l 555 562 l 555 260 q 555 202 562 174 q 569 145 584 126 l 584 126 q 598 111 618 103 q 637 94 659 94 l 659 94 q 685 94 703 102 q 721 110 733 123 l 733 123 q 749 142 756 171 q 762 200 762 250 l 762 250 l 762 562 l 909 562 l 909 259 l 837 65 q 803 27 762 8 q 721 -12 659 -12 z m 1023 -12 l 1023 -12 q 958 -12 913 7 q 868 25 828 66 l 828 66 l 772 250 l 772 552 l 909 552 l 909 259 q 909 202 914 175 q 918 147 933 127 l 933 127 q 946 111 965 103 q 984 94 1012 94 l 1012 94 q 1051 94 1082 118 q 1113 142 1131 193 q 1149 243 1149 322 l 1149 322 q 1149 390 1136 452 q 1123 514 1093 567 q 1062 619 1011 658 q 959 696 883 717 q 806 738 700 738 l 700 738 q 624 738 556 729 q 487 719 439 708 l 439 708 l 420 818 q 469 829 512 836 q 555 843 600 846 q 645 849 700 849 l 700 849 q 837 849 938 821 q 1039 793 1108 743 q 1177 693 1219 627 q 1261 561 1280 485 q 1299 408 1299 327 l 1299 327 q 1299 217 1266 142 q 1233 66 1171 27 q 1109 -12 1023 -12 z"},"൙":{"ha":1247,"x_min":37,"x_max":1228,"o":"m 395 574 l 395 574 q 493 574 566 548 q 638 522 686 476 q 734 429 758 368 q 782 307 782 236 l 782 236 q 782 150 753 95 q 724 40 670 14 q 615 -12 540 -12 l 540 -12 q 462 -12 416 13 q 370 38 350 78 q 329 117 329 161 l 329 161 q 329 211 350 248 q 370 284 404 306 l 404 306 q 427 321 456 330 q 484 339 524 343 q 564 347 621 347 l 621 347 l 903 347 l 903 242 l 628 242 q 576 242 549 238 q 522 234 502 221 l 502 221 q 489 212 481 199 q 473 185 473 163 l 473 163 q 473 135 490 114 q 507 93 547 93 l 547 93 q 575 93 596 109 q 616 124 627 156 q 638 188 638 239 l 638 239 q 638 253 637 271 q 636 288 634 298 l 634 298 l 627 329 q 620 366 593 398 q 566 429 521 448 q 475 467 410 467 l 410 467 q 334 467 285 444 q 235 421 211 379 q 187 337 187 281 l 187 281 q 187 235 199 198 q 210 161 233 129 q 256 97 289 64 l 289 64 l 191 -12 q 147 25 112 68 q 77 110 57 163 q 37 215 37 281 l 37 281 q 37 338 57 391 q 77 443 120 485 q 162 526 231 550 q 299 574 395 574 z m 1031 562 l 1031 562 q 1101 562 1144 540 q 1187 518 1208 483 q 1228 447 1228 406 l 1228 406 q 1228 361 1212 331 q 1195 301 1167 281 l 1167 281 q 1147 267 1122 258 q 1096 249 1062 246 q 1027 242 979 242 l 979 242 l 727 242 l 727 347 l 980 347 q 1015 347 1033 350 q 1051 352 1061 356 l 1061 356 q 1077 363 1085 374 q 1093 384 1093 406 l 1093 406 q 1093 429 1078 444 q 1062 459 1033 459 l 1033 459 q 1000 459 983 441 q 966 422 966 390 l 966 390 q 966 360 977 339 q 988 318 1007 298 l 1007 298 l 874 293 q 858 313 847 345 q 836 376 836 405 l 836 405 q 836 457 861 492 q 886 527 931 545 q 975 562 1031 562 z"},"൚":{"ha":1176,"x_min":37,"x_max":1120,"o":"m 759 574 l 759 574 q 852 574 919 554 q 985 534 1029 499 l 1029 499 q 1061 473 1081 440 q 1101 406 1111 361 q 1120 316 1120 255 l 1120 255 l 1120 0 l 566 0 l 566 100 q 618 147 659 196 q 699 244 723 294 q 746 343 746 392 l 746 392 q 746 413 741 430 q 736 447 723 458 q 709 468 685 468 l 685 468 q 655 468 632 452 q 608 435 593 408 l 593 408 q 580 383 575 350 q 570 317 570 279 l 570 279 l 570 230 l 423 230 l 423 323 q 423 368 418 393 q 413 418 400 436 l 400 436 q 390 450 372 459 q 353 468 323 468 l 323 468 q 289 468 258 450 q 226 432 206 394 q 186 355 186 294 l 186 294 q 186 253 196 215 q 205 177 226 140 q 247 103 282 64 l 282 64 l 178 -12 q 133 32 102 79 q 70 125 54 179 q 37 232 37 295 l 37 295 q 37 375 70 438 q 102 501 165 538 q 227 574 317 574 l 317 574 q 366 574 403 563 q 439 552 468 532 q 496 512 521 485 l 521 485 l 490 477 q 520 508 560 530 q 600 551 650 563 q 699 574 759 574 z m 891 370 l 891 370 q 891 322 872 276 q 852 230 818 185 q 783 140 737 94 l 737 94 l 711 100 q 736 103 763 104 q 789 105 802 105 l 802 105 l 973 105 l 973 254 q 973 318 961 360 q 949 401 923 429 q 896 456 851 475 l 851 475 l 855 479 q 867 463 879 437 q 891 410 891 370 z"},"൛":{"ha":1059,"x_min":63,"x_max":1022,"o":"m 686 -12 l 686 -12 q 597 -12 535 12 q 472 36 433 77 q 393 118 375 169 q 356 219 356 272 l 356 272 q 356 335 372 381 q 388 426 416 463 q 444 500 479 540 l 479 540 l 452 457 l 210 457 l 210 0 l 63 0 l 63 562 l 552 562 l 601 492 q 574 465 553 436 q 531 406 518 370 q 505 333 505 283 l 505 283 q 505 227 528 185 q 551 142 592 119 q 632 95 685 95 l 685 95 q 741 95 783 118 q 824 141 847 183 q 870 225 870 281 l 870 281 q 870 328 859 365 q 847 401 825 434 q 802 466 768 498 l 768 498 l 868 574 q 913 538 948 496 q 982 453 1002 401 q 1022 348 1022 281 l 1022 281 q 1022 227 1003 175 q 984 123 944 81 q 903 38 839 13 q 775 -12 686 -12 z"},"൜":{"ha":1668,"x_min":37,"x_max":1631,"o":"m 1007 574 l 1007 574 q 1073 574 1121 557 q 1168 539 1197 507 l 1197 507 q 1217 485 1230 456 q 1243 426 1250 389 q 1256 352 1256 307 l 1256 307 l 1256 271 q 1256 217 1261 186 q 1265 154 1278 134 l 1278 134 q 1290 115 1311 105 q 1331 95 1362 95 l 1362 95 q 1396 95 1423 113 q 1450 131 1466 170 q 1482 208 1482 271 l 1482 271 q 1482 312 1473 350 q 1463 387 1443 424 q 1422 461 1387 499 l 1387 499 l 1489 575 q 1535 532 1567 485 q 1598 438 1615 384 q 1631 330 1631 264 l 1631 264 q 1631 180 1597 118 q 1563 56 1501 22 q 1439 -12 1355 -12 l 1355 -12 q 1290 -12 1243 6 q 1195 23 1165 55 l 1165 55 q 1144 79 1131 110 q 1118 140 1112 178 q 1106 216 1106 260 l 1106 260 l 1106 287 q 1106 347 1101 378 q 1096 408 1085 428 l 1085 428 q 1074 448 1055 458 q 1036 467 1008 467 l 1008 467 q 980 467 961 458 q 941 448 930 428 l 930 428 q 919 408 914 378 q 909 348 909 290 l 909 290 l 909 255 q 909 210 903 173 q 896 136 883 107 q 870 78 850 55 l 850 55 q 821 23 775 6 q 728 -12 660 -12 l 660 -12 q 593 -12 547 6 q 500 23 471 55 l 471 55 q 451 78 438 107 q 425 136 419 173 q 412 210 412 255 l 412 255 l 412 291 q 412 345 408 377 q 403 408 390 428 l 390 428 q 378 448 358 458 q 338 467 306 467 l 306 467 q 273 467 246 450 q 218 432 202 393 q 186 354 186 291 l 186 291 q 186 251 196 213 q 205 175 226 139 q 247 102 281 63 l 281 63 l 179 -13 q 134 31 102 78 q 70 124 54 178 q 37 232 37 298 l 37 298 q 37 382 71 444 q 105 506 167 540 q 229 574 313 574 l 313 574 q 378 574 426 557 q 473 539 503 507 l 503 507 q 525 484 538 453 q 550 422 556 385 q 562 347 562 302 l 562 302 l 562 275 q 562 215 567 185 q 572 154 583 134 l 583 134 q 594 115 613 105 q 632 95 660 95 l 660 95 q 689 95 708 105 q 727 115 738 134 l 738 134 q 749 154 754 184 q 759 214 759 272 l 759 272 l 759 308 q 759 353 766 390 q 772 426 785 456 q 798 485 818 507 l 818 507 q 847 539 894 557 q 940 574 1007 574 z"},"൝":{"ha":2189,"x_min":8,"x_max":2152,"o":"m 834 574 l 834 574 q 900 574 948 557 q 995 539 1024 507 l 1024 507 q 1044 485 1057 456 q 1070 426 1077 389 q 1083 352 1083 307 l 1083 307 l 1083 275 q 1083 215 1088 185 q 1093 154 1104 134 l 1104 134 q 1115 115 1134 105 q 1153 95 1181 95 l 1181 95 q 1210 95 1229 105 q 1248 115 1259 134 l 1259 134 q 1270 154 1275 184 q 1280 214 1280 272 l 1280 272 l 1280 308 q 1280 353 1287 390 q 1293 426 1306 456 q 1319 485 1339 507 l 1339 507 q 1368 539 1415 557 q 1461 574 1528 574 l 1528 574 q 1594 574 1642 557 q 1689 539 1718 507 l 1718 507 q 1738 485 1751 456 q 1764 426 1771 389 q 1777 352 1777 307 l 1777 307 l 1777 271 q 1777 217 1782 186 q 1786 154 1799 134 l 1799 134 q 1811 115 1832 105 q 1852 95 1883 95 l 1883 95 q 1917 95 1944 113 q 1971 131 1987 170 q 2003 208 2003 271 l 2003 271 q 2003 312 1994 350 q 1984 387 1964 424 q 1943 461 1908 499 l 1908 499 l 2010 575 q 2056 532 2088 485 q 2119 438 2136 384 q 2152 330 2152 264 l 2152 264 q 2152 180 2118 118 q 2084 56 2022 22 q 1960 -12 1876 -12 l 1876 -12 q 1811 -12 1764 6 q 1716 23 1686 55 l 1686 55 q 1665 79 1652 110 q 1639 140 1633 178 q 1627 216 1627 260 l 1627 260 l 1627 287 q 1627 347 1622 378 q 1617 408 1606 428 l 1606 428 q 1595 448 1576 458 q 1557 467 1529 467 l 1529 467 q 1501 467 1482 458 q 1462 448 1451 428 l 1451 428 q 1440 408 1435 378 q 1430 348 1430 290 l 1430 290 l 1430 255 q 1430 210 1424 173 q 1417 136 1404 107 q 1391 78 1371 55 l 1371 55 q 1342 23 1296 6 q 1249 -12 1181 -12 l 1181 -12 q 1114 -12 1068 6 q 1021 23 992 55 l 992 55 q 972 78 959 107 q 946 136 940 173 q 933 210 933 255 l 933 255 l 933 291 q 933 351 928 380 q 923 408 912 428 l 912 428 q 901 448 882 458 q 863 467 835 467 l 835 467 q 807 467 788 458 q 768 448 757 428 l 757 428 q 746 408 741 378 q 736 348 736 290 l 736 290 l 736 255 q 736 182 721 135 q 705 87 673 54 l 673 54 q 641 21 598 5 q 555 -12 495 -12 l 495 -12 q 424 -12 382 10 q 340 31 304 66 l 304 66 l 315 66 q 289 39 261 22 q 232 4 201 -4 q 169 -12 132 -12 l 132 -12 q 95 -12 67 -4 q 38 3 8 19 l 8 19 l 46 119 q 64 109 85 102 q 106 94 134 94 l 134 94 q 154 94 175 103 q 196 111 209 128 l 209 128 q 224 148 228 175 q 232 202 232 259 l 232 259 l 232 556 l 379 562 l 379 251 q 379 201 386 172 q 393 143 409 124 l 409 124 q 420 111 440 103 q 460 95 483 95 l 483 95 q 512 95 532 105 q 552 114 564 133 l 564 133 q 577 153 582 183 q 586 213 586 275 l 586 275 l 586 308 q 586 353 593 390 q 599 426 612 456 q 625 485 645 507 l 645 507 q 674 539 721 557 q 767 574 834 574 z"},"൞":{"ha":1520,"x_min":37,"x_max":1493,"o":"m 395 574 l 395 574 q 493 574 566 548 q 638 522 686 476 q 734 429 758 368 q 782 307 782 236 l 782 236 q 782 150 753 95 q 724 40 670 14 q 615 -12 540 -12 l 540 -12 q 462 -12 416 13 q 370 38 350 78 q 329 117 329 161 l 329 161 q 329 211 350 248 q 370 284 404 306 l 404 306 q 427 321 456 330 q 484 339 524 343 q 564 347 621 347 l 621 347 l 703 347 l 703 242 l 628 242 q 576 242 549 238 q 522 234 502 221 l 502 221 q 489 212 481 199 q 473 185 473 163 l 473 163 q 473 135 490 114 q 507 93 547 93 l 547 93 q 575 93 596 109 q 616 124 627 156 q 638 188 638 239 l 638 239 q 638 253 637 271 q 636 288 634 298 l 634 298 l 627 329 q 620 366 593 398 q 566 429 521 448 q 475 467 410 467 l 410 467 q 334 467 285 444 q 235 421 211 379 q 187 337 187 281 l 187 281 q 187 235 199 198 q 210 161 233 129 q 256 97 289 64 l 289 64 l 191 -12 q 147 25 112 68 q 77 110 57 163 q 37 215 37 281 l 37 281 q 37 338 57 391 q 77 443 120 485 q 162 526 231 550 q 299 574 395 574 z m 1257 200 l 1257 200 q 1177 200 1125 229 q 1073 257 1049 301 q 1024 345 1024 391 l 1024 391 q 1024 423 1033 449 q 1041 474 1052 493 l 1052 493 l 1062 457 l 870 457 l 924 496 q 938 480 948 455 q 957 430 957 400 l 957 400 q 957 345 930 310 q 903 275 854 259 q 805 242 740 242 l 740 242 l 691 242 l 691 347 l 737 347 q 770 347 791 353 q 812 358 822 372 q 832 385 832 407 l 832 407 q 832 421 827 437 q 821 452 812 464 l 812 464 l 848 562 l 1149 562 l 1201 504 q 1189 488 1178 462 q 1167 436 1167 401 l 1167 401 q 1167 361 1189 333 q 1211 304 1256 304 l 1256 304 q 1287 304 1307 317 q 1327 329 1337 351 q 1347 373 1347 400 l 1347 400 q 1347 441 1333 468 q 1319 495 1302 518 l 1302 518 l 1416 574 q 1453 534 1473 491 q 1493 447 1493 392 l 1493 392 q 1493 334 1463 291 q 1433 248 1380 224 q 1327 200 1257 200 z"},"ൟ":{"ha":1482,"x_min":28,"x_max":1454,"o":"m 28 270 l 28 270 q 28 328 70 367 q 112 406 181 406 l 181 406 q 251 406 293 368 q 335 329 335 270 l 335 270 q 335 212 294 173 q 252 134 181 134 l 181 134 q 111 134 70 173 q 28 212 28 270 z m 128 271 l 128 271 q 128 249 142 234 q 155 219 181 219 l 181 219 q 208 219 222 234 q 235 249 235 271 l 235 271 q 235 293 221 307 q 207 321 181 321 l 181 321 q 156 321 142 307 q 128 293 128 271 z m 1147 270 l 1147 270 q 1147 328 1189 367 q 1231 406 1300 406 l 1300 406 q 1370 406 1412 368 q 1454 329 1454 270 l 1454 270 q 1454 212 1413 173 q 1371 134 1300 134 l 1300 134 q 1230 134 1189 173 q 1147 212 1147 270 z m 1247 271 l 1247 271 q 1247 249 1261 234 q 1274 219 1300 219 l 1300 219 q 1327 219 1341 234 q 1354 249 1354 271 l 1354 271 q 1354 293 1340 307 q 1326 321 1300 321 l 1300 321 q 1275 321 1261 307 q 1247 293 1247 271 z m 727 574 l 727 574 q 825 574 898 548 q 970 522 1018 476 q 1066 429 1090 368 q 1114 306 1114 236 l 1114 236 q 1114 151 1085 96 q 1056 41 1002 15 q 947 -12 872 -12 l 872 -12 q 794 -12 746 18 q 697 48 675 98 q 652 147 652 206 l 652 206 q 652 297 704 354 q 755 410 852 410 l 852 410 q 912 410 958 380 q 1003 350 1030 303 q 1057 256 1060 204 l 1060 204 l 1005 207 q 999 232 984 256 q 968 279 944 295 q 920 310 888 310 l 888 310 q 839 310 817 281 q 795 252 795 202 l 795 202 q 795 170 804 145 q 813 120 832 107 q 850 93 879 93 l 879 93 q 908 93 928 109 q 948 124 959 156 q 970 188 970 239 l 970 239 q 970 253 969 272 q 967 290 964 307 l 964 307 q 963 312 963 319 q 963 325 961 329 l 961 329 q 954 366 927 398 q 899 429 853 448 q 807 467 742 467 l 742 467 q 666 467 617 444 q 567 421 543 379 q 519 337 519 281 l 519 281 q 519 235 531 198 q 542 161 565 129 q 588 97 621 64 l 621 64 l 523 -12 q 479 25 444 68 q 409 110 389 163 q 369 215 369 281 l 369 281 q 369 338 389 391 q 409 443 452 485 q 494 526 563 550 q 631 574 727 574 z"},"ൠ":{"ha":1010,"x_min":34,"x_max":976,"o":"m 744 574 l 744 574 q 851 574 914 516 q 976 457 976 341 l 976 341 q 976 270 945 214 q 913 158 857 122 l 857 122 q 817 96 765 81 q 713 66 657 62 l 657 62 l 584 81 l 415 78 l 344 63 q 291 68 248 81 q 205 93 167 115 l 167 115 q 104 151 69 209 q 34 267 34 341 l 34 341 q 34 415 64 467 q 93 519 147 547 q 200 574 272 574 l 272 574 q 341 574 387 550 q 432 526 455 486 q 477 445 477 397 l 477 397 q 477 342 454 304 q 430 265 386 246 q 341 226 279 226 l 279 226 q 232 226 193 243 q 153 259 124 282 q 95 304 78 322 l 78 322 l 111 427 q 128 402 147 378 q 165 354 191 338 q 217 322 253 322 l 253 322 q 289 322 312 341 q 335 360 335 400 l 335 400 q 335 435 315 455 q 294 474 262 474 l 262 474 q 233 474 213 460 q 192 445 181 419 q 170 393 170 357 l 170 357 q 170 338 173 321 q 176 304 180 290 l 180 290 l 171 275 q 185 240 217 219 q 248 197 290 186 q 332 175 378 171 q 423 167 465 167 l 465 167 l 546 167 q 584 167 629 170 q 674 173 718 184 q 761 194 794 216 q 827 238 841 275 l 841 275 l 832 289 q 836 303 839 320 q 841 336 841 355 l 841 355 q 841 392 830 419 q 819 445 799 460 q 779 474 750 474 l 750 474 q 717 474 697 455 q 677 435 677 400 l 677 400 q 677 360 700 341 q 722 322 758 322 l 758 322 q 795 322 821 338 q 846 354 865 378 q 884 402 900 427 l 900 427 l 933 322 q 917 304 888 282 q 858 259 819 243 q 780 226 732 226 l 732 226 q 670 226 626 246 q 582 265 559 304 q 535 342 535 397 l 535 397 q 535 445 559 486 q 582 526 629 550 q 675 574 744 574 z m 510 -249 l 510 -249 q 376 -249 287 -228 q 197 -208 153 -162 q 108 -117 108 -43 l 108 -43 q 108 6 134 40 q 160 73 206 93 q 252 113 312 122 q 371 131 438 131 l 438 131 l 568 131 q 639 131 700 122 q 761 113 807 93 q 852 73 878 39 q 903 5 903 -45 l 903 -45 q 903 -108 864 -154 q 825 -200 739 -224 q 652 -249 510 -249 z m 508 -146 l 508 -146 q 602 -146 657 -134 q 712 -123 736 -99 q 760 -75 760 -40 l 760 -40 q 760 -5 740 16 q 719 37 684 48 q 649 59 607 63 q 564 67 519 67 l 519 67 l 494 67 q 428 67 373 59 q 317 50 284 27 q 251 4 251 -39 l 251 -39 q 251 -77 276 -100 q 300 -124 357 -135 q 413 -146 508 -146 z m 591 41 l 591 41 q 627 41 650 28 q 672 15 683 -4 q 694 -24 698 -45 q 702 -67 702 -84 l 702 -84 l 702 -111 l 611 -111 l 611 -96 q 611 -76 607 -63 q 602 -50 582 -50 l 582 -50 q 561 -50 556 -63 q 551 -77 551 -95 l 551 -95 l 551 -111 l 460 -111 l 460 -95 q 460 -75 455 -62 q 449 -50 430 -50 l 430 -50 q 409 -50 405 -64 q 400 -79 400 -96 l 400 -96 l 400 -111 l 309 -111 l 309 -84 q 309 -67 313 -45 q 317 -24 328 -4 q 339 15 362 28 q 384 41 420 41 l 420 41 q 452 41 471 30 q 490 19 505 2 l 505 2 q 522 21 543 31 q 563 41 591 41 z"},"ൡ":{"ha":1472,"x_min":37,"x_max":1445,"o":"m 399 574 l 399 574 q 489 574 550 549 q 610 523 658 473 l 658 473 l 672 395 l 703 225 l 703 0 l 556 0 l 556 269 q 556 346 544 381 q 532 415 511 433 l 511 433 q 492 450 466 459 q 440 468 396 468 l 396 468 q 332 468 282 443 q 231 417 202 366 q 172 315 172 240 l 172 240 l 172 237 q 172 181 184 149 q 196 116 217 102 q 237 88 262 88 l 262 88 q 283 88 298 97 q 312 106 320 124 q 327 141 327 167 l 327 167 q 327 205 310 226 q 292 247 255 247 l 255 247 q 218 247 184 227 q 150 206 116 168 l 116 168 l 104 267 q 132 296 181 322 q 229 347 291 347 l 291 347 q 348 347 388 326 q 428 304 449 266 q 469 227 469 174 l 469 174 q 469 116 445 75 q 421 33 376 11 q 331 -12 267 -12 l 267 -12 q 207 -12 155 14 q 102 40 70 96 q 37 152 37 242 l 37 242 q 37 350 85 424 q 133 498 216 536 q 298 574 399 574 z m 885 574 l 885 574 q 977 574 1048 544 q 1118 514 1163 462 q 1207 409 1222 341 l 1222 341 q 1229 315 1232 287 q 1235 259 1235 229 l 1235 229 q 1235 146 1208 93 q 1180 39 1127 14 q 1074 -12 998 -12 l 998 -12 q 926 -12 878 14 q 830 40 806 84 q 782 127 782 182 l 782 182 q 782 286 858 344 q 934 401 1070 401 l 1070 401 q 1096 401 1114 401 q 1131 400 1145 398 l 1145 398 l 1181 394 q 1265 381 1324 340 q 1383 298 1414 237 q 1445 175 1445 100 l 1445 100 q 1445 39 1426 -15 q 1407 -70 1366 -111 q 1325 -153 1260 -177 q 1195 -201 1104 -201 l 1104 -201 q 1053 -201 1007 -194 q 961 -187 923 -174 l 923 -174 l 964 -72 q 996 -83 1027 -88 q 1057 -93 1099 -93 l 1099 -93 q 1160 -93 1200 -76 q 1239 -59 1262 -31 q 1285 -3 1295 32 q 1304 66 1304 100 l 1304 100 q 1304 149 1291 184 q 1277 219 1253 244 q 1228 269 1195 284 l 1195 284 l 1157 291 q 1141 296 1121 298 q 1101 300 1080 300 l 1080 300 q 1027 300 993 285 q 958 270 942 243 q 925 216 925 179 l 925 179 q 925 154 934 134 q 942 114 960 103 q 977 91 1004 91 l 1004 91 q 1050 91 1073 124 q 1096 156 1096 230 l 1096 230 q 1096 265 1090 297 q 1084 329 1073 355 l 1073 355 l 1065 378 q 1048 407 1021 427 q 994 447 959 457 q 923 467 878 467 l 878 467 q 844 467 816 460 q 788 453 762 433 l 762 433 q 744 419 731 398 q 717 376 710 340 q 703 303 703 242 l 703 242 l 703 211 l 616 470 q 644 499 681 523 q 717 546 767 560 q 817 574 885 574 z"},"ൢ":{"ha":0,"x_min":-933,"x_max":-33,"o":"m -670 29 l -670 29 q -612 29 -557 12 q -503 -5 -471 -53 l -471 -53 l -423 -157 l -423 -333 l -543 -333 l -543 -196 q -543 -150 -551 -124 q -559 -98 -579 -82 l -579 -82 q -594 -70 -618 -63 q -642 -57 -678 -57 l -678 -57 q -706 -57 -735 -63 q -764 -70 -787 -85 q -810 -100 -820 -128 l -820 -128 q -824 -141 -825 -152 q -826 -164 -826 -184 l -826 -184 q -826 -227 -806 -241 q -787 -256 -768 -256 l -768 -256 q -745 -256 -730 -245 q -716 -234 -716 -210 l -716 -210 q -716 -187 -730 -175 q -744 -164 -772 -164 l -772 -164 q -803 -164 -828 -181 q -854 -198 -880 -221 l -880 -221 l -902 -154 q -868 -125 -827 -104 q -787 -84 -745 -84 l -745 -84 q -674 -84 -641 -117 q -609 -151 -609 -204 l -609 -204 q -609 -265 -647 -301 q -685 -337 -765 -337 l -765 -337 q -843 -337 -888 -293 q -933 -249 -933 -173 l -933 -173 q -933 -108 -896 -63 q -859 -18 -799 6 q -739 29 -670 29 z m -297 29 l -297 29 q -228 29 -168 6 q -108 -18 -70 -63 q -33 -108 -33 -173 l -33 -173 q -33 -262 -78 -299 q -123 -337 -202 -337 l -202 -337 q -254 -337 -288 -317 q -322 -298 -338 -266 q -354 -235 -354 -199 l -354 -199 q -354 -161 -338 -131 q -323 -101 -291 -84 q -260 -67 -213 -67 l -213 -67 q -182 -67 -154 -84 q -126 -101 -103 -132 q -80 -163 -66 -206 l -66 -206 l -115 -204 q -121 -180 -140 -160 q -159 -140 -188 -140 l -188 -140 q -218 -140 -232 -155 q -246 -170 -246 -197 l -246 -197 q -246 -224 -233 -240 q -221 -256 -195 -256 l -195 -256 q -170 -256 -155 -235 q -141 -214 -141 -168 l -141 -168 q -141 -161 -141 -153 q -142 -145 -144 -138 l -144 -138 l -156 -108 q -169 -88 -192 -77 q -215 -66 -240 -61 q -266 -57 -289 -57 l -289 -57 q -324 -57 -348 -63 q -372 -69 -387 -81 l -387 -81 q -407 -97 -415 -123 q -423 -150 -423 -196 l -423 -196 l -523 -151 q -522 -82 -489 -43 q -456 -4 -404 13 q -353 29 -297 29 z"},"ൣ":{"ha":0,"x_min":-933,"x_max":107,"o":"m -670 29 l -670 29 q -612 29 -557 12 q -503 -5 -471 -53 l -471 -53 l -423 -157 l -423 -333 l -543 -333 l -543 -196 q -543 -150 -551 -124 q -559 -98 -579 -82 l -579 -82 q -594 -70 -618 -63 q -642 -57 -678 -57 l -678 -57 q -706 -57 -735 -63 q -764 -70 -787 -85 q -810 -100 -820 -128 l -820 -128 q -824 -141 -825 -152 q -826 -164 -826 -184 l -826 -184 q -826 -227 -806 -241 q -787 -256 -768 -256 l -768 -256 q -745 -256 -730 -245 q -716 -234 -716 -210 l -716 -210 q -716 -187 -730 -175 q -744 -164 -772 -164 l -772 -164 q -803 -164 -828 -181 q -854 -198 -880 -221 l -880 -221 l -902 -154 q -868 -125 -827 -104 q -787 -84 -745 -84 l -745 -84 q -674 -84 -641 -117 q -609 -151 -609 -204 l -609 -204 q -609 -265 -647 -301 q -685 -337 -765 -337 l -765 -337 q -843 -337 -888 -293 q -933 -249 -933 -173 l -933 -173 q -933 -108 -896 -63 q -859 -18 -799 6 q -739 29 -670 29 z m -297 29 l -297 29 q -228 29 -168 6 q -109 -18 -72 -63 q -36 -108 -36 -173 l -36 -173 q -36 -228 -55 -264 q -75 -301 -111 -319 q -148 -337 -200 -337 l -200 -337 q -257 -337 -291 -318 q -325 -299 -339 -269 q -354 -239 -354 -207 l -354 -207 q -354 -141 -303 -101 q -253 -61 -148 -61 l -148 -61 q -134 -61 -120 -61 q -106 -62 -91 -64 l -91 -64 q -42 -67 4 -87 q 49 -108 78 -150 q 107 -192 107 -263 l 107 -263 q 107 -292 100 -315 q 93 -338 83 -353 l 83 -353 l -16 -322 q -10 -311 -7 -293 q -4 -275 -4 -259 l -4 -259 q -4 -221 -18 -190 q -33 -159 -77 -145 l -77 -145 l -100 -143 q -112 -141 -124 -139 q -136 -138 -150 -138 l -150 -138 q -192 -138 -219 -155 q -246 -172 -246 -207 l -246 -207 q -246 -226 -233 -241 q -221 -256 -195 -256 l -195 -256 q -170 -256 -155 -235 q -141 -214 -141 -168 l -141 -168 q -141 -161 -142 -150 q -143 -140 -146 -130 l -146 -130 l -156 -108 q -169 -88 -192 -77 q -215 -66 -240 -61 q -266 -57 -289 -57 l -289 -57 q -324 -57 -348 -63 q -372 -69 -387 -81 l -387 -81 q -407 -97 -415 -123 q -423 -150 -423 -196 l -423 -196 l -523 -151 q -523 -100 -503 -65 q -484 -30 -451 -9 q -419 11 -379 20 q -339 29 -297 29 z"},"൦":{"ha":620,"x_min":38,"x_max":582,"o":"m 311 37 l 311 37 q 228 37 167 67 q 105 97 72 152 q 38 207 38 282 l 38 282 q 38 357 73 412 q 107 467 168 498 q 229 528 310 528 l 310 528 q 397 528 458 497 q 518 466 550 411 q 582 355 582 282 l 582 282 q 582 209 548 154 q 514 98 454 68 q 393 37 311 37 z m 311 141 l 311 141 q 346 141 374 157 q 402 172 419 204 q 435 236 435 283 l 435 283 q 435 352 399 388 q 363 424 310 424 l 310 424 q 258 424 222 389 q 185 353 185 282 l 185 282 q 185 212 221 177 q 256 141 311 141 z"},"൧":{"ha":982,"x_min":12,"x_max":924,"o":"m 419 -94 l 419 -201 l 262 -201 q 192 -201 148 -192 q 103 -183 75 -166 l 75 -166 q 44 -146 28 -117 q 12 -88 12 -51 l 12 -51 q 12 -13 28 19 q 44 50 78 71 l 78 71 q 95 82 118 90 q 140 97 173 101 q 205 105 251 105 l 251 105 l 478 105 l 495 0 l 264 0 q 224 0 208 -1 q 192 -3 182 -8 l 182 -8 q 169 -14 164 -23 q 159 -33 159 -46 l 159 -46 q 159 -69 178 -81 l 178 -81 q 189 -88 209 -91 q 228 -94 270 -94 l 270 -94 l 419 -94 z m 641 574 l 641 574 q 710 574 763 556 q 815 538 850 505 l 850 505 q 889 470 907 420 q 924 369 924 286 l 924 286 l 924 0 l 359 0 l 359 277 q 359 339 367 381 q 375 423 392 452 q 408 481 433 505 l 433 505 q 468 537 521 556 q 573 574 641 574 z m 643 469 l 643 469 q 609 469 585 460 q 561 450 544 433 l 544 433 q 527 414 517 382 q 506 350 506 282 l 506 282 l 506 105 l 777 105 l 777 271 q 777 345 767 380 q 757 414 740 433 l 740 433 q 724 450 700 460 q 675 469 643 469 z"},"൨":{"ha":931,"x_min":37,"x_max":912,"o":"m 373 574 l 373 574 q 462 574 525 550 q 587 526 627 485 q 666 444 685 394 q 703 343 703 290 l 703 290 q 703 227 687 182 q 671 136 643 99 q 615 62 580 22 l 580 22 l 607 105 l 912 105 l 912 0 l 507 0 l 458 70 q 485 97 507 127 q 529 156 542 193 q 554 230 554 279 l 554 279 q 554 335 531 378 q 508 420 468 444 q 427 467 374 467 l 374 467 q 318 467 277 444 q 235 421 212 379 q 189 337 189 281 l 189 281 q 189 235 201 198 q 212 161 235 129 q 257 97 291 64 l 291 64 l 191 -12 q 147 25 112 68 q 77 110 57 163 q 37 215 37 281 l 37 281 q 37 335 56 387 q 75 439 116 482 q 156 524 220 549 q 284 574 373 574 z"},"൩":{"ha":1185,"x_min":37,"x_max":1165,"o":"m 315 574 l 315 574 q 362 574 394 566 q 425 557 451 541 q 476 524 503 498 l 503 498 l 490 498 q 528 537 574 556 q 620 574 686 574 l 686 574 q 772 574 832 538 q 892 502 924 440 q 956 378 956 299 l 956 299 q 956 242 945 198 q 933 154 907 113 q 880 71 836 22 l 836 22 l 819 0 l 757 0 l 713 61 q 749 103 770 140 q 790 177 799 213 q 807 249 807 289 l 807 289 q 807 351 789 391 q 770 430 739 449 q 708 468 670 468 l 670 468 q 641 468 623 459 q 605 449 594 435 l 594 435 q 581 417 576 391 q 570 364 570 322 l 570 322 l 570 0 l 423 0 l 423 324 q 423 369 418 394 q 413 418 400 436 l 400 436 q 390 450 372 459 q 353 468 323 468 l 323 468 q 289 468 258 450 q 226 432 206 394 q 186 355 186 294 l 186 294 q 186 253 196 215 q 205 177 226 140 q 247 103 282 64 l 282 64 l 178 -12 q 133 32 102 79 q 70 125 54 179 q 37 232 37 295 l 37 295 q 37 375 70 438 q 102 501 164 538 q 226 574 315 574 z m 798 0 l 856 105 l 1165 105 l 1165 0 l 798 0 z"},"൪":{"ha":867,"x_min":37,"x_max":862,"o":"m 396 574 l 396 574 q 486 574 553 552 q 620 529 675 482 l 675 482 q 733 434 762 369 q 790 303 790 233 l 790 233 q 790 156 763 101 q 735 46 680 17 q 625 -12 543 -12 l 543 -12 q 468 -12 416 16 q 363 43 336 89 q 308 135 308 191 l 308 191 q 308 260 340 309 q 371 357 431 399 q 491 440 576 487 l 576 487 q 631 518 661 538 q 691 558 703 578 q 715 598 715 626 l 715 626 q 715 638 711 654 q 706 670 696 683 l 696 683 l 828 744 q 843 720 853 690 q 862 660 862 627 l 862 627 q 862 575 839 539 q 816 502 769 471 q 721 439 647 400 l 647 400 q 590 369 547 339 q 504 309 480 274 q 455 238 455 189 l 455 189 q 455 143 478 118 q 501 93 541 93 l 541 93 q 575 93 597 108 q 619 122 630 151 q 640 180 640 225 l 640 225 q 640 285 613 345 q 586 405 528 440 l 528 440 q 503 456 472 464 q 441 471 400 471 l 400 471 q 331 471 284 448 q 236 425 212 383 q 187 340 187 281 l 187 281 q 187 235 199 198 q 210 161 233 129 q 256 97 289 64 l 289 64 l 191 -12 q 147 25 112 68 q 77 110 57 163 q 37 215 37 281 l 37 281 q 37 339 58 392 q 78 444 121 485 q 164 526 232 550 q 300 574 396 574 z"},"൫":{"ha":1095,"x_min":42,"x_max":1053,"o":"m 553 730 l 553 730 q 680 730 774 697 q 868 664 930 603 q 992 542 1023 460 q 1053 377 1053 278 l 1053 278 q 1053 211 1035 136 q 1016 61 974 -12 l 974 -12 l 856 42 q 874 79 886 115 q 897 151 903 189 q 909 227 909 269 l 909 269 q 909 344 888 408 q 867 472 824 520 q 781 568 714 595 q 647 622 555 622 l 555 622 q 442 622 359 581 q 276 539 231 458 q 186 377 186 259 l 186 259 q 186 194 201 135 q 216 76 249 30 q 282 -16 336 -42 q 390 -69 469 -69 l 469 -69 q 576 -69 623 -32 q 670 5 670 69 l 670 69 q 670 105 658 134 q 645 162 617 179 q 588 196 540 196 l 540 196 l 527 196 l 527 298 l 547 298 q 582 298 602 302 q 622 305 636 315 l 636 315 q 647 323 654 336 q 660 349 660 368 l 660 368 q 660 400 638 418 q 616 436 570 436 l 570 436 q 523 436 492 413 q 461 389 447 350 q 432 310 432 262 l 432 262 q 432 202 448 154 q 464 105 498 55 l 498 55 l 376 -10 q 333 55 309 124 q 284 193 284 271 l 284 271 q 284 353 319 414 q 354 475 420 509 q 485 543 576 543 l 576 543 q 652 543 703 521 q 754 499 781 461 q 807 423 807 374 l 807 374 q 807 348 797 324 q 787 299 767 279 q 747 259 715 244 l 715 244 l 700 255 q 754 229 786 180 q 817 131 817 63 l 817 63 q 817 -16 777 -69 q 736 -123 659 -150 q 581 -177 471 -177 l 471 -177 q 339 -177 243 -126 q 146 -76 94 20 q 42 115 42 251 l 42 251 q 42 374 83 465 q 123 555 194 614 q 264 672 357 701 q 449 730 553 730 z"},"൬":{"ha":1338,"x_min":37,"x_max":1299,"o":"m 659 574 l 659 574 q 721 574 762 555 q 803 535 837 497 l 837 497 l 909 303 l 909 0 l 762 0 l 762 312 q 762 362 756 391 q 749 420 733 439 l 733 439 q 721 453 703 461 q 685 468 659 468 l 659 468 q 637 468 618 460 q 598 451 584 436 l 584 436 q 569 417 562 389 q 555 361 555 302 l 555 302 l 555 0 l 408 0 l 408 324 q 408 369 403 394 q 398 418 386 436 l 386 436 q 376 450 359 459 q 341 468 314 468 l 314 468 q 283 468 254 450 q 224 432 205 394 q 186 355 186 294 l 186 294 q 186 253 196 215 q 205 177 226 140 q 247 103 282 64 l 282 64 l 178 -12 q 133 32 102 79 q 70 125 54 179 q 37 232 37 295 l 37 295 q 37 375 69 438 q 101 501 162 538 q 222 574 307 574 l 307 574 q 372 574 412 555 q 451 536 489 498 l 489 498 l 476 495 q 514 536 558 555 q 602 574 659 574 z m 1023 574 l 1023 574 q 1152 574 1226 486 q 1299 398 1299 226 l 1299 226 q 1299 92 1260 -3 q 1220 -99 1134 -150 q 1047 -201 904 -201 l 904 -201 q 872 -201 840 -199 q 807 -197 775 -191 l 775 -191 l 785 -84 q 806 -89 832 -91 q 857 -93 885 -93 l 885 -93 q 966 -93 1018 -68 q 1070 -44 1099 0 q 1127 44 1138 102 q 1149 160 1149 227 l 1149 227 q 1149 311 1131 364 q 1113 417 1082 443 q 1051 468 1012 468 l 1012 468 q 984 468 965 460 q 946 452 933 435 l 933 435 q 918 416 914 388 q 909 360 909 303 l 909 303 l 909 10 l 772 10 l 772 312 l 828 496 q 868 537 913 556 q 958 574 1023 574 z"},"൭":{"ha":814,"x_min":37,"x_max":775,"o":"m 419 574 l 419 574 q 510 574 577 548 q 644 521 688 473 q 732 424 754 357 q 775 289 775 206 l 775 206 q 775 116 751 41 q 726 -34 676 -88 q 626 -142 550 -171 q 474 -201 371 -201 l 371 -201 q 339 -201 306 -199 q 273 -197 241 -191 l 241 -191 l 251 -84 q 272 -89 298 -91 q 324 -93 353 -93 l 353 -93 q 431 -93 483 -69 q 535 -46 567 -4 q 598 37 612 92 q 625 146 625 207 l 625 207 q 625 337 567 402 q 508 467 404 467 l 404 467 q 334 467 282 438 q 229 408 201 357 q 172 306 172 241 l 172 241 l 172 237 q 172 181 184 148 q 196 115 217 102 q 237 88 262 88 l 262 88 q 283 88 298 97 q 312 106 320 124 q 327 141 327 166 l 327 166 q 327 204 310 226 q 292 247 255 247 l 255 247 q 218 247 184 227 q 150 206 116 168 l 116 168 l 104 267 q 132 296 179 322 q 226 347 289 347 l 289 347 q 347 347 387 326 q 427 304 448 266 q 469 227 469 174 l 469 174 q 469 116 445 75 q 421 33 377 11 q 332 -12 268 -12 l 268 -12 q 207 -12 155 15 q 102 41 70 97 q 37 153 37 243 l 37 243 q 37 343 85 417 q 132 491 218 533 q 304 574 419 574 z"},"൮":{"ha":1049,"x_min":37,"x_max":986,"o":"m 373 574 l 373 574 q 462 574 525 550 q 587 526 627 485 q 666 444 685 394 q 703 343 703 290 l 703 290 q 703 227 687 182 q 671 136 643 99 q 615 62 580 22 l 580 22 l 607 105 l 838 105 l 838 562 l 986 562 l 986 188 l 902 0 l 507 0 l 458 70 q 485 97 507 127 q 529 156 542 193 q 554 230 554 279 l 554 279 q 554 335 531 378 q 508 420 468 444 q 427 467 374 467 l 374 467 q 318 467 277 444 q 235 421 212 379 q 189 337 189 281 l 189 281 q 189 235 201 198 q 212 161 235 129 q 257 97 291 64 l 291 64 l 191 -12 q 147 25 112 68 q 77 110 57 163 q 37 215 37 281 l 37 281 q 37 335 56 387 q 75 439 116 482 q 156 524 220 549 q 284 574 373 574 z m 630 -201 l 630 -201 q 601 -201 568 -198 q 535 -196 506 -190 l 506 -190 l 521 -84 q 540 -89 565 -91 q 589 -93 611 -93 l 611 -93 q 679 -93 723 -80 q 766 -67 791 -45 q 815 -23 826 5 q 836 32 837 60 l 837 60 l 986 266 l 986 144 q 986 71 977 22 q 968 -28 950 -61 q 931 -94 902 -121 l 902 -121 q 859 -160 792 -180 q 724 -201 630 -201 z"},"൯":{"ha":1228,"x_min":37,"x_max":1222,"o":"m 315 574 l 315 574 q 362 574 395 566 q 428 557 456 540 q 484 522 514 495 l 514 495 l 570 232 l 570 0 l 423 0 l 423 324 q 423 368 418 393 q 413 418 400 436 l 400 436 q 390 450 372 459 q 353 468 323 468 l 323 468 q 289 468 258 450 q 226 432 206 394 q 186 355 186 294 l 186 294 q 186 253 196 215 q 205 177 226 140 q 247 103 282 64 l 282 64 l 178 -12 q 133 32 102 79 q 70 125 54 179 q 37 232 37 295 l 37 295 q 37 375 70 438 q 102 501 164 538 q 226 574 315 574 z m 758 574 l 758 574 q 847 574 914 552 q 980 529 1035 482 l 1035 482 q 1093 434 1122 369 q 1150 303 1150 233 l 1150 233 q 1150 156 1123 101 q 1095 46 1041 17 q 986 -12 904 -12 l 904 -12 q 828 -12 776 16 q 723 43 696 89 q 668 135 668 191 l 668 191 q 668 260 700 309 q 731 357 791 399 q 851 440 936 487 l 936 487 q 991 518 1021 538 q 1051 558 1063 578 q 1075 598 1075 626 l 1075 626 q 1075 638 1071 654 q 1066 670 1056 683 l 1056 683 l 1188 744 q 1203 720 1213 690 q 1222 660 1222 627 l 1222 627 q 1222 575 1199 539 q 1176 502 1129 471 q 1082 439 1008 400 l 1008 400 q 951 369 908 339 q 864 309 840 274 q 815 238 815 189 l 815 189 q 815 143 838 118 q 861 93 901 93 l 901 93 q 936 93 958 108 q 979 122 990 151 q 1000 180 1000 225 l 1000 225 q 1000 285 973 345 q 946 405 888 440 l 888 440 q 863 456 832 464 q 801 471 757 471 l 757 471 q 717 471 687 463 q 656 455 631 436 l 631 436 q 613 422 599 401 q 585 379 578 343 q 570 306 570 247 l 570 247 l 570 20 l 433 20 l 433 304 l 481 468 q 510 499 546 523 q 582 546 633 560 q 684 574 758 574 z"},"൰":{"ha":1137,"x_min":-39,"x_max":1100,"o":"m 209 562 l 356 562 l 356 155 l 353 127 q 353 39 337 -19 q 320 -78 285 -119 l 285 -119 q 250 -159 195 -180 q 140 -201 63 -201 l 63 -201 q 39 -201 12 -198 q -15 -196 -39 -190 l -39 -190 l -26 -84 q -12 -88 5 -90 q 22 -93 41 -93 l 41 -93 q 89 -93 120 -81 q 151 -69 170 -50 l 170 -50 q 190 -28 200 4 q 209 36 209 96 l 209 96 l 209 562 z m 832 -12 l 832 -12 q 768 -12 722 7 q 676 25 636 66 l 636 66 l 651 68 q 611 27 567 8 q 523 -12 464 -12 l 464 -12 q 421 -12 390 -2 q 358 8 334 28 q 309 48 286 77 l 286 77 l 238 258 l 239 562 l 356 562 l 356 251 q 356 201 363 172 q 369 142 385 123 l 385 123 q 397 109 417 102 q 436 94 464 94 l 464 94 q 490 94 510 103 q 529 111 542 126 l 542 126 q 558 145 565 174 q 572 203 572 261 l 572 261 l 572 562 l 719 562 l 719 260 q 719 202 723 175 q 727 148 742 128 l 742 128 q 756 111 777 103 q 797 94 817 94 l 817 94 q 855 94 886 114 q 916 134 934 174 q 951 214 951 273 l 951 273 q 951 313 942 350 q 932 386 911 423 q 890 460 855 498 l 855 498 l 959 574 q 1005 531 1036 484 q 1067 437 1084 383 q 1100 329 1100 263 l 1100 263 q 1100 185 1069 123 q 1037 60 978 24 q 918 -12 832 -12 z"},"൱":{"ha":999,"x_min":37,"x_max":960,"o":"m 315 574 l 315 574 q 362 574 394 566 q 425 557 451 541 q 476 524 503 498 l 503 498 l 570 232 l 570 0 l 423 0 l 423 324 q 423 368 418 393 q 413 418 400 436 l 400 436 q 390 450 372 459 q 353 468 323 468 l 323 468 q 289 468 258 450 q 226 432 206 394 q 186 355 186 294 l 186 294 q 186 253 196 215 q 205 177 226 140 q 247 103 282 64 l 282 64 l 178 -12 q 133 32 102 79 q 70 125 54 179 q 37 232 37 295 l 37 295 q 37 375 70 438 q 102 501 164 538 q 226 574 315 574 z m 684 574 l 684 574 q 770 574 832 535 q 894 495 927 418 q 960 341 960 226 l 960 226 q 960 92 921 -3 q 881 -99 795 -150 q 708 -201 565 -201 l 565 -201 q 533 -201 501 -199 q 468 -197 436 -191 l 436 -191 l 446 -84 q 467 -89 493 -91 q 518 -93 546 -93 l 546 -93 q 627 -93 679 -68 q 731 -44 760 0 q 788 44 799 102 q 810 160 810 227 l 810 227 q 810 311 792 364 q 774 417 743 443 q 712 468 673 468 l 673 468 q 645 468 626 460 q 607 452 594 435 l 594 435 q 579 416 575 388 q 570 360 570 303 l 570 303 l 570 10 l 433 10 l 433 312 l 489 496 q 529 537 574 556 q 619 574 684 574 z"},"൲":{"ha":1552,"x_min":37,"x_max":1533,"o":"m 1336 562 l 1336 562 q 1406 562 1449 540 q 1492 518 1513 483 q 1533 447 1533 406 l 1533 406 q 1533 361 1517 331 q 1500 301 1472 281 l 1472 281 q 1452 267 1427 258 q 1401 249 1367 246 q 1332 242 1284 242 l 1284 242 l 1032 242 l 1032 347 l 1285 347 q 1320 347 1338 350 q 1356 352 1366 356 l 1366 356 q 1382 363 1390 374 q 1398 384 1398 406 l 1398 406 q 1398 429 1383 444 q 1367 459 1338 459 l 1338 459 q 1305 459 1288 441 q 1271 422 1271 390 l 1271 390 q 1271 360 1282 339 q 1293 318 1312 298 l 1312 298 l 1179 293 q 1163 313 1152 345 q 1141 376 1141 405 l 1141 405 q 1141 457 1166 492 q 1191 527 1236 545 q 1280 562 1336 562 z m 315 574 l 315 574 q 362 574 395 566 q 428 557 456 540 q 484 522 514 495 l 514 495 l 570 232 l 570 0 l 423 0 l 423 324 q 423 368 418 393 q 413 418 400 436 l 400 436 q 390 450 372 459 q 353 468 323 468 l 323 468 q 289 468 258 450 q 226 432 206 394 q 186 355 186 294 l 186 294 q 186 253 196 215 q 205 177 226 140 q 247 103 282 64 l 282 64 l 178 -12 q 133 32 102 79 q 70 125 54 179 q 37 232 37 295 l 37 295 q 37 375 70 438 q 102 501 164 538 q 226 574 315 574 z m 737 574 l 737 574 q 809 574 872 552 q 935 530 983 488 q 1031 445 1059 382 q 1086 319 1086 237 l 1086 237 q 1086 151 1057 96 q 1027 40 973 14 q 919 -12 843 -12 l 843 -12 q 766 -12 720 13 q 673 38 653 78 q 633 117 633 161 l 633 161 q 633 211 654 248 q 674 284 708 306 l 708 306 q 731 321 759 330 q 786 339 826 343 q 866 347 925 347 l 925 347 l 1208 347 l 1208 242 l 932 242 q 880 242 853 238 q 826 234 806 221 l 806 221 q 793 212 785 199 q 777 185 777 163 l 777 163 q 777 135 794 114 q 811 93 851 93 l 851 93 q 879 93 900 109 q 920 124 931 156 q 942 188 942 239 l 942 239 q 942 253 941 270 q 940 286 938 299 l 938 299 l 931 333 q 923 368 899 399 q 874 429 834 449 q 793 468 736 468 l 736 468 q 705 468 678 460 q 650 451 627 433 l 627 433 q 608 418 596 397 q 583 375 577 339 q 570 302 570 242 l 570 242 l 570 211 l 484 227 l 479 466 q 504 494 539 519 q 573 543 622 559 q 670 574 737 574 z"},"൳":{"ha":811,"x_min":37,"x_max":789,"o":"m 265 -12 l 265 -12 q 199 -12 148 16 q 96 44 67 97 q 37 149 37 221 l 37 221 q 37 310 70 371 q 103 432 164 469 l 164 469 q 204 493 248 506 q 292 518 349 523 q 405 528 480 528 l 480 528 l 789 528 l 789 419 l 505 419 q 429 419 380 416 q 330 412 298 403 q 265 393 239 376 l 239 376 q 217 362 201 342 q 185 321 176 293 l 176 293 l 176 267 q 174 256 173 244 q 172 231 172 215 l 172 215 q 172 170 184 142 q 196 114 216 101 q 235 88 259 88 l 259 88 q 282 88 297 97 q 312 106 320 124 q 327 141 327 166 l 327 166 q 327 204 310 226 q 292 247 255 247 l 255 247 q 218 247 184 227 q 150 206 116 168 l 116 168 l 104 267 q 132 296 179 322 q 226 347 289 347 l 289 347 q 347 347 387 326 q 427 304 448 266 q 469 227 469 174 l 469 174 q 469 117 446 75 q 422 33 377 11 q 332 -12 265 -12 z"},"൴":{"ha":1026,"x_min":37,"x_max":989,"o":"m 521 789 l 668 789 l 668 238 q 668 200 671 176 q 674 151 680 136 q 686 121 696 111 l 696 111 q 706 101 720 96 q 734 91 753 91 l 753 91 q 781 91 800 104 q 819 117 829 144 q 839 171 839 213 l 839 213 q 839 266 823 309 q 807 351 777 383 q 746 415 702 436 q 657 456 601 464 l 601 464 l 577 464 q 557 466 536 468 q 515 469 493 469 l 493 469 q 427 469 369 456 q 311 442 267 415 q 222 387 197 347 q 172 306 172 252 l 172 252 l 172 237 q 172 181 184 148 q 196 115 217 102 q 237 88 262 88 l 262 88 q 283 88 298 97 q 312 106 320 124 q 327 141 327 167 l 327 167 q 327 205 310 226 q 292 247 255 247 l 255 247 q 218 247 184 227 q 150 206 116 168 l 116 168 l 104 267 q 132 296 179 322 q 226 347 289 347 l 289 347 q 347 347 387 326 q 427 304 448 266 q 469 227 469 174 l 469 174 q 469 116 445 75 q 421 33 377 11 q 332 -12 268 -12 l 268 -12 q 207 -12 155 14 q 102 40 70 96 q 37 151 37 239 l 37 239 q 37 319 70 381 q 102 443 163 486 q 223 529 306 552 q 389 574 490 574 l 490 574 q 516 574 541 574 q 566 573 590 571 l 590 571 l 627 568 q 705 560 771 533 q 837 506 886 462 q 935 417 962 357 q 989 297 989 223 l 989 223 q 989 151 962 98 q 935 45 882 17 q 828 -12 749 -12 l 749 -12 q 699 -12 659 0 q 619 12 591 36 l 591 36 q 568 56 553 83 q 537 110 529 152 q 521 194 521 257 l 521 257 l 521 789 z"},"൵":{"ha":1360,"x_min":37,"x_max":1355,"o":"m 399 574 l 399 574 q 489 574 550 549 q 610 523 658 473 l 658 473 l 673 391 l 703 225 l 703 0 l 556 0 l 556 269 q 556 346 544 381 q 532 415 511 433 l 511 433 q 492 450 466 459 q 440 468 396 468 l 396 468 q 332 468 282 443 q 231 417 202 366 q 172 315 172 240 l 172 240 l 172 237 q 172 181 184 149 q 196 116 217 102 q 237 88 262 88 l 262 88 q 283 88 298 97 q 312 106 320 124 q 327 141 327 167 l 327 167 q 327 205 310 226 q 292 247 255 247 l 255 247 q 218 247 184 227 q 150 206 116 168 l 116 168 l 104 267 q 132 296 181 322 q 229 347 291 347 l 291 347 q 348 347 388 326 q 428 304 449 266 q 469 227 469 174 l 469 174 q 469 116 445 75 q 421 33 376 11 q 331 -12 267 -12 l 267 -12 q 207 -12 155 14 q 102 40 70 96 q 37 152 37 242 l 37 242 q 37 350 85 424 q 133 498 216 536 q 298 574 399 574 z m 891 574 l 891 574 q 980 574 1047 552 q 1113 529 1168 482 l 1168 482 q 1226 434 1255 369 q 1283 303 1283 233 l 1283 233 q 1283 156 1256 101 q 1228 46 1174 17 q 1119 -12 1037 -12 l 1037 -12 q 961 -12 909 16 q 856 43 829 89 q 801 135 801 191 l 801 191 q 801 260 833 309 q 864 357 924 399 q 984 440 1069 487 l 1069 487 q 1124 518 1154 538 q 1184 558 1196 578 q 1208 598 1208 626 l 1208 626 q 1208 638 1204 654 q 1199 670 1189 683 l 1189 683 l 1321 744 q 1336 720 1346 690 q 1355 660 1355 627 l 1355 627 q 1355 575 1332 539 q 1309 502 1262 471 q 1215 439 1141 400 l 1141 400 q 1084 369 1041 339 q 997 309 973 274 q 948 238 948 189 l 948 189 q 948 143 971 118 q 994 93 1034 93 l 1034 93 q 1069 93 1091 108 q 1112 122 1123 151 q 1133 180 1133 225 l 1133 225 q 1133 285 1106 345 q 1079 405 1021 440 l 1021 440 q 996 456 965 464 q 934 471 890 471 l 890 471 q 850 471 820 463 q 789 455 764 436 l 764 436 q 746 422 732 401 q 718 379 711 343 q 703 306 703 247 l 703 247 l 703 20 l 566 20 l 566 304 l 614 468 q 643 499 679 523 q 715 546 766 560 q 817 574 891 574 z"},"൶":{"ha":1483,"x_min":29,"x_max":1427,"o":"m 265 362 l 265 362 q 346 362 398 334 q 449 305 474 262 q 498 218 498 171 l 498 171 q 498 140 489 114 q 479 88 470 69 l 470 69 l 460 105 l 792 105 l 791 0 l 373 0 l 321 58 q 333 75 344 101 q 355 126 355 161 l 355 161 q 355 202 333 230 q 311 258 266 258 l 266 258 q 235 258 215 246 q 195 233 185 211 q 175 189 175 162 l 175 162 q 175 121 190 94 q 204 67 220 44 l 220 44 l 106 -12 q 69 29 49 72 q 29 115 29 170 l 29 170 q 29 228 59 271 q 89 314 142 338 q 195 362 265 362 z m 1066 574 l 1066 574 q 1159 574 1226 554 q 1292 534 1336 499 l 1336 499 q 1368 473 1388 440 q 1408 406 1418 361 q 1427 316 1427 255 l 1427 255 l 1427 0 l 726 0 l 726 257 q 726 315 736 360 q 745 404 765 439 q 784 473 815 498 l 815 498 q 858 534 918 554 q 977 574 1066 574 z m 992 468 l 992 468 q 962 468 939 452 q 915 436 899 408 l 899 408 q 886 385 880 353 q 873 320 873 273 l 873 273 l 873 68 l 837 70 q 897 120 946 173 q 995 226 1024 281 q 1053 336 1053 392 l 1053 392 q 1053 413 1048 430 q 1043 447 1030 458 q 1016 468 992 468 z m 1198 370 l 1198 370 q 1198 322 1179 276 q 1159 230 1125 185 q 1090 140 1044 94 l 1044 94 l 1018 100 q 1043 103 1070 104 q 1096 105 1109 105 l 1109 105 l 1280 105 l 1280 254 q 1280 318 1268 360 q 1256 401 1230 429 q 1203 456 1158 475 l 1158 475 l 1162 479 q 1174 463 1186 437 q 1198 410 1198 370 z"},"൷":{"ha":1910,"x_min":29,"x_max":1891,"o":"m 265 362 l 265 362 q 346 362 398 334 q 449 305 474 262 q 498 218 498 171 l 498 171 q 498 140 489 114 q 479 88 470 69 l 470 69 l 460 105 l 734 105 l 793 0 l 373 0 l 321 58 q 333 75 344 101 q 355 126 355 161 l 355 161 q 355 202 333 230 q 311 258 266 258 l 266 258 q 235 258 215 246 q 195 233 185 211 q 175 189 175 162 l 175 162 q 175 121 190 94 q 204 67 220 44 l 220 44 l 106 -12 q 69 29 49 72 q 29 115 29 170 l 29 170 q 29 228 59 271 q 89 314 142 338 q 195 362 265 362 z m 889 574 l 889 574 q 936 574 969 566 q 1002 557 1030 540 q 1058 522 1088 495 l 1088 495 l 1144 238 l 1144 230 l 997 230 l 997 324 q 997 368 992 393 q 987 418 974 436 l 974 436 q 964 450 946 459 q 927 468 897 468 l 897 468 q 863 468 832 450 q 800 432 780 394 q 760 355 760 294 l 760 294 q 760 233 781 179 q 802 124 852 61 l 852 61 l 808 0 l 713 0 l 676 88 q 655 117 641 150 q 626 182 619 219 q 611 255 611 295 l 611 295 q 611 375 644 438 q 676 501 738 538 q 800 574 889 574 z m 1330 574 l 1330 574 q 1404 574 1469 552 q 1533 530 1582 488 q 1631 445 1659 382 q 1687 319 1687 237 l 1687 237 q 1687 151 1658 96 q 1628 40 1574 14 q 1520 -12 1444 -12 l 1444 -12 q 1367 -12 1321 13 q 1274 38 1254 78 q 1234 117 1234 161 l 1234 161 q 1234 211 1255 248 q 1275 284 1309 306 l 1309 306 q 1332 321 1360 330 q 1388 339 1428 343 q 1467 347 1526 347 l 1526 347 l 1619 347 l 1619 242 l 1533 242 q 1481 242 1454 238 q 1427 234 1407 221 l 1407 221 q 1394 212 1386 199 q 1378 185 1378 163 l 1378 163 q 1378 135 1395 114 q 1412 93 1452 93 l 1452 93 q 1480 93 1501 109 q 1521 124 1532 156 q 1543 188 1543 239 l 1543 239 q 1543 253 1542 270 q 1541 286 1539 299 l 1539 299 l 1532 333 q 1524 367 1499 398 q 1473 429 1430 449 q 1386 468 1323 468 l 1323 468 q 1280 468 1253 461 q 1226 453 1201 433 l 1201 433 q 1184 419 1171 397 q 1158 375 1151 339 q 1144 302 1144 242 l 1144 242 l 1144 233 l 1058 235 l 1057 470 q 1082 498 1118 522 q 1154 545 1207 560 q 1259 574 1330 574 z m 1737 448 l 1879 473 q 1884 460 1888 439 q 1891 418 1891 398 l 1891 398 q 1891 358 1875 329 q 1859 299 1830 280 l 1830 280 q 1798 259 1758 251 q 1718 242 1647 242 l 1647 242 l 1615 242 l 1615 347 l 1639 347 q 1667 347 1686 350 q 1705 352 1717 359 l 1717 359 q 1730 366 1737 380 q 1743 394 1743 413 l 1743 413 q 1743 421 1741 432 q 1739 442 1737 448 l 1737 448 z"},"൸":{"ha":2380,"x_min":8,"x_max":2324,"o":"m 1524 574 l 1524 574 q 1557 574 1586 568 q 1614 562 1639 550 q 1663 538 1685 520 q 1707 501 1726 476 l 1726 476 l 1694 477 q 1724 508 1764 530 q 1803 551 1853 563 q 1903 574 1963 574 l 1963 574 q 2056 574 2123 554 q 2189 534 2233 499 l 2233 499 q 2265 473 2285 440 q 2305 406 2315 361 q 2324 316 2324 255 l 2324 255 l 2324 0 l 1770 0 l 1770 100 q 1822 147 1863 196 q 1903 244 1927 294 q 1950 343 1950 392 l 1950 392 q 1950 413 1945 430 q 1939 447 1926 458 q 1912 468 1887 468 l 1887 468 q 1859 468 1836 454 q 1812 439 1797 411 l 1797 411 q 1784 388 1779 356 q 1774 323 1774 279 l 1774 279 l 1774 230 l 1627 230 l 1627 287 q 1627 347 1622 378 q 1617 408 1606 428 l 1606 428 q 1595 448 1576 458 q 1557 467 1528 467 l 1528 467 q 1500 467 1481 458 q 1462 448 1451 428 l 1451 428 q 1440 408 1435 378 q 1430 348 1430 290 l 1430 290 l 1430 255 q 1430 210 1424 173 q 1417 136 1404 107 q 1391 78 1371 55 l 1371 55 q 1342 23 1296 6 q 1249 -12 1181 -12 l 1181 -12 q 1114 -12 1068 6 q 1021 23 992 55 l 992 55 q 972 78 959 107 q 946 136 940 173 q 933 210 933 255 l 933 255 l 933 291 q 933 351 928 380 q 923 408 912 428 l 912 428 q 901 448 882 458 q 863 467 835 467 l 835 467 q 807 467 788 458 q 768 448 757 428 l 757 428 q 746 408 741 378 q 736 348 736 290 l 736 290 l 736 255 q 736 182 721 135 q 705 87 673 54 l 673 54 q 641 21 598 5 q 555 -12 495 -12 l 495 -12 q 424 -12 382 10 q 340 31 304 66 l 304 66 l 315 66 q 289 39 261 22 q 232 4 201 -4 q 169 -12 132 -12 l 132 -12 q 95 -12 67 -4 q 38 3 8 19 l 8 19 l 46 119 q 64 109 85 102 q 106 94 134 94 l 134 94 q 154 94 175 103 q 196 111 209 128 l 209 128 q 224 148 228 175 q 232 202 232 259 l 232 259 l 232 556 l 379 562 l 379 251 q 379 201 386 172 q 393 143 409 124 l 409 124 q 420 111 440 103 q 460 95 483 95 l 483 95 q 512 95 532 105 q 552 114 564 133 l 564 133 q 577 153 582 183 q 586 213 586 275 l 586 275 l 586 308 q 586 353 593 390 q 599 426 612 456 q 625 485 645 507 l 645 507 q 674 539 721 557 q 767 574 834 574 l 834 574 q 900 574 948 557 q 995 539 1024 507 l 1024 507 q 1044 485 1057 456 q 1070 426 1077 389 q 1083 352 1083 307 l 1083 307 l 1083 275 q 1083 215 1088 185 q 1093 154 1104 134 l 1104 134 q 1115 115 1134 105 q 1153 95 1181 95 l 1181 95 q 1210 95 1229 105 q 1248 115 1259 134 l 1259 134 q 1270 154 1275 184 q 1280 214 1280 272 l 1280 272 l 1280 308 q 1280 353 1287 390 q 1293 426 1306 456 q 1319 485 1339 507 l 1339 507 q 1368 539 1414 557 q 1460 574 1524 574 z m 2095 370 l 2095 370 q 2095 322 2076 276 q 2056 230 2022 185 q 1987 140 1941 94 l 1941 94 l 1915 100 q 1940 103 1967 104 q 1993 105 2006 105 l 2006 105 l 2177 105 l 2177 254 q 2177 318 2165 360 q 2153 401 2127 429 q 2100 456 2055 475 l 2055 475 l 2059 479 q 2071 463 2083 437 q 2095 410 2095 370 z"},"൹":{"ha":1230,"x_min":37,"x_max":1208,"o":"m 315 574 l 315 574 q 362 574 395 566 q 428 557 456 540 q 484 522 514 495 l 514 495 l 570 232 l 570 0 l 423 0 l 423 324 q 423 368 418 393 q 413 418 400 436 l 400 436 q 390 450 372 459 q 353 468 323 468 l 323 468 q 289 468 258 450 q 226 432 206 394 q 186 355 186 294 l 186 294 q 186 253 196 215 q 205 177 226 140 q 247 103 282 64 l 282 64 l 178 -12 q 133 32 102 79 q 70 125 54 179 q 37 232 37 295 l 37 295 q 37 375 70 438 q 102 501 164 538 q 226 574 315 574 z m 737 574 l 737 574 q 809 574 872 552 q 935 530 983 488 q 1031 445 1059 382 q 1086 319 1086 237 l 1086 237 q 1086 151 1057 96 q 1027 40 973 14 q 919 -12 843 -12 l 843 -12 q 766 -12 720 13 q 673 38 653 78 q 633 117 633 161 l 633 161 q 633 211 654 248 q 674 284 708 306 l 708 306 q 731 321 759 330 q 786 339 826 343 q 866 347 925 347 l 925 347 l 1208 347 l 1208 242 l 932 242 q 880 242 853 238 q 826 234 806 221 l 806 221 q 793 212 785 199 q 777 185 777 163 l 777 163 q 777 135 794 114 q 811 93 851 93 l 851 93 q 879 93 900 109 q 920 124 931 156 q 942 188 942 239 l 942 239 q 942 253 941 270 q 940 286 938 299 l 938 299 l 931 333 q 923 368 899 399 q 874 429 834 449 q 793 468 736 468 l 736 468 q 705 468 678 460 q 650 451 627 433 l 627 433 q 608 418 596 397 q 583 375 577 339 q 570 302 570 242 l 570 242 l 570 211 l 484 227 l 479 466 q 504 494 539 519 q 573 543 622 559 q 670 574 737 574 z"},"ൺ":{"ha":1677,"x_min":37,"x_max":1640,"o":"m 399 574 l 399 574 q 489 574 550 549 q 610 523 658 473 l 658 473 l 621 494 q 656 535 705 555 q 753 574 811 574 l 811 574 q 884 574 928 551 q 972 527 1009 486 l 1009 486 l 1011 441 l 1066 302 l 1066 0 l 919 0 l 919 311 q 919 361 913 391 q 907 420 890 439 l 890 439 q 878 453 859 461 q 839 468 811 468 l 811 468 q 786 468 767 460 q 747 451 733 436 l 733 436 q 717 417 710 389 q 703 360 703 301 l 703 301 l 703 0 l 556 0 l 556 268 q 556 345 544 380 q 532 415 511 433 l 511 433 q 492 450 466 459 q 440 468 396 468 l 396 468 q 332 468 282 443 q 231 417 202 366 q 172 315 172 240 l 172 240 l 172 237 q 172 181 184 149 q 196 116 217 102 q 237 88 262 88 l 262 88 q 283 88 298 97 q 312 106 320 124 q 327 141 327 167 l 327 167 q 327 205 310 226 q 292 247 255 247 l 255 247 q 218 247 184 227 q 150 206 116 168 l 116 168 l 104 267 q 132 296 181 322 q 229 347 291 347 l 291 347 q 348 347 388 326 q 428 304 449 266 q 469 227 469 174 l 469 174 q 469 116 445 75 q 421 33 376 11 q 331 -12 267 -12 l 267 -12 q 207 -12 155 14 q 102 40 70 96 q 37 152 37 242 l 37 242 q 37 350 85 424 q 133 498 216 536 q 298 574 399 574 z m 1402 -12 l 1402 -12 q 1327 -12 1276 16 q 1224 44 1198 98 q 1171 151 1171 227 l 1171 227 q 1171 267 1184 310 q 1197 353 1231 400 q 1265 446 1327 495 l 1327 495 l 1342 520 q 1383 555 1406 581 q 1428 607 1428 639 l 1428 639 q 1428 665 1413 680 q 1397 695 1360 695 l 1360 695 q 1341 695 1324 692 q 1307 689 1296 686 l 1296 686 l 1270 782 q 1294 790 1332 795 q 1370 800 1410 800 l 1410 800 q 1476 800 1512 779 q 1547 758 1561 727 q 1574 696 1574 665 l 1574 665 q 1574 611 1544 564 q 1514 517 1456 470 l 1456 470 l 1440 454 q 1396 420 1369 381 q 1342 341 1330 300 q 1318 259 1318 222 l 1318 222 q 1318 182 1327 153 q 1336 124 1355 109 q 1374 93 1404 93 l 1404 93 q 1447 93 1469 124 q 1490 155 1490 225 l 1490 225 q 1490 265 1479 306 q 1467 347 1443 382 q 1419 417 1381 440 l 1381 440 q 1358 454 1331 463 q 1304 471 1257 471 l 1257 471 q 1218 471 1186 464 q 1154 456 1128 437 l 1128 437 q 1110 423 1096 401 q 1082 379 1074 343 q 1066 306 1066 247 l 1066 247 l 1066 100 l 928 100 l 928 284 l 977 468 q 1006 499 1042 523 q 1077 546 1129 560 q 1180 574 1254 574 l 1254 574 q 1306 574 1351 566 q 1395 558 1433 541 l 1433 541 q 1437 540 1441 538 q 1444 536 1448 534 l 1448 534 q 1512 504 1555 457 q 1597 409 1619 352 q 1640 294 1640 233 l 1640 233 q 1640 117 1580 53 q 1520 -12 1402 -12 z"},"ൻ":{"ha":1181,"x_min":37,"x_max":1144,"o":"m 315 574 l 315 574 q 362 574 395 566 q 428 557 456 540 q 484 522 514 495 l 514 495 l 570 232 l 570 0 l 423 0 l 423 324 q 423 368 418 393 q 413 418 400 436 l 400 436 q 390 450 372 459 q 353 468 323 468 l 323 468 q 289 468 258 450 q 226 432 206 394 q 186 355 186 294 l 186 294 q 186 253 196 215 q 205 177 226 140 q 247 103 282 64 l 282 64 l 178 -12 q 133 32 102 79 q 70 125 54 179 q 37 232 37 295 l 37 295 q 37 375 70 438 q 102 501 164 538 q 226 574 315 574 z m 906 -12 l 906 -12 q 831 -12 780 16 q 728 44 702 98 q 675 151 675 227 l 675 227 q 675 267 688 310 q 701 353 735 400 q 769 446 831 495 l 831 495 l 846 520 q 887 555 910 581 q 932 607 932 639 l 932 639 q 932 665 917 680 q 901 695 864 695 l 864 695 q 845 695 828 692 q 811 689 800 686 l 800 686 l 774 782 q 798 790 836 795 q 874 800 914 800 l 914 800 q 980 800 1016 779 q 1051 758 1065 727 q 1078 696 1078 665 l 1078 665 q 1078 611 1048 564 q 1018 517 960 470 l 960 470 l 944 454 q 900 420 873 381 q 846 341 834 300 q 822 259 822 222 l 822 222 q 822 182 831 153 q 840 124 859 109 q 878 93 908 93 l 908 93 q 951 93 973 124 q 994 155 994 225 l 994 225 q 994 265 983 306 q 971 347 947 382 q 923 417 885 440 l 885 440 q 862 454 835 463 q 808 471 761 471 l 761 471 q 722 471 690 464 q 658 456 632 437 l 632 437 q 614 423 600 401 q 586 379 578 343 q 570 306 570 247 l 570 247 l 570 100 l 432 100 l 432 284 l 481 468 q 510 499 546 523 q 581 546 633 560 q 684 574 758 574 l 758 574 q 810 574 855 566 q 899 558 937 541 l 937 541 q 941 540 945 538 q 948 536 952 534 l 952 534 q 1016 504 1059 457 q 1101 409 1123 352 q 1144 294 1144 233 l 1144 233 q 1144 117 1084 53 q 1024 -12 906 -12 z"},"ർ":{"ha":820,"x_min":37,"x_max":783,"o":"m 546 -12 l 546 -12 q 470 -12 419 16 q 367 44 341 98 q 314 151 314 227 l 314 227 q 314 267 327 310 q 340 353 374 400 q 408 446 470 495 l 470 495 l 485 520 q 527 555 549 581 q 571 607 571 639 l 571 639 q 571 665 556 680 q 540 695 503 695 l 503 695 q 485 695 468 692 q 450 689 439 686 l 439 686 l 413 782 q 437 790 475 795 q 513 800 553 800 l 553 800 q 619 800 655 779 q 690 758 704 727 q 717 696 717 665 l 717 665 q 717 611 687 564 q 657 517 599 470 l 599 470 l 583 454 q 539 420 512 381 q 485 341 473 300 q 461 259 461 222 l 461 222 q 461 182 470 153 q 479 124 499 109 q 518 93 548 93 l 548 93 q 590 93 612 124 q 633 155 633 225 l 633 225 q 633 255 627 286 q 620 316 607 345 q 594 374 574 399 q 553 423 524 440 l 524 440 q 501 454 474 463 q 447 471 400 471 l 400 471 q 331 471 284 448 q 236 425 212 383 q 187 340 187 281 l 187 281 q 187 235 199 198 q 210 161 233 129 q 255 97 289 64 l 289 64 l 191 -12 q 146 25 112 67 q 77 108 57 161 q 37 213 37 281 l 37 281 q 37 339 58 392 q 78 444 121 485 q 164 526 232 550 q 300 574 396 574 l 396 574 q 448 574 493 566 q 538 558 576 541 l 576 541 q 580 540 584 538 q 587 536 591 534 l 591 534 q 655 504 698 456 q 740 408 762 351 q 783 293 783 232 l 783 232 q 783 116 723 52 q 663 -12 546 -12 z"},"ൽ":{"ha":1343,"x_min":37,"x_max":1306,"o":"m 813 574 l 813 574 q 885 574 934 568 q 983 561 1020 551 q 1057 540 1090 527 l 1090 527 l 1126 511 q 1215 462 1261 389 q 1306 316 1306 223 l 1306 223 q 1306 116 1246 52 q 1186 -12 1068 -12 l 1068 -12 q 993 -12 942 16 q 890 44 864 98 q 837 151 837 227 l 837 227 q 837 267 850 310 q 863 353 897 400 q 931 446 993 495 l 993 495 l 1008 520 q 1050 555 1072 581 q 1094 607 1094 639 l 1094 639 q 1094 665 1078 680 q 1062 695 1026 695 l 1026 695 q 1008 695 991 692 q 973 689 962 686 l 962 686 l 936 782 q 960 790 998 795 q 1035 800 1076 800 l 1076 800 q 1142 800 1178 779 q 1213 758 1227 727 q 1240 696 1240 665 l 1240 665 q 1240 611 1210 564 q 1180 517 1122 470 l 1122 470 l 1106 454 q 1062 420 1035 381 q 1008 341 996 300 q 984 259 984 222 l 984 222 q 984 182 993 153 q 1002 124 1022 109 q 1041 93 1071 93 l 1071 93 q 1113 93 1135 124 q 1156 154 1156 219 l 1156 219 q 1156 262 1140 304 q 1124 345 1096 379 q 1068 412 1032 430 l 1032 430 l 989 443 q 949 458 907 464 q 864 469 815 469 l 815 469 q 771 469 727 463 q 683 457 643 443 l 643 443 l 604 432 q 550 404 512 349 q 473 294 473 208 l 473 208 q 473 167 486 142 q 499 116 520 105 q 541 93 564 93 l 564 93 q 588 93 609 105 q 630 117 643 147 q 655 176 655 228 l 655 228 q 655 280 638 324 q 621 368 589 402 q 557 435 513 455 l 513 455 l 488 462 q 469 467 449 470 q 429 472 407 472 l 407 472 q 331 472 283 448 q 234 423 211 380 q 187 337 187 281 l 187 281 q 187 235 199 198 q 210 161 233 129 q 255 97 289 64 l 289 64 l 191 -12 q 146 25 112 67 q 77 108 57 161 q 37 213 37 281 l 37 281 q 37 335 56 387 q 74 439 116 482 q 157 524 225 549 q 292 574 391 574 l 391 574 q 450 574 497 564 q 544 554 586 534 l 586 534 l 614 523 q 701 478 752 403 q 803 327 803 229 l 803 229 q 803 149 776 95 q 748 41 694 15 q 640 -12 561 -12 l 561 -12 q 487 -12 434 15 q 381 42 353 94 q 325 145 325 216 l 325 216 q 325 279 347 331 q 369 383 412 426 q 454 468 517 500 l 517 500 l 536 515 q 587 544 655 559 q 722 574 813 574 z"},"ൾ":{"ha":1159,"x_min":37,"x_max":1122,"o":"m 892 800 l 892 800 q 958 800 994 779 q 1029 758 1043 727 q 1056 696 1056 665 l 1056 665 q 1056 611 1025 564 q 994 517 938 470 l 938 470 l 922 454 q 878 420 851 381 q 824 341 812 300 q 800 259 800 222 l 800 222 q 800 182 809 153 q 818 124 838 109 q 857 93 887 93 l 887 93 q 929 93 951 124 q 972 155 972 225 l 972 225 q 972 255 967 285 q 961 315 949 344 q 936 372 916 397 q 896 422 867 441 l 867 441 q 844 455 816 463 q 787 471 745 471 l 745 471 q 706 471 672 461 q 638 450 615 431 l 615 431 q 582 403 571 358 q 559 313 559 255 l 559 255 l 559 249 q 559 210 553 175 q 547 139 535 109 q 522 78 500 55 l 500 55 q 470 23 424 6 q 378 -12 310 -12 l 310 -12 q 228 -12 167 22 q 105 56 71 118 q 37 180 37 264 l 37 264 q 37 330 54 385 q 70 439 102 486 q 133 532 179 575 l 179 575 l 281 499 q 246 461 225 424 q 204 387 195 350 q 186 312 186 271 l 186 271 q 186 208 202 170 q 218 131 245 113 q 272 95 304 95 l 304 95 q 336 95 356 105 q 375 115 387 134 l 387 134 q 400 154 405 185 q 409 215 409 253 l 409 253 l 409 265 q 409 357 433 414 q 456 470 495 503 l 495 503 q 542 542 601 558 q 660 574 751 574 l 751 574 q 797 574 838 566 q 879 558 914 544 l 914 544 l 932 536 q 994 506 1037 459 q 1079 412 1101 354 q 1122 296 1122 233 l 1122 233 q 1122 117 1062 53 q 1002 -12 885 -12 l 885 -12 q 809 -12 758 16 q 706 44 680 98 q 653 151 653 227 l 653 227 q 653 267 666 310 q 679 353 713 400 q 747 446 809 495 l 809 495 l 824 520 q 865 555 888 581 q 910 607 910 639 l 910 639 q 910 665 895 680 q 879 695 842 695 l 842 695 q 823 695 806 692 q 789 689 778 686 l 778 686 l 752 782 q 776 790 814 795 q 852 800 892 800 z"},"ൿ":{"ha":1348,"x_min":29,"x_max":1317,"o":"m 580 574 l 580 574 q 676 574 736 537 q 796 499 824 433 q 852 367 852 283 l 852 283 q 852 188 820 122 q 788 56 728 22 q 667 -12 581 -12 l 581 -12 q 515 -12 463 9 q 410 29 376 66 l 376 66 q 341 106 324 162 q 306 217 306 283 l 306 283 q 306 418 378 496 q 450 574 580 574 z m 580 469 l 580 469 q 514 469 482 421 q 450 373 450 282 l 450 282 q 450 222 465 180 q 479 137 508 115 q 536 93 579 93 l 579 93 q 621 93 650 115 q 678 136 693 179 q 708 221 708 282 l 708 282 q 708 344 694 386 q 679 427 651 448 q 622 469 580 469 z m 231 -12 l 231 -12 q 133 -12 81 34 q 29 80 29 161 l 29 161 q 29 211 53 247 q 76 283 114 305 l 114 305 q 140 320 171 330 q 201 339 246 343 q 290 347 358 347 l 358 347 l 1042 347 q 1108 347 1158 338 q 1208 329 1248 301 l 1248 301 q 1279 279 1298 247 q 1317 214 1317 167 l 1317 167 q 1317 85 1267 37 q 1216 -12 1111 -12 l 1111 -12 q 1005 -12 952 38 q 898 87 898 161 l 898 161 q 898 198 907 229 q 915 259 931 290 l 931 290 q 932 292 932 295 q 932 298 933 300 l 933 300 q 947 326 965 357 q 982 388 1007 431 l 1007 431 q 1038 483 1058 520 q 1078 556 1088 585 q 1098 613 1098 638 l 1098 638 q 1098 664 1083 680 q 1067 695 1030 695 l 1030 695 q 1012 695 995 692 q 977 689 966 686 l 966 686 l 940 782 q 965 790 1003 795 q 1040 800 1080 800 l 1080 800 q 1146 800 1182 779 q 1217 758 1231 727 q 1244 696 1244 665 l 1244 665 q 1244 636 1239 610 q 1233 584 1220 555 q 1207 525 1186 487 q 1164 449 1131 396 l 1131 396 q 1116 372 1104 349 q 1091 326 1080 306 l 1080 306 q 1077 300 1074 294 q 1070 288 1067 282 l 1067 282 q 1054 257 1046 231 q 1038 205 1038 173 l 1038 173 q 1038 143 1048 126 q 1058 108 1074 100 q 1090 92 1108 92 l 1108 92 q 1141 92 1158 110 q 1175 127 1175 160 l 1175 160 q 1175 184 1167 199 q 1158 214 1144 223 l 1144 223 q 1124 237 1099 240 q 1073 242 1049 242 l 1049 242 l 322 242 q 275 242 249 239 q 222 235 202 222 l 202 222 q 189 213 180 199 q 170 184 170 164 l 170 164 q 170 140 179 124 q 188 108 208 100 q 227 92 256 92 l 256 92 q 282 92 311 102 q 339 111 373 137 l 373 137 l 435 45 q 402 23 371 11 q 340 -2 307 -7 q 273 -12 231 -12 z"},"!":{"ha":306,"x_min":67,"x_max":238,"o":"m 213 237 l 94 237 l 69 714 l 238 714 l 213 237 z m 153 -13 l 153 -13 q 117 -13 92 7 q 67 26 67 70 l 67 70 q 67 116 92 135 q 117 153 153 153 l 153 153 q 188 153 213 135 q 238 116 238 70 l 238 70 q 238 26 213 7 q 188 -13 153 -13 z"},"\"":{"ha":479,"x_min":68,"x_max":411,"o":"m 185 542 l 88 542 l 68 800 l 205 800 l 185 542 z m 391 542 l 294 542 l 274 800 l 411 800 l 391 542 z"},"#":{"ha":666,"x_min":32,"x_max":634,"o":"m 217 0 l 112 0 l 148 198 l 32 198 l 32 299 l 167 299 l 190 412 l 67 412 l 67 514 l 208 514 l 246 713 l 353 713 l 315 514 l 412 514 l 450 713 l 555 713 l 517 514 l 634 514 l 634 412 l 498 412 l 475 299 l 601 299 l 601 198 l 456 198 l 418 0 l 311 0 l 349 198 l 254 198 l 217 0 z m 296 412 l 273 299 l 369 299 l 392 412 l 296 412 z"},"%":{"ha":901,"x_min":31,"x_max":870,"o":"m 310 0 l 193 0 l 589 714 l 706 714 l 310 0 z m 199 276 l 199 276 q 117 276 74 336 q 31 395 31 501 l 31 501 q 31 607 71 666 q 111 724 199 724 l 199 724 q 283 724 327 666 q 370 607 370 501 l 370 501 q 370 395 329 336 q 288 276 199 276 z m 200 377 l 200 377 q 224 377 236 408 q 247 438 247 500 l 247 500 q 247 562 236 592 q 224 622 200 622 l 200 622 q 176 622 165 592 q 154 562 154 500 l 154 500 q 154 439 165 408 q 176 377 200 377 z m 699 -9 l 699 -9 q 617 -9 574 51 q 531 110 531 216 l 531 216 q 531 322 571 381 q 611 439 699 439 l 699 439 q 783 439 827 381 q 870 322 870 216 l 870 216 q 870 110 829 51 q 788 -9 699 -9 z m 700 92 l 700 92 q 724 92 736 123 q 747 153 747 215 l 747 215 q 747 277 736 307 q 724 337 700 337 l 700 337 q 676 337 665 307 q 654 277 654 215 l 654 215 q 654 154 665 123 q 676 92 700 92 z"},"'":{"ha":273,"x_min":68,"x_max":205,"o":"m 185 542 l 88 542 l 68 800 l 205 800 l 185 542 z"},"(":{"ha":339,"x_min":39,"x_max":310,"o":"m 39 282 l 39 282 q 39 371 56 467 q 73 562 107 650 q 140 737 188 800 l 188 800 l 309 800 q 267 732 236 646 q 204 559 187 466 q 169 372 169 281 l 169 281 q 169 191 186 99 q 202 6 234 -81 q 265 -169 310 -244 l 310 -244 l 188 -244 q 138 -174 105 -86 q 72 2 56 97 q 39 191 39 282 z"},")":{"ha":339,"x_min":29,"x_max":300,"o":"m 300 274 l 300 274 q 300 186 283 90 q 266 -6 233 -93 q 199 -181 151 -244 l 151 -244 l 30 -244 q 73 -175 104 -89 q 135 -3 153 91 q 170 185 170 275 l 170 275 q 170 366 154 458 q 138 550 107 638 q 75 725 29 800 l 29 800 l 151 800 q 201 730 234 643 q 267 555 284 460 q 300 365 300 274 z"},"*":{"ha":545,"x_min":31,"x_max":514,"o":"m 208 800 l 336 800 l 316 621 l 498 671 l 514 548 l 348 537 l 457 392 l 346 333 l 270 485 l 203 333 l 88 392 l 196 537 l 31 549 l 50 671 l 228 621 l 208 800 z"},"+":{"ha":572,"x_min":43,"x_max":528,"o":"m 339 111 l 232 111 l 232 299 l 43 299 l 43 406 l 232 406 l 232 596 l 339 596 l 339 406 l 528 406 l 528 299 l 339 299 l 339 111 z"},",":{"ha":290,"x_min":31,"x_max":224,"o":"m 80 116 l 217 116 l 224 105 q 215 70 201 30 q 187 -11 171 -51 q 155 -92 138 -129 l 138 -129 l 31 -129 q 41 -89 50 -45 q 59 -2 67 40 q 75 82 80 116 l 80 116 z"},"-":{"ha":322,"x_min":30,"x_max":292,"o":"m 292 207 l 30 207 l 30 329 l 292 329 l 292 207 z"},".":{"ha":285,"x_min":57,"x_max":228,"o":"m 143 -13 l 143 -13 q 107 -13 82 7 q 57 26 57 70 l 57 70 q 57 116 82 135 q 107 153 143 153 l 143 153 q 179 153 204 135 q 228 116 228 70 l 228 70 q 228 26 204 7 q 179 -13 143 -13 z"},"/":{"ha":426,"x_min":17,"x_max":409,"o":"m 143 -244 l 17 -244 l 283 800 l 409 800 l 143 -244 z"},":":{"ha":285,"x_min":57,"x_max":228,"o":"m 143 -13 l 143 -13 q 107 -13 82 7 q 57 26 57 70 l 57 70 q 57 116 82 135 q 107 153 143 153 l 143 153 q 179 153 204 135 q 228 116 228 70 l 228 70 q 228 26 204 7 q 179 -13 143 -13 z m 143 390 l 143 390 q 107 390 82 410 q 57 429 57 473 l 57 473 q 57 519 82 538 q 107 556 143 556 l 143 556 q 179 556 204 538 q 228 519 228 473 l 228 473 q 228 429 204 410 q 179 390 143 390 z"},";":{"ha":290,"x_min":31,"x_max":228,"o":"m 80 116 l 217 116 l 224 105 q 215 70 201 30 q 187 -11 171 -51 q 155 -92 138 -129 l 138 -129 l 31 -129 q 41 -89 50 -45 q 59 -2 67 40 q 75 82 80 116 l 80 116 z m 143 390 l 143 390 q 107 390 82 410 q 57 429 57 473 l 57 473 q 57 519 82 538 q 107 556 143 556 l 143 556 q 179 556 204 538 q 228 519 228 473 l 228 473 q 228 429 204 410 q 179 390 143 390 z"},"<":{"ha":572,"x_min":43,"x_max":528,"o":"m 528 216 l 528 99 l 43 313 l 43 383 l 528 625 l 528 508 l 194 353 l 528 216 z"},"=":{"ha":572,"x_min":43,"x_max":528,"o":"m 528 196 l 43 196 l 43 303 l 528 303 l 528 196 z m 528 402 l 43 402 l 43 508 l 528 508 l 528 402 z"},">":{"ha":572,"x_min":43,"x_max":528,"o":"m 528 313 l 43 99 l 43 216 l 377 353 l 43 508 l 43 625 l 528 383 l 528 313 z"},"?":{"ha":469,"x_min":37,"x_max":446,"o":"m 242 724 l 242 724 q 344 724 395 674 q 446 624 446 547 l 446 547 q 446 506 437 478 q 427 450 406 425 q 384 399 349 366 l 349 366 q 322 341 306 324 q 290 307 284 294 q 277 280 277 266 l 277 266 l 277 237 l 147 237 l 147 273 q 147 302 157 328 q 166 353 187 378 q 208 402 241 428 l 241 428 q 270 451 284 468 q 297 485 301 502 q 305 518 305 539 l 305 539 q 305 571 280 588 q 254 604 218 604 l 218 604 q 184 604 152 596 q 120 588 85 569 l 85 569 l 37 676 q 87 701 133 713 q 179 724 242 724 z m 218 -13 l 218 -13 q 182 -13 157 7 q 132 26 132 70 l 132 70 q 132 116 157 135 q 182 153 218 153 l 218 153 q 253 153 278 135 q 303 116 303 70 l 303 70 q 303 26 278 7 q 253 -13 218 -13 z"},"[":{"ha":341,"x_min":68,"x_max":305,"o":"m 305 -244 l 68 -244 l 68 800 l 305 800 l 305 697 l 195 697 l 195 -141 l 305 -141 l 305 -244 z"},"\\":{"ha":426,"x_min":17,"x_max":409,"o":"m 409 -244 l 283 -244 l 17 800 l 143 800 l 409 -244 z"},"]":{"ha":341,"x_min":36,"x_max":272,"o":"m 272 -244 l 36 -244 l 36 -141 l 146 -141 l 146 697 l 36 697 l 36 800 l 272 800 l 272 -244 z"},"^":{"ha":626,"x_min":31,"x_max":596,"o":"m 146 254 l 31 254 l 264 718 l 334 718 l 596 254 l 479 254 l 302 568 l 146 254 z"},"_":{"ha":411,"x_min":-2,"x_max":413,"o":"m 413 -158 l -2 -158 l -2 -90 l 413 -90 l 413 -158 z"},"{":{"ha":385,"x_min":24,"x_max":349,"o":"m 349 -134 l 349 -244 q 264 -244 220 -222 q 176 -201 161 -164 q 145 -127 145 -79 l 145 -79 l 145 134 q 145 181 114 201 q 82 221 24 221 l 24 221 l 24 338 q 82 338 114 358 q 145 378 145 425 l 145 425 l 145 635 q 145 683 161 720 q 176 757 220 779 q 264 800 349 800 l 349 800 l 349 690 q 309 689 292 669 q 275 648 275 606 l 275 606 l 275 391 q 275 345 246 318 q 217 291 161 283 l 161 283 l 161 277 q 217 269 246 242 q 275 215 275 169 l 275 169 l 275 -50 q 275 -78 283 -96 q 290 -115 307 -124 q 323 -133 349 -134 l 349 -134 z"},"|":{"ha":551,"x_min":222,"x_max":329,"o":"m 329 -244 l 222 -244 l 222 800 l 329 800 l 329 -244 z"},"}":{"ha":385,"x_min":36,"x_max":360,"o":"m 36 690 l 36 800 q 122 800 166 779 q 209 757 225 720 q 240 683 240 635 l 240 635 l 240 425 q 240 378 272 358 q 303 338 360 338 l 360 338 l 360 221 q 303 221 272 201 q 240 181 240 134 l 240 134 l 240 -79 q 240 -127 225 -164 q 209 -201 166 -222 q 122 -244 36 -244 l 36 -244 l 36 -134 q 75 -133 92 -112 q 109 -92 109 -50 l 109 -50 l 109 169 q 109 215 139 242 q 168 269 224 277 l 224 277 l 224 283 q 168 291 139 318 q 109 345 109 391 l 109 391 l 109 606 q 109 634 102 653 q 94 671 78 681 q 62 690 36 690 l 36 690 z"},"~":{"ha":572,"x_min":43,"x_max":528,"o":"m 268 301 l 268 301 q 228 318 205 323 q 181 328 161 328 l 161 328 q 129 328 99 311 q 68 294 43 269 l 43 269 l 43 382 q 68 408 99 422 q 130 435 168 435 l 168 435 q 197 435 227 430 q 256 424 303 404 l 303 404 q 340 388 366 383 q 392 377 414 377 l 414 377 q 443 377 473 394 q 503 411 528 436 l 528 436 l 528 323 q 503 297 472 284 q 441 270 403 270 l 403 270 q 374 270 345 276 q 315 282 268 301 z"}," ":{"ha":309,"x_min":0,"x_max":0,"o":""},"­":{"ha":322,"x_min":30,"x_max":292,"o":"m 292 207 l 30 207 l 30 329 l 292 329 l 292 207 z"},"–":{"ha":500,"x_min":40,"x_max":460,"o":"m 460 207 l 40 207 l 40 329 l 460 329 l 460 207 z"},"—":{"ha":1000,"x_min":40,"x_max":960,"o":"m 960 207 l 40 207 l 40 329 l 960 329 l 960 207 z"},"‘":{"ha":269,"x_min":38,"x_max":231,"o":"m 182 555 l 45 555 l 38 566 q 47 602 61 642 q 75 682 92 723 q 108 764 124 800 l 124 800 l 231 800 q 222 761 213 717 q 203 673 195 632 q 187 590 182 555 l 182 555 z"},"’":{"ha":269,"x_min":38,"x_max":231,"o":"m 87 800 l 224 800 l 231 789 q 222 754 208 714 q 194 673 178 633 q 162 592 145 555 l 145 555 l 38 555 q 45 585 52 617 q 59 649 66 682 q 72 714 78 744 q 83 774 87 800 l 87 800 z"},"“":{"ha":497,"x_min":38,"x_max":459,"o":"m 410 556 l 273 556 l 266 566 q 275 602 289 643 q 303 683 320 724 q 336 764 352 800 l 352 800 l 459 800 q 450 761 441 718 q 431 674 423 633 q 415 591 410 556 l 410 556 z m 182 556 l 45 556 l 38 566 q 47 602 61 643 q 75 683 92 724 q 108 764 124 800 l 124 800 l 231 800 q 222 761 213 718 q 203 674 195 633 q 187 591 182 556 l 182 556 z"},"”":{"ha":497,"x_min":38,"x_max":459,"o":"m 315 800 l 452 800 l 459 790 q 450 754 436 714 q 422 673 406 633 q 390 592 373 556 l 373 556 l 266 556 q 276 595 285 639 q 294 682 302 724 q 310 766 315 800 l 315 800 z m 87 800 l 224 800 l 231 790 q 222 754 208 714 q 194 673 178 633 q 162 592 145 556 l 145 556 l 38 556 q 45 585 52 617 q 59 649 66 682 q 72 714 78 744 q 83 774 87 800 l 87 800 z"},"…":{"ha":855,"x_min":57,"x_max":798,"o":"m 143 -13 l 143 -13 q 107 -13 82 7 q 57 26 57 70 l 57 70 q 57 116 82 135 q 107 153 143 153 l 143 153 q 179 153 204 135 q 228 116 228 70 l 228 70 q 228 26 204 7 q 179 -13 143 -13 z m 428 -13 l 428 -13 q 392 -13 367 7 q 342 26 342 70 l 342 70 q 342 116 367 135 q 392 153 428 153 l 428 153 q 464 153 489 135 q 513 116 513 70 l 513 70 q 513 26 489 7 q 464 -13 428 -13 z m 713 -13 l 713 -13 q 677 -13 652 7 q 627 26 627 70 l 627 70 q 627 116 652 135 q 677 153 713 153 l 713 153 q 749 153 774 135 q 798 116 798 70 l 798 70 q 798 26 774 7 q 749 -13 713 -13 z"},"×":{"ha":572,"x_min":63,"x_max":508,"o":"m 284 429 l 433 575 l 508 502 l 359 353 l 506 205 l 433 131 l 284 278 l 137 132 l 64 206 l 209 353 l 63 500 l 137 575 l 284 429 z"},"÷":{"ha":572,"x_min":43,"x_max":528,"o":"m 528 299 l 43 299 l 43 406 l 528 406 l 528 299 z m 285 108 l 285 108 q 257 108 237 126 q 217 143 217 182 l 217 182 q 217 223 237 240 q 257 256 285 256 l 285 256 q 312 256 333 240 q 353 223 353 182 l 353 182 q 353 143 333 126 q 312 108 285 108 z m 285 449 l 285 449 q 257 449 237 467 q 217 484 217 523 l 217 523 q 217 564 237 581 q 257 597 285 597 l 285 597 q 312 597 333 581 q 353 564 353 523 l 353 523 q 353 484 333 467 q 312 449 285 449 z"},"−":{"ha":572,"x_min":43,"x_max":528,"o":"m 528 299 l 43 299 l 43 406 l 528 406 l 528 299 z"},"₹":{"ha":572,"x_min":54,"x_max":524,"o":"m 407 0 l 234 0 l 54 252 l 73 354 l 107 354 q 153 354 175 362 q 196 370 209 386 l 209 386 q 223 403 230 427 q 236 451 236 483 l 236 483 q 236 521 228 546 q 219 570 205 584 l 205 584 q 192 598 173 603 q 154 608 122 608 l 122 608 l 54 608 l 54 714 l 524 714 l 524 608 l 329 608 q 349 589 362 556 q 375 523 375 477 l 375 477 q 375 417 356 374 q 336 330 297 301 q 257 272 197 257 l 197 257 l 196 277 l 407 0 z m 524 432 l 54 432 l 54 538 l 524 538 l 524 432 z"},"꠰":{"ha":285,"x_min":69,"x_max":216,"o":"m 69 0 l 69 562 l 216 562 l 216 0 l 69 0 z"},"꠱":{"ha":510,"x_min":69,"x_max":441,"o":"m 69 0 l 69 562 l 216 562 l 216 0 l 69 0 z m 294 0 l 294 562 l 441 562 l 441 0 l 294 0 z"},"꠲":{"ha":735,"x_min":69,"x_max":666,"o":"m 69 0 l 69 562 l 216 562 l 216 0 l 69 0 z m 294 0 l 294 562 l 441 562 l 441 0 l 294 0 z m 519 0 l 519 562 l 666 562 l 666 0 l 519 0 z"},"॑":{"ha":0,"x_min":-328,"x_max":-228,"o":"m -328 653 l -328 864 l -228 864 l -228 653 l -328 653 z"},"॒":{"ha":0,"x_min":-518,"x_max":-39,"o":"m -39 -100 l -39 -191 l -518 -191 l -518 -100 l -39 -100 z"},"।":{"ha":388,"x_min":158,"x_max":308,"o":"m 308 -49 l 158 -49 l 158 603 l 308 603 l 308 -49 z"},"॥":{"ha":681,"x_min":158,"x_max":601,"o":"m 601 -49 l 452 -49 l 452 603 l 601 603 l 601 -49 z m 308 -49 l 158 -49 l 158 603 l 308 603 l 308 -49 z"},"᳚":{"ha":0,"x_min":-395,"x_max":-161,"o":"m -395 653 l -395 864 l -304 864 l -304 653 l -395 653 z m -252 653 l -252 864 l -161 864 l -161 653 l -252 653 z"},"̇":{"ha":0,"x_min":-353,"x_max":-203,"o":"m -353 701 l -353 701 q -353 740 -331 756 q -309 771 -278 771 l -278 771 q -247 771 -225 756 q -203 740 -203 701 l -203 701 q -203 661 -225 646 q -247 631 -278 631 l -278 631 q -309 631 -331 646 q -353 661 -353 701 z"},"̣":{"ha":0,"x_min":-353,"x_max":-203,"o":"m -353 -136 l -353 -136 q -353 -96 -331 -81 q -309 -66 -278 -66 l -278 -66 q -247 -66 -225 -81 q -203 -96 -203 -136 l -203 -136 q -203 -175 -225 -190 q -247 -206 -278 -206 l -278 -206 q -309 -206 -331 -190 q -353 -175 -353 -136 z"},"‐":{"ha":322,"x_min":30,"x_max":292,"o":"m 292 207 l 30 207 l 30 329 l 292 329 l 292 207 z"},"​":{"ha":0,"x_min":0,"x_max":0,"o":""},"‌":{"ha":0,"x_min":0,"x_max":0,"o":""},"‍":{"ha":0,"x_min":-161,"x_max":161,"o":"m 29 -244 l -29 -244 l -29 565 l -121 474 l -161 514 l -40 631 l -161 748 l -121 788 l 0 669 l 121 788 l 161 748 l 40 631 l 161 514 l 121 474 l 29 565 l 29 -244 z"},"◌":{"ha":562,"x_min":57,"x_max":504,"o":"m 89 231 l 89 231 q 57 231 57 264 l 57 264 q 57 295 89 295 l 89 295 q 121 295 121 264 l 121 264 q 121 231 89 231 z m 138 95 l 138 95 q 106 95 106 127 l 106 127 q 106 158 138 158 l 138 158 q 169 158 169 127 l 169 127 q 169 95 138 95 z m 281 40 l 281 40 q 249 40 249 72 l 249 72 q 249 104 281 104 l 281 104 q 312 104 312 72 l 312 72 q 312 40 281 40 z m 138 369 l 138 369 q 106 369 106 401 l 106 401 q 106 432 138 432 l 138 432 q 169 432 169 401 l 169 401 q 169 369 138 369 z m 423 95 l 423 95 q 391 95 391 127 l 391 127 q 391 158 423 158 l 423 158 q 455 158 455 127 l 455 127 q 455 95 423 95 z m 281 424 l 281 424 q 249 424 249 456 l 249 456 q 249 487 281 487 l 281 487 q 312 487 312 456 l 312 456 q 312 424 281 424 z m 472 231 l 472 231 q 441 231 441 264 l 441 264 q 441 295 472 295 l 472 295 q 504 295 504 264 l 504 264 q 504 231 472 231 z m 423 369 l 423 369 q 391 369 391 401 l 391 401 q 391 432 423 432 l 423 432 q 455 432 455 401 l 455 401 q 455 369 423 369 z"},"«":{"ha":615,"x_min":40,"x_max":575,"o":"m 40 267 l 40 280 l 221 502 l 328 444 l 192 274 l 328 104 l 221 46 l 40 267 z m 287 267 l 287 280 l 468 502 l 575 444 l 439 274 l 575 104 l 468 46 l 287 267 z"},"»":{"ha":615,"x_min":40,"x_max":575,"o":"m 575 280 l 575 267 l 394 46 l 287 104 l 423 274 l 287 444 l 394 502 l 575 280 z m 328 280 l 328 267 l 147 46 l 40 104 l 176 274 l 40 444 l 147 502 l 328 280 z"},"̈":{"ha":0,"x_min":-167,"x_max":168,"o":"m -167 686 l -167 686 q -167 721 -147 737 q -127 752 -99 752 l -99 752 q -71 752 -50 737 q -30 721 -30 686 l -30 686 q -30 653 -50 637 q -71 621 -99 621 l -99 621 q -127 621 -147 637 q -167 653 -167 686 z m 30 686 l 30 686 q 30 721 50 737 q 70 752 99 752 l 99 752 q 127 752 148 737 q 168 721 168 686 l 168 686 q 168 653 148 637 q 127 621 99 621 l 99 621 q 71 621 51 637 q 30 653 30 686 z"},"̀":{"ha":0,"x_min":-530,"x_max":-248,"o":"m -530 766 l -363 766 q -348 744 -327 717 q -307 689 -285 664 q -264 638 -248 619 l -248 619 l -248 606 l -347 606 q -366 619 -391 639 q -417 658 -443 680 q -470 702 -493 722 q -516 742 -530 756 l -530 756 l -530 766 z"},"́":{"ha":0,"x_min":-329,"x_max":-47,"o":"m -47 766 l -47 756 q -61 742 -84 722 q -107 702 -133 680 q -160 658 -185 639 q -211 619 -230 606 l -230 606 l -329 606 l -329 619 q -313 638 -291 664 q -270 689 -249 717 q -228 744 -214 766 l -214 766 l -47 766 z"},"̋":{"ha":0,"x_min":-151,"x_max":285,"o":"m 285 766 l 285 756 q 277 743 258 723 q 239 703 214 681 q 189 659 165 640 q 140 620 122 606 l 122 606 l 43 606 l 43 619 q 57 638 75 664 q 93 690 110 717 q 127 744 138 766 l 138 766 l 285 766 z m 91 766 l 91 756 q 83 743 64 723 q 45 703 20 681 q -5 659 -29 640 q -54 620 -72 606 l -72 606 l -151 606 l -151 619 q -137 638 -119 664 q -102 690 -85 717 q -68 744 -56 766 l -56 766 l 91 766 z"},"̄":{"ha":0,"x_min":-165,"x_max":166,"o":"m -165 709 l 166 709 l 166 606 l -165 606 l -165 709 z"},"˙":{"ha":242,"x_min":40,"x_max":202,"o":"m 121 760 l 121 760 q 154 760 178 745 q 202 729 202 687 l 202 687 q 202 646 178 630 q 154 614 121 614 l 121 614 q 87 614 64 630 q 40 646 40 687 l 40 687 q 40 729 64 745 q 87 760 121 760 z"},"°":{"ha":428,"x_min":39,"x_max":388,"o":"m 214 387 l 214 387 q 163 387 124 409 q 84 430 62 468 q 39 506 39 555 l 39 555 q 39 604 62 642 q 84 680 124 702 q 163 724 214 724 l 214 724 q 266 724 305 703 q 344 681 366 643 q 388 605 388 555 l 388 555 q 388 506 366 468 q 344 430 305 409 q 266 387 214 387 z m 214 480 l 214 480 q 246 480 268 501 q 290 521 290 555 l 290 555 q 290 591 268 612 q 246 632 214 632 l 214 632 q 183 632 161 612 q 138 591 138 555 l 138 555 q 138 521 161 501 q 183 480 214 480 z"},"A":{"ha":690,"x_min":0,"x_max":690,"o":"m 690 0 l 527 0 l 475 170 l 215 170 l 163 0 l 0 0 l 252 717 l 437 717 l 690 0 z m 439 297 l 387 463 q 382 480 374 506 q 366 532 358 559 q 350 586 345 606 l 345 606 q 340 586 332 557 q 323 527 316 501 q 308 474 304 463 l 304 463 l 253 297 l 439 297 z"},"Á":{"ha":690,"x_min":0,"x_max":690,"o":"m 690 0 l 527 0 l 475 170 l 215 170 l 163 0 l 0 0 l 252 717 l 437 717 l 690 0 z m 439 297 l 387 463 q 382 480 374 506 q 366 532 358 559 q 350 586 345 606 l 345 606 q 340 586 332 557 q 323 527 316 501 q 308 474 304 463 l 304 463 l 253 297 l 439 297 z m 556 934 l 556 924 q 542 910 519 890 q 496 870 470 848 q 443 826 418 807 q 392 787 373 774 l 373 774 l 274 774 l 274 787 q 290 806 312 832 q 333 857 354 885 q 375 912 389 934 l 389 934 l 556 934 z"},"Ă":{"ha":690,"x_min":0,"x_max":690,"o":"m 690 0 l 527 0 l 475 170 l 215 170 l 163 0 l 0 0 l 252 717 l 437 717 l 690 0 z m 439 297 l 387 463 q 382 480 374 506 q 366 532 358 559 q 350 586 345 606 l 345 606 q 340 586 332 557 q 323 527 316 501 q 308 474 304 463 l 304 463 l 253 297 l 439 297 z m 452 939 l 537 939 q 534 891 509 854 q 483 816 441 795 q 399 774 343 774 l 343 774 q 257 774 207 819 q 157 864 153 939 l 153 939 l 236 939 q 239 911 254 898 q 268 885 292 882 q 316 878 344 878 l 344 878 q 368 878 392 883 q 415 887 432 900 q 449 913 452 939 l 452 939 z"},"Â":{"ha":690,"x_min":0,"x_max":690,"o":"m 690 0 l 527 0 l 475 170 l 215 170 l 163 0 l 0 0 l 252 717 l 437 717 l 690 0 z m 439 297 l 387 463 q 382 480 374 506 q 366 532 358 559 q 350 586 345 606 l 345 606 q 340 586 332 557 q 323 527 316 501 q 308 474 304 463 l 304 463 l 253 297 l 439 297 z m 258 934 l 432 934 q 446 912 469 885 q 491 857 515 831 q 539 805 557 787 l 557 787 l 557 774 l 458 774 q 432 790 401 812 q 370 833 344 860 l 344 860 q 318 833 288 812 q 258 791 232 774 l 232 774 l 133 774 l 133 787 q 152 806 176 832 q 199 857 222 885 q 244 912 258 934 l 258 934 z"},"Ä":{"ha":690,"x_min":0,"x_max":690,"o":"m 690 0 l 527 0 l 475 170 l 215 170 l 163 0 l 0 0 l 252 717 l 437 717 l 690 0 z m 439 297 l 387 463 q 382 480 374 506 q 366 532 358 559 q 350 586 345 606 l 345 606 q 340 586 332 557 q 323 527 316 501 q 308 474 304 463 l 304 463 l 253 297 l 439 297 z m 177 854 l 177 854 q 177 889 197 905 q 217 920 245 920 l 245 920 q 273 920 294 905 q 314 889 314 854 l 314 854 q 314 821 294 805 q 273 789 245 789 l 245 789 q 217 789 197 805 q 177 821 177 854 z m 374 854 l 374 854 q 374 889 394 905 q 414 920 443 920 l 443 920 q 471 920 492 905 q 512 889 512 854 l 512 854 q 512 821 492 805 q 471 789 443 789 l 443 789 q 415 789 395 805 q 374 821 374 854 z"},"À":{"ha":690,"x_min":0,"x_max":690,"o":"m 690 0 l 527 0 l 475 170 l 215 170 l 163 0 l 0 0 l 252 717 l 437 717 l 690 0 z m 439 297 l 387 463 q 382 480 374 506 q 366 532 358 559 q 350 586 345 606 l 345 606 q 340 586 332 557 q 323 527 316 501 q 308 474 304 463 l 304 463 l 253 297 l 439 297 z m 164 934 l 331 934 q 346 912 367 885 q 387 857 409 832 q 430 806 446 787 l 446 787 l 446 774 l 347 774 q 328 787 303 807 q 277 826 251 848 q 224 870 201 890 q 178 910 164 924 l 164 924 l 164 934 z"},"Ā":{"ha":690,"x_min":0,"x_max":690,"o":"m 690 0 l 527 0 l 475 170 l 215 170 l 163 0 l 0 0 l 252 717 l 437 717 l 690 0 z m 439 297 l 387 463 q 382 480 374 506 q 366 532 358 559 q 350 586 345 606 l 345 606 q 340 586 332 557 q 323 527 316 501 q 308 474 304 463 l 304 463 l 253 297 l 439 297 z m 179 877 l 510 877 l 510 774 l 179 774 l 179 877 z"},"Ą":{"ha":690,"x_min":0,"x_max":690,"o":"m 690 0 l 527 0 l 475 170 l 215 170 l 163 0 l 0 0 l 252 717 l 437 717 l 690 0 z m 439 297 l 387 463 q 382 480 374 506 q 366 532 358 559 q 350 586 345 606 l 345 606 q 340 586 332 557 q 323 527 316 501 q 308 474 304 463 l 304 463 l 253 297 l 439 297 z m 575 -111 l 575 -111 q 575 -131 586 -141 q 597 -151 614 -151 l 614 -151 q 630 -151 645 -148 q 660 -145 670 -142 l 670 -142 l 670 -229 q 654 -233 636 -236 q 618 -240 594 -240 l 594 -240 q 538 -240 505 -208 q 472 -177 472 -128 l 472 -128 q 472 -99 487 -72 q 502 -45 527 -22 q 551 0 582 17 l 582 17 l 647 0 q 613 -32 594 -58 q 575 -85 575 -111 z"},"Å":{"ha":690,"x_min":0,"x_max":690,"o":"m 690 0 l 527 0 l 475 170 l 215 170 l 163 0 l 0 0 l 252 717 l 437 717 l 690 0 z m 439 297 l 387 463 q 382 480 374 506 q 366 532 358 559 q 350 586 345 606 l 345 606 q 340 586 332 557 q 323 527 316 501 q 308 474 304 463 l 304 463 l 253 297 l 439 297 z m 344 648 l 344 648 q 290 648 257 679 q 223 710 223 764 l 223 764 q 223 818 257 849 q 290 880 344 880 l 344 880 q 396 880 432 849 q 468 818 468 765 l 468 765 q 468 710 433 679 q 397 648 344 648 z m 344 717 l 344 717 q 364 717 378 730 q 391 742 391 764 l 391 764 q 391 786 378 799 q 364 811 344 811 l 344 811 q 324 811 311 799 q 297 786 297 764 l 297 764 q 297 742 309 730 q 321 717 344 717 z"},"Ã":{"ha":690,"x_min":0,"x_max":690,"o":"m 690 0 l 527 0 l 475 170 l 215 170 l 163 0 l 0 0 l 252 717 l 437 717 l 690 0 z m 439 297 l 387 463 q 382 480 374 506 q 366 532 358 559 q 350 586 345 606 l 345 606 q 340 586 332 557 q 323 527 316 501 q 308 474 304 463 l 304 463 l 253 297 l 439 297 z m 216 773 l 143 773 q 146 812 158 841 q 169 869 187 888 q 205 906 228 915 q 250 924 276 924 l 276 924 q 296 924 316 917 q 335 909 354 899 q 372 888 390 881 q 408 873 426 873 l 426 873 q 441 873 455 886 q 469 899 475 925 l 475 925 l 548 925 q 542 848 504 811 q 466 774 415 774 l 415 774 q 395 774 376 782 q 357 789 338 800 q 319 810 301 818 q 283 825 265 825 l 265 825 q 250 825 236 812 q 222 799 216 773 l 216 773 z"},"Æ":{"ha":952,"x_min":0,"x_max":893,"o":"m 893 125 l 893 0 l 467 0 l 467 170 l 227 170 l 154 0 l 0 0 l 320 714 l 893 714 l 893 590 l 618 590 l 618 433 l 875 433 l 875 309 l 618 309 l 618 125 l 893 125 z m 405 585 l 282 297 l 467 297 l 467 585 l 405 585 z"},"B":{"ha":672,"x_min":90,"x_max":619,"o":"m 90 714 l 312 714 q 455 714 528 674 q 601 634 601 533 l 601 533 q 601 493 588 460 q 575 427 551 406 q 526 385 491 379 l 491 379 l 491 374 q 527 367 556 349 q 585 331 602 297 q 619 263 619 207 l 619 207 q 619 142 588 96 q 556 49 497 25 q 438 0 357 0 l 357 0 l 90 0 l 90 714 z m 241 431 l 329 431 q 395 431 421 452 q 446 473 446 513 l 446 513 q 446 554 416 572 q 386 590 321 590 l 321 590 l 241 590 l 241 431 z m 335 311 l 241 311 l 241 125 l 340 125 q 408 125 435 152 q 462 178 462 222 l 462 222 q 462 249 451 269 q 439 289 411 300 q 383 311 335 311 l 335 311 z"},"C":{"ha":637,"x_min":58,"x_max":602,"o":"m 393 598 l 393 598 q 350 598 317 581 q 283 564 260 533 q 237 501 226 456 q 214 411 214 355 l 214 355 q 214 279 233 226 q 251 172 291 144 q 331 116 393 116 l 393 116 q 437 116 481 126 q 524 136 575 154 l 575 154 l 575 27 q 528 8 482 -1 q 436 -10 379 -10 l 379 -10 q 269 -10 198 36 q 126 81 92 164 q 58 246 58 356 l 58 356 q 58 437 80 505 q 102 572 145 621 q 187 670 250 697 q 312 724 393 724 l 393 724 q 446 724 500 711 q 553 697 602 674 l 602 674 l 553 551 q 513 570 473 584 q 432 598 393 598 z"},"Ć":{"ha":637,"x_min":58,"x_max":602,"o":"m 393 598 l 393 598 q 350 598 317 581 q 283 564 260 533 q 237 501 226 456 q 214 411 214 355 l 214 355 q 214 279 233 226 q 251 172 291 144 q 331 116 393 116 l 393 116 q 437 116 481 126 q 524 136 575 154 l 575 154 l 575 27 q 528 8 482 -1 q 436 -10 379 -10 l 379 -10 q 269 -10 198 36 q 126 81 92 164 q 58 246 58 356 l 58 356 q 58 437 80 505 q 102 572 145 621 q 187 670 250 697 q 312 724 393 724 l 393 724 q 446 724 500 711 q 553 697 602 674 l 602 674 l 553 551 q 513 570 473 584 q 432 598 393 598 z m 588 934 l 588 924 q 574 910 551 890 q 528 870 502 848 q 475 826 450 807 q 424 787 405 774 l 405 774 l 306 774 l 306 787 q 322 806 344 832 q 365 857 386 885 q 407 912 421 934 l 421 934 l 588 934 z"},"Č":{"ha":637,"x_min":58,"x_max":602,"o":"m 393 598 l 393 598 q 350 598 317 581 q 283 564 260 533 q 237 501 226 456 q 214 411 214 355 l 214 355 q 214 279 233 226 q 251 172 291 144 q 331 116 393 116 l 393 116 q 437 116 481 126 q 524 136 575 154 l 575 154 l 575 27 q 528 8 482 -1 q 436 -10 379 -10 l 379 -10 q 269 -10 198 36 q 126 81 92 164 q 58 246 58 356 l 58 356 q 58 437 80 505 q 102 572 145 621 q 187 670 250 697 q 312 724 393 724 l 393 724 q 446 724 500 711 q 553 697 602 674 l 602 674 l 553 551 q 513 570 473 584 q 432 598 393 598 z m 464 774 l 290 774 q 276 797 254 824 q 231 851 208 877 q 184 903 165 921 l 165 921 l 165 934 l 264 934 q 290 918 320 897 q 350 875 376 848 l 376 848 q 402 875 433 897 q 464 918 490 934 l 490 934 l 589 934 l 589 921 q 571 903 547 877 q 523 851 501 824 q 478 797 464 774 l 464 774 z"},"Ç":{"ha":637,"x_min":58,"x_max":602,"o":"m 393 598 l 393 598 q 350 598 317 581 q 283 564 260 533 q 237 501 226 456 q 214 411 214 355 l 214 355 q 214 279 233 226 q 251 172 291 144 q 331 116 393 116 l 393 116 q 437 116 481 126 q 524 136 575 154 l 575 154 l 575 27 q 528 8 482 -1 q 436 -10 379 -10 l 379 -10 q 269 -10 198 36 q 126 81 92 164 q 58 246 58 356 l 58 356 q 58 437 80 505 q 102 572 145 621 q 187 670 250 697 q 312 724 393 724 l 393 724 q 446 724 500 711 q 553 697 602 674 l 602 674 l 553 551 q 513 570 473 584 q 432 598 393 598 z m 486 -122 l 486 -122 q 486 -178 454 -209 q 421 -240 335 -240 l 335 -240 q 313 -240 296 -237 q 278 -234 264 -230 l 264 -230 l 264 -148 q 278 -152 299 -155 q 319 -158 334 -158 l 334 -158 q 348 -158 359 -151 q 369 -145 369 -128 l 369 -128 q 369 -110 351 -96 q 333 -82 288 -75 l 288 -75 l 326 0 l 420 0 l 407 -30 q 427 -36 445 -48 q 463 -61 475 -79 q 486 -97 486 -122 z"},"Ċ":{"ha":637,"x_min":58,"x_max":602,"o":"m 393 598 l 393 598 q 350 598 317 581 q 283 564 260 533 q 237 501 226 456 q 214 411 214 355 l 214 355 q 214 279 233 226 q 251 172 291 144 q 331 116 393 116 l 393 116 q 437 116 481 126 q 524 136 575 154 l 575 154 l 575 27 q 528 8 482 -1 q 436 -10 379 -10 l 379 -10 q 269 -10 198 36 q 126 81 92 164 q 58 246 58 356 l 58 356 q 58 437 80 505 q 102 572 145 621 q 187 670 250 697 q 312 724 393 724 l 393 724 q 446 724 500 711 q 553 697 602 674 l 602 674 l 553 551 q 513 570 473 584 q 432 598 393 598 z m 377 928 l 377 928 q 410 928 434 913 q 458 897 458 855 l 458 855 q 458 814 434 798 q 410 782 377 782 l 377 782 q 343 782 320 798 q 296 814 296 855 l 296 855 q 296 897 320 913 q 343 928 377 928 z"},"D":{"ha":740,"x_min":90,"x_max":682,"o":"m 682 364 l 682 364 q 682 244 636 163 q 590 82 503 41 q 415 0 292 0 l 292 0 l 90 0 l 90 714 l 314 714 q 426 714 509 674 q 591 634 637 557 q 682 479 682 364 z m 525 360 l 525 360 q 525 439 502 490 q 479 541 434 566 q 388 590 322 590 l 322 590 l 241 590 l 241 125 l 306 125 q 417 125 471 184 q 525 243 525 360 z"},"Ð":{"ha":740,"x_min":23,"x_max":682,"o":"m 90 714 l 314 714 q 426 714 509 674 q 591 634 637 557 q 682 479 682 364 l 682 364 q 682 244 636 163 q 590 82 503 41 q 415 0 292 0 l 292 0 l 90 0 l 90 291 l 23 291 l 23 415 l 90 415 l 90 714 z m 321 590 l 321 590 l 241 590 l 241 415 l 357 415 l 357 291 l 241 291 l 241 125 l 305 125 q 415 125 470 184 q 525 243 525 360 l 525 360 q 525 439 501 490 q 477 541 432 566 q 386 590 321 590 z"},"Ď":{"ha":740,"x_min":90,"x_max":682,"o":"m 682 364 l 682 364 q 682 244 636 163 q 590 82 503 41 q 415 0 292 0 l 292 0 l 90 0 l 90 714 l 314 714 q 426 714 509 674 q 591 634 637 557 q 682 479 682 364 z m 525 360 l 525 360 q 525 439 502 490 q 479 541 434 566 q 388 590 322 590 l 322 590 l 241 590 l 241 125 l 306 125 q 417 125 471 184 q 525 243 525 360 z m 457 774 l 283 774 q 269 797 247 824 q 224 851 201 877 q 177 903 158 921 l 158 921 l 158 934 l 257 934 q 283 918 313 897 q 343 875 369 848 l 369 848 q 395 875 426 897 q 457 918 483 934 l 483 934 l 582 934 l 582 921 q 564 903 540 877 q 516 851 494 824 q 471 797 457 774 l 457 774 z"},"Đ":{"ha":740,"x_min":23,"x_max":682,"o":"m 90 714 l 314 714 q 426 714 509 674 q 591 634 637 557 q 682 479 682 364 l 682 364 q 682 244 636 163 q 590 82 503 41 q 415 0 292 0 l 292 0 l 90 0 l 90 291 l 23 291 l 23 415 l 90 415 l 90 714 z m 321 590 l 321 590 l 241 590 l 241 415 l 357 415 l 357 291 l 241 291 l 241 125 l 305 125 q 415 125 470 184 q 525 243 525 360 l 525 360 q 525 439 501 490 q 477 541 432 566 q 386 590 321 590 z"},"E":{"ha":560,"x_min":90,"x_max":501,"o":"m 501 125 l 501 0 l 90 0 l 90 714 l 501 714 l 501 590 l 241 590 l 241 433 l 483 433 l 483 309 l 241 309 l 241 125 l 501 125 z"},"É":{"ha":560,"x_min":90,"x_max":512,"o":"m 501 125 l 501 0 l 90 0 l 90 714 l 501 714 l 501 590 l 241 590 l 241 433 l 483 433 l 483 309 l 241 309 l 241 125 l 501 125 z m 512 934 l 512 924 q 498 910 475 890 q 452 870 426 848 q 399 826 374 807 q 348 787 329 774 l 329 774 l 230 774 l 230 787 q 246 806 268 832 q 289 857 310 885 q 331 912 345 934 l 345 934 l 512 934 z"},"Ě":{"ha":560,"x_min":89,"x_max":513,"o":"m 501 125 l 501 0 l 90 0 l 90 714 l 501 714 l 501 590 l 241 590 l 241 433 l 483 433 l 483 309 l 241 309 l 241 125 l 501 125 z m 388 774 l 214 774 q 200 797 178 824 q 155 851 132 877 q 108 903 89 921 l 89 921 l 89 934 l 188 934 q 214 918 244 897 q 274 875 300 848 l 300 848 q 326 875 357 897 q 388 918 414 934 l 414 934 l 513 934 l 513 921 q 495 903 471 877 q 447 851 425 824 q 402 797 388 774 l 388 774 z"},"Ê":{"ha":560,"x_min":89,"x_max":513,"o":"m 501 125 l 501 0 l 90 0 l 90 714 l 501 714 l 501 590 l 241 590 l 241 433 l 483 433 l 483 309 l 241 309 l 241 125 l 501 125 z m 214 934 l 388 934 q 402 912 425 885 q 447 857 471 831 q 495 805 513 787 l 513 787 l 513 774 l 414 774 q 388 790 357 812 q 326 833 300 860 l 300 860 q 274 833 244 812 q 214 791 188 774 l 188 774 l 89 774 l 89 787 q 108 806 132 832 q 155 857 178 885 q 200 912 214 934 l 214 934 z"},"Ë":{"ha":560,"x_min":90,"x_max":501,"o":"m 501 125 l 501 0 l 90 0 l 90 714 l 501 714 l 501 590 l 241 590 l 241 433 l 483 433 l 483 309 l 241 309 l 241 125 l 501 125 z m 133 854 l 133 854 q 133 889 153 905 q 173 920 201 920 l 201 920 q 229 920 250 905 q 270 889 270 854 l 270 854 q 270 821 250 805 q 229 789 201 789 l 201 789 q 173 789 153 805 q 133 821 133 854 z m 330 854 l 330 854 q 330 889 350 905 q 370 920 399 920 l 399 920 q 427 920 448 905 q 468 889 468 854 l 468 854 q 468 821 448 805 q 427 789 399 789 l 399 789 q 371 789 351 805 q 330 821 330 854 z"},"Ė":{"ha":560,"x_min":90,"x_max":501,"o":"m 501 125 l 501 0 l 90 0 l 90 714 l 501 714 l 501 590 l 241 590 l 241 433 l 483 433 l 483 309 l 241 309 l 241 125 l 501 125 z m 301 928 l 301 928 q 334 928 358 913 q 382 897 382 855 l 382 855 q 382 814 358 798 q 334 782 301 782 l 301 782 q 267 782 244 798 q 220 814 220 855 l 220 855 q 220 897 244 913 q 267 928 301 928 z"},"È":{"ha":560,"x_min":90,"x_max":501,"o":"m 501 125 l 501 0 l 90 0 l 90 714 l 501 714 l 501 590 l 241 590 l 241 433 l 483 433 l 483 309 l 241 309 l 241 125 l 501 125 z m 120 934 l 287 934 q 302 912 323 885 q 343 857 365 832 q 386 806 402 787 l 402 787 l 402 774 l 303 774 q 284 787 259 807 q 233 826 207 848 q 180 870 157 890 q 134 910 120 924 l 120 924 l 120 934 z"},"Ē":{"ha":560,"x_min":90,"x_max":501,"o":"m 501 125 l 501 0 l 90 0 l 90 714 l 501 714 l 501 590 l 241 590 l 241 433 l 483 433 l 483 309 l 241 309 l 241 125 l 501 125 z m 135 877 l 466 877 l 466 774 l 135 774 l 135 877 z"},"Ę":{"ha":560,"x_min":90,"x_max":501,"o":"m 501 125 l 501 0 l 90 0 l 90 714 l 501 714 l 501 590 l 241 590 l 241 433 l 483 433 l 483 309 l 241 309 l 241 125 l 501 125 z m 406 -111 l 406 -111 q 406 -131 417 -141 q 428 -151 445 -151 l 445 -151 q 461 -151 476 -148 q 491 -145 501 -142 l 501 -142 l 501 -229 q 485 -233 467 -236 q 449 -240 425 -240 l 425 -240 q 369 -240 336 -208 q 303 -177 303 -128 l 303 -128 q 303 -99 318 -72 q 333 -45 358 -22 q 382 0 413 17 l 413 17 l 478 0 q 444 -32 425 -58 q 406 -85 406 -111 z"},"F":{"ha":549,"x_min":90,"x_max":499,"o":"m 239 282 l 239 0 l 90 0 l 90 714 l 499 714 l 499 590 l 239 590 l 239 406 l 481 406 l 481 282 l 239 282 z"}}}
